# Blender 5.1.2
# www.blender.org
mtllib DeskBench.mtl
o Cube.001
v -3.000540 -0.100000 3.500000
v -3.000540 0.100000 3.500000
v -3.000540 -0.100000 2.900000
v -3.000540 0.100000 2.900000
v 3.000540 -0.100000 3.500000
v 3.000540 0.100000 3.500000
v 3.000540 -0.100000 2.900000
v 3.000540 0.100000 2.900000
v -3.000540 -0.100000 4.200000
v -3.000540 0.100000 4.200000
v -3.000540 -0.100000 3.600000
v -3.000540 0.100000 3.600000
v 3.000540 -0.100000 4.200000
v 3.000540 0.100000 4.200000
v 3.000540 -0.100000 3.600000
v 3.000540 0.100000 3.600000
v -3.000540 0.800000 4.400001
v -3.000540 0.800000 4.200001
v -3.000540 0.200000 4.400001
v -3.000540 0.200000 4.200000
v 3.000540 0.800000 4.400001
v 3.000540 0.800000 4.200001
v 3.000540 0.200000 4.400001
v 3.000540 0.200000 4.200000
v -3.000540 1.500000 4.400001
v -3.000540 1.500000 4.200001
v -3.000540 0.900000 4.400001
v -3.000540 0.900000 4.200001
v 3.000540 1.500000 4.400001
v 3.000540 1.500000 4.200001
v 3.000540 0.900000 4.400001
v 3.000540 0.900000 4.200001
v 0.000000 -0.100000 3.600000
v 0.000000 0.100000 3.600000
v 0.000000 -0.100000 4.200000
v 0.000000 0.100000 4.200000
v 0.000000 -0.100000 2.900000
v 0.000000 0.100000 2.900000
v 0.000000 -0.100000 3.500000
v 0.000000 0.100000 3.500000
v 1.500270 0.100000 2.900000
v 1.500270 -0.100000 3.500000
v 1.500270 -0.100000 2.900000
v 1.500270 0.100000 3.500000
v 1.500270 0.100000 3.600000
v 1.500270 -0.100000 4.200000
v 1.500270 -0.100000 3.600000
v 1.500270 0.100000 4.200000
v -1.500270 -0.100000 3.600000
v -1.500270 0.100000 4.200000
v -1.500270 0.100000 3.600000
v -1.500270 -0.100000 4.200000
v -1.500270 -0.100000 2.900000
v -1.500270 0.100000 3.500000
v -1.500270 0.100000 2.900000
v -1.500270 -0.100000 3.500000
v 2.250405 0.100000 3.600000
v 2.250405 -0.186036 4.200000
v 2.250405 -0.186036 3.600000
v 2.250405 0.100000 4.200000
v 2.250405 0.100000 2.900000
v 2.250405 -0.186036 3.500000
v 2.250405 -0.186036 2.900000
v 2.250405 0.100000 3.500000
v -2.250405 -0.186036 2.900000
v -2.250405 0.100000 3.500000
v -2.250405 0.100000 2.900000
v -2.250405 -0.186036 3.500000
v -2.250405 -0.186036 3.600000
v -2.250405 0.100000 4.200000
v -2.250405 0.100000 3.600000
v -2.250405 -0.186036 4.200000
v -1.875338 0.100000 3.600000
v -1.875338 -0.186036 4.200000
v -1.875338 -0.186036 3.600000
v -1.875338 0.100000 4.200000
v -1.875338 0.100000 2.900000
v -1.875338 -0.186036 3.500000
v -1.875338 -0.186036 2.900000
v -1.875338 0.100000 3.500000
v 1.875338 -0.186036 2.900000
v 1.875338 0.100000 3.500000
v 1.875338 0.100000 2.900000
v 1.875338 -0.186036 3.500000
v 1.875338 -0.186036 3.600000
v 1.875338 0.100000 4.200000
v 1.875338 0.100000 3.600000
v 1.875338 -0.186036 4.200000
v 1.875338 -0.100000 4.200000
v 2.250405 -0.100000 4.200000
v 2.250405 -0.100000 3.600000
v 1.875338 -0.100000 3.500000
v 2.250405 -0.100000 3.500000
v 2.250405 -0.100000 2.900000
v -1.875338 -0.100000 2.900000
v -2.250405 -0.100000 2.900000
v -2.250405 -0.100000 3.500000
v -1.875338 -0.100000 3.600000
v -2.250405 -0.100000 3.600000
v -2.250405 -0.100000 4.200000
v -1.875338 -0.100000 4.200000
v -1.875338 -0.100000 3.500000
v 1.875338 -0.100000 2.900000
v 1.875338 -0.100000 3.600000
v 1.875338 -0.100000 4.200000
v 2.250405 -0.100000 4.200000
v 2.250405 -0.100000 3.600000
v 1.875338 -0.100000 3.500000
v 2.250405 -0.100000 3.500000
v 2.250405 -0.100000 2.900000
v -1.875338 -0.100000 2.900000
v -2.250405 -0.100000 2.900000
v -2.250405 -0.100000 3.500000
v -1.875338 -0.100000 3.600000
v -2.250405 -0.100000 3.600000
v -2.250405 -0.100000 4.200000
v -1.875338 -0.100000 4.200000
v -1.875338 -0.100000 3.500000
v 1.875338 -0.100000 2.900000
v 1.875338 -0.100000 3.600000
v 1.875338 -0.100000 4.200000
v 2.250405 -0.100000 4.200000
v 2.250405 -0.100000 3.600000
v 1.875338 -0.100000 3.500000
v 2.250405 -0.100000 3.500000
v 2.250405 -0.100000 2.900000
v -1.875338 -0.100000 2.900000
v -2.250405 -0.100000 2.900000
v -2.250405 -0.100000 3.500000
v -1.875338 -0.100000 3.600000
v -2.250405 -0.100000 3.600000
v -2.250405 -0.100000 4.200000
v -1.875338 -0.100000 4.200000
v -1.875338 -0.100000 3.500000
v 1.875338 -0.100000 2.900000
v 1.875338 -0.100000 3.600000
v 1.478631 -1.150779 4.062500
v 1.774358 -1.150779 4.062500
v 1.774358 -1.150779 3.589423
v 1.478631 -1.150779 3.510577
v 1.774358 -1.150779 3.510577
v 1.774358 -1.150779 3.037500
v -1.478631 -1.150779 3.037500
v -1.774358 -1.150779 3.037500
v -1.774358 -1.150779 3.510577
v -1.478631 -1.150779 3.589423
v -1.774358 -1.150779 3.589423
v -1.774358 -1.150779 4.062500
v -1.478631 -1.150779 4.062500
v -1.478631 -1.150779 3.510577
v 1.478631 -1.150779 3.037500
v 1.478631 -1.150779 3.589423
v 1.478631 -1.150779 4.062500
v 1.774358 -1.150779 4.062500
v 1.774358 -1.150779 3.589423
v 1.478631 -1.150779 3.510577
v 1.774358 -1.150779 3.510577
v 1.774358 -1.150779 3.037500
v -1.478631 -1.150779 3.037500
v -1.774358 -1.150779 3.037500
v -1.774358 -1.150779 3.510577
v -1.478631 -1.150779 3.589423
v -1.774358 -1.150779 3.589423
v -1.774358 -1.150779 4.062500
v -1.478631 -1.150779 4.062500
v -1.478631 -1.150779 3.510577
v 1.478631 -1.150779 3.037500
v 1.478631 -1.150779 3.589423
v 1.478631 -1.023118 3.510577
v 1.774358 -1.023118 3.510577
v 1.774358 -1.023118 3.037500
v 1.478631 -1.023118 3.037500
v 1.774358 -1.023118 3.589423
v 1.478631 -1.023118 3.589423
v 1.478631 -1.023118 4.062500
v 1.774358 -1.023118 4.062500
v -1.774358 -1.023118 3.510577
v -1.478631 -1.023118 3.510577
v -1.478631 -1.023118 3.037500
v -1.774358 -1.023118 3.037500
v -1.774358 -1.023118 3.589423
v -1.774358 -1.023118 4.062500
v -1.478631 -1.023118 4.062500
v -1.478631 -1.023118 3.589423
vn -1.0000 -0.0000 -0.0000
vn -0.0000 -0.0000 -1.0000
vn 1.0000 -0.0000 -0.0000
vn -0.0000 -1.0000 -0.0000
vn -0.0000 1.0000 -0.0000
vn -0.0000 -0.0000 1.0000
vn -0.9037 0.4283 -0.0000
vn -0.0000 -0.1621 -0.9868
vn 0.8693 -0.4943 -0.0000
vn -0.0000 0.0126 0.9999
vn -0.0000 0.0126 -0.9999
vn -0.0000 -0.1621 0.9868
vn -0.8693 -0.4943 -0.0000
vn 0.9037 0.4283 -0.0000
vt 0.280905 0.585947
vt 0.187270 0.585947
vt 0.187270 0.492312
vt 0.280905 0.492312
vt 0.468635 0.504017
vt 0.375001 0.504017
vt 0.375001 0.492312
vt 0.468635 0.492312
vt 0.656059 0.695184
vt 0.562423 0.695184
vt 0.562423 0.601548
vt 0.656059 0.601548
vt 0.719343 0.695184
vt 0.707639 0.695184
vt 0.707639 0.601548
vt 0.719343 0.601548
vt 0.292763 0.695188
vt 0.281059 0.695188
vt 0.281059 0.601553
vt 0.292763 0.601553
vt 0.280905 0.695188
vt 0.187270 0.695188
vt 0.187270 0.601553
vt 0.280905 0.601553
vt 0.468635 0.597652
vt 0.375001 0.597652
vt 0.375001 0.585947
vt 0.468635 0.585947
vt 0.656059 0.585943
vt 0.562423 0.585943
vt 0.562423 0.492307
vt 0.656059 0.492307
vt 0.187269 0.620327
vt 0.093635 0.620327
vt 0.093635 0.608622
vt 0.187269 0.608622
vt 0.719343 0.585943
vt 0.707639 0.585943
vt 0.707639 0.492307
vt 0.719343 0.492307
vt 0.292763 0.585947
vt 0.281059 0.585947
vt 0.281059 0.492312
vt 0.292763 0.492312
vt 0.937577 0.327723
vt 0.968788 0.327723
vt 0.968788 0.608628
vt 0.937577 0.608628
vt 0.527157 0.492312
vt 0.558369 0.492312
vt 0.558369 0.585947
vt 0.527157 0.585947
vt 1.000000 0.608628
vt 0.968788 0.608628
vt 0.968788 0.327723
vt 1.000000 0.327723
vt 0.937577 0.280905
vt 0.968788 0.280905
vt 0.187270 0.608622
vt 0.093635 0.608622
vt 0.093635 0.327720
vt 0.187270 0.327720
vt 0.093635 0.608625
vt 0.000000 0.608625
vt 0.000000 0.327721
vt 0.093635 0.327721
vt 0.937577 0.000000
vt 0.968788 0.000000
vt 0.000000 0.280904
vt 0.093635 0.280904
vt 1.000000 0.280905
vt 0.968788 0.280905
vt 0.968788 0.000000
vt 1.000000 0.000000
vt 0.527157 0.585947
vt 0.558369 0.585947
vt 0.558369 0.679582
vt 0.527157 0.679582
vt 0.187270 0.280903
vt 0.093635 0.280903
vt 0.093635 0.000000
vt 0.187270 0.000000
vt 0.000000 0.000000
vt 0.351285 0.585947
vt 0.327876 0.585947
vt 0.327876 0.492312
vt 0.351285 0.492312
vt 0.521305 0.585947
vt 0.497896 0.585947
vt 0.497896 0.492312
vt 0.521305 0.492312
vt 0.187269 0.678849
vt 0.093635 0.678849
vt 0.093635 0.655440
vt 0.187269 0.655440
vt 0.468635 0.656174
vt 0.375001 0.656174
vt 0.375001 0.632765
vt 0.468635 0.632765
vt 0.351285 0.695188
vt 0.327876 0.695188
vt 0.327876 0.601553
vt 0.351285 0.601553
vt 0.521305 0.695188
vt 0.497896 0.695188
vt 0.497896 0.601553
vt 0.521305 0.601553
vt 0.468635 0.562539
vt 0.375001 0.562538
vt 0.375001 0.539130
vt 0.468635 0.539130
vt 0.357137 0.695188
vt 0.357137 0.601553
vt 0.474487 0.695188
vt 0.474487 0.601553
vt 0.375001 0.515721
vt 0.468635 0.515721
vt 0.187269 0.684701
vt 0.093635 0.684701
vt 0.357137 0.585947
vt 0.357137 0.492312
vt 0.474487 0.585947
vt 0.474487 0.492312
vt 0.375001 0.609356
vt 0.468635 0.609356
vt 0.468635 0.662026
vt 0.375001 0.662026
vt 0.304467 0.585947
vt 0.304467 0.492312
vt 0.093635 0.632031
vt 0.187269 0.632031
vt 0.468635 0.568391
vt 0.375001 0.568391
vt 0.527157 0.695188
vt 0.527157 0.601553
vt 0.304467 0.695188
vt 0.304467 0.601553
vt 0.374694 0.585947
vt 0.362989 0.585947
vt 0.362989 0.492312
vt 0.374694 0.492312
vt 0.187269 0.702258
vt 0.093635 0.702258
vt 0.093635 0.690553
vt 0.187269 0.690553
vt 0.676173 0.432258
vt 0.750000 0.432540
vt 0.749772 0.492307
vt 0.675945 0.492025
vt 0.468635 0.603504
vt 0.375001 0.603504
vt 0.374694 0.695188
vt 0.362989 0.695188
vt 0.362989 0.601553
vt 0.374694 0.601553
vt 0.664455 0.924641
vt 0.669068 0.924707
vt 0.668213 0.984468
vt 0.663599 0.984402
vt 0.468635 0.509869
vt 0.375001 0.509869
vt 0.731048 0.695184
vt 0.719343 0.695184
vt 0.719343 0.601548
vt 0.731048 0.601548
vt 0.375001 0.585947
vt 0.375001 0.574243
vt 0.468635 0.574243
vt 0.298615 0.695188
vt 0.298615 0.601553
vt 0.731048 0.585943
vt 0.719343 0.585943
vt 0.719343 0.492307
vt 0.731048 0.492307
vt 0.468635 0.679582
vt 0.375001 0.679582
vt 0.375001 0.667878
vt 0.468635 0.667878
vt 0.298615 0.585947
vt 0.298615 0.492312
vt 0.187269 0.626179
vt 0.093635 0.626179
vt 0.394808 0.432263
vt 0.468635 0.432545
vt 0.468407 0.492312
vt 0.394580 0.492030
vt 0.681925 0.924609
vt 0.686539 0.924543
vt 0.687395 0.984304
vt 0.682781 0.984371
vt 0.468635 0.695188
vt 0.468635 0.601553
vt 0.468635 0.492312
vt 0.280905 0.492312
vt 0.668492 0.532667
vt 0.662640 0.532583
vt 0.663217 0.492307
vt 0.669068 0.492391
vt 0.281059 0.040280
vt 0.187424 0.040637
vt 0.187270 0.000358
vt 0.280905 -0.000000
vt 0.700633 0.532667
vt 0.694782 0.532583
vt 0.695359 0.492307
vt 0.701210 0.492391
vt 0.562270 0.040637
vt 0.468635 0.040280
vt 0.468789 -0.000000
vt 0.562423 0.000358
vt 0.681348 0.532667
vt 0.675497 0.532583
vt 0.676073 0.492307
vt 0.681925 0.492391
vt 0.374847 0.040280
vt 0.281212 0.040637
vt 0.281059 0.000358
vt 0.374693 -0.000000
vt 0.694205 0.532667
vt 0.688353 0.532583
vt 0.688930 0.492307
vt 0.694782 0.492391
vt 0.468481 0.040637
vt 0.374847 0.040280
vt 0.375001 0.000000
vt 0.468635 0.000358
vt 0.662640 0.532583
vt 0.656788 0.532667
vt 0.656212 0.492391
vt 0.662063 0.492307
vt 0.843788 0.040280
vt 0.750154 0.040637
vt 0.750000 0.000358
vt 0.843634 -0.000000
vt 0.707639 0.532583
vt 0.701787 0.532667
vt 0.701210 0.492391
vt 0.707062 0.492307
vt 0.937423 0.040637
vt 0.843788 0.040280
vt 0.843942 0.000000
vt 0.937577 0.000358
vt 0.675497 0.532583
vt 0.669645 0.532667
vt 0.669068 0.492391
vt 0.674920 0.492307
vt 0.656212 0.040280
vt 0.562577 0.040637
vt 0.562423 0.000358
vt 0.656058 0.000000
vt 0.682502 0.532667
vt 0.687777 0.492307
vt 0.749846 0.040637
vt 0.656212 0.040280
vt 0.656366 -0.000000
vt 0.750000 0.000358
vt 0.004614 0.682453
vt 0.000000 0.682453
vt 0.000000 0.608625
vt 0.004614 0.608625
vt 0.013843 0.682453
vt 0.009228 0.682453
vt 0.009228 0.608625
vt 0.013843 0.608625
vt 0.009228 0.682453
vt 0.004614 0.682453
vt 0.004614 0.608625
vt 0.009228 0.608625
vt 0.018457 0.682453
vt 0.013843 0.682453
vt 0.013843 0.608625
vt 0.018457 0.608625
vt 0.656212 0.924707
vt 0.660825 0.924641
vt 0.661681 0.984402
vt 0.657067 0.984468
vt 0.187270 0.432544
vt 0.261097 0.432263
vt 0.261326 0.492030
vt 0.187498 0.492312
vt 0.823827 0.432258
vt 0.824055 0.492025
vt 0.750228 0.492307
vt 0.696597 0.924539
vt 0.701210 0.924605
vt 0.700354 0.984367
vt 0.695741 0.984300
vt 0.705824 0.924539
vt 0.706680 0.984300
vt 0.702066 0.984367
vt 0.488596 0.432263
vt 0.562423 0.432544
vt 0.562195 0.492312
vt 0.488368 0.492030
vt 0.863749 0.432258
vt 0.937577 0.432540
vt 0.937348 0.492307
vt 0.863521 0.492025
vt 0.677311 0.924618
vt 0.681925 0.924684
vt 0.681069 0.984446
vt 0.676455 0.984380
vt 0.669068 0.924684
vt 0.673682 0.924618
vt 0.674538 0.984380
vt 0.669924 0.984446
vt 0.281059 0.432544
vt 0.354886 0.432263
vt 0.355114 0.492030
vt 0.281287 0.492312
vt 0.562423 0.432540
vt 0.636251 0.432258
vt 0.636479 0.492025
vt 0.562652 0.492307
vt 0.690168 0.924543
vt 0.694782 0.924609
vt 0.693926 0.984371
vt 0.689312 0.984304
vt 0.024309 0.624231
vt 0.018457 0.624231
vt 0.024309 0.608625
vt 0.030161 0.624231
vt 0.030161 0.608625
s 0
usemtl Material.002
f 1/1/1 2/2/1 4/3/1 3/4/1
f 94/5/2 61/6/2 8/7/2 7/8/2
f 7/9/3 8/10/3 6/11/3 5/12/3
f 94/13/4 7/14/4 5/15/4 93/16/4
f 67/17/5 4/18/5 2/19/5 66/20/5
f 9/21/1 10/22/1 12/23/1 11/24/1
f 91/25/2 57/26/2 16/27/2 15/28/2
f 15/29/3 16/30/3 14/31/3 13/32/3
f 100/33/6 70/34/6 10/35/6 9/36/6
f 91/37/4 15/38/4 13/39/4 90/40/4
f 71/41/5 12/42/5 10/43/5 70/44/5
f 17/45/1 18/46/1 20/47/1 19/48/1
f 19/49/4 20/50/4 24/51/4 23/52/4
f 23/53/3 24/54/3 22/55/3 21/56/3
f 17/45/1 27/57/1 28/58/1 18/46/1
f 19/59/6 23/60/6 21/61/6 17/62/6
f 24/63/2 20/64/2 18/65/2 22/66/2
f 25/67/1 26/68/1 28/58/1 27/57/1
f 22/66/2 18/65/2 28/69/2 32/70/2
f 31/71/3 32/72/3 30/73/3 29/74/3
f 29/75/5 30/76/5 26/77/5 25/78/5
f 27/79/6 31/80/6 29/81/6 25/82/6
f 32/70/2 28/69/2 26/83/2 30/81/2
f 45/84/5 34/85/5 36/86/5 48/87/5
f 49/88/4 33/89/4 35/90/4 52/91/4
f 46/92/6 48/93/6 36/94/6 35/95/6
f 49/96/2 51/97/2 34/98/2 33/99/2
f 41/100/5 38/101/5 40/102/5 44/103/5
f 53/104/4 37/105/4 39/106/4 56/107/4
f 53/108/2 55/109/2 38/110/2 37/111/2
f 83/112/5 41/100/5 44/103/5 82/113/5
f 37/105/4 43/114/4 42/115/4 39/106/4
f 37/111/2 38/110/2 41/116/2 43/117/2
f 89/118/6 86/119/6 48/93/6 46/92/6
f 87/120/5 45/84/5 48/87/5 86/121/5
f 33/89/4 47/122/4 46/123/4 35/90/4
f 33/99/2 34/98/2 45/124/2 47/125/2
f 98/126/2 73/127/2 51/97/2 49/96/2
f 98/52/4 49/88/4 52/91/4 101/49/4
f 34/85/5 51/128/5 50/129/5 36/86/5
f 35/95/6 36/94/6 50/130/6 52/131/6
f 95/132/2 77/133/2 55/109/2 53/108/2
f 95/134/4 53/104/4 56/107/4 102/135/4
f 38/101/5 55/136/5 54/137/5 40/102/5
f 16/138/5 57/139/5 60/140/5 14/141/5
f 13/142/6 14/143/6 60/144/6 90/145/6
f 175/146/1 174/147/1 168/148/1 153/149/1
f 104/150/2 87/151/2 57/26/2 91/25/2
f 8/152/5 61/153/5 64/154/5 6/155/5
f 176/156/6 175/157/6 153/158/6 154/159/6
f 103/160/2 83/161/2 61/6/2 94/5/2
f 3/162/4 96/163/4 97/164/4 1/165/4
f 3/28/2 4/166/2 67/167/2 96/168/2
f 77/169/5 67/17/5 66/20/5 80/170/5
f 11/171/4 99/172/4 100/173/4 9/174/4
f 11/175/2 12/176/2 71/177/2 99/178/2
f 73/179/5 71/41/5 70/44/5 76/180/5
f 101/181/6 76/182/6 70/34/6 100/33/6
f 52/131/6 50/130/6 76/182/6 101/181/6
f 51/128/5 73/179/5 76/180/5 50/129/5
f 182/183/1 181/184/1 163/185/1 164/186/1
f 99/178/2 71/177/2 73/127/2 98/126/2
f 55/136/5 77/169/5 80/170/5 54/137/5
f 174/187/2 173/188/2 155/189/2 168/190/2
f 96/168/2 67/167/2 77/133/2 95/132/2
f 43/117/2 41/116/2 83/161/2 103/160/2
f 43/114/4 103/191/4 92/192/4 42/115/4
f 61/153/5 83/112/5 82/113/5 64/154/5
f 47/125/2 45/124/2 87/151/2 104/150/2
f 47/122/4 104/28/4 89/193/4 46/123/4
f 57/139/5 87/120/5 86/121/5 60/140/5
f 90/145/6 60/144/6 86/119/6 89/118/6
f 105/194/5 106/194/5 90/194/5 89/194/5
f 106/194/5 107/194/5 91/194/5 90/194/5
f 108/194/5 109/194/5 93/194/5 92/194/5
f 109/194/5 110/194/5 94/194/5 93/194/5
f 111/194/5 112/194/5 96/194/5 95/194/5
f 112/194/5 113/194/5 97/194/5 96/194/5
f 114/43/5 115/43/5 99/43/5 98/43/5
f 115/43/5 116/43/5 100/43/5 99/43/5
f 116/43/5 117/43/5 101/43/5 100/43/5
f 117/43/5 114/43/5 98/43/5 101/43/5
f 113/194/5 118/194/5 102/194/5 97/194/5
f 118/194/5 111/194/5 95/194/5 102/194/5
f 110/194/5 119/194/5 103/194/5 94/194/5
f 119/194/5 108/194/5 92/194/5 103/194/5
f 107/194/5 120/194/5 104/194/5 91/194/5
f 120/194/5 105/194/5 89/194/5 104/194/5
f 121/194/5 122/194/5 106/194/5 105/194/5
f 122/194/5 123/194/5 107/194/5 106/194/5
f 124/194/5 125/194/5 109/194/5 108/194/5
f 125/194/5 126/194/5 110/194/5 109/194/5
f 127/194/5 128/194/5 112/194/5 111/194/5
f 128/194/5 129/194/5 113/194/5 112/194/5
f 130/43/5 131/43/5 115/43/5 114/43/5
f 131/43/5 132/43/5 116/43/5 115/43/5
f 132/43/5 133/43/5 117/43/5 116/43/5
f 133/43/5 130/43/5 114/43/5 117/43/5
f 129/194/5 134/194/5 118/194/5 113/194/5
f 134/194/5 127/194/5 111/194/5 118/194/5
f 126/194/5 135/194/5 119/194/5 110/194/5
f 135/194/5 124/194/5 108/194/5 119/194/5
f 123/194/5 136/194/5 120/194/5 107/194/5
f 136/194/5 121/194/5 105/194/5 120/194/5
f 88/195/6 58/196/6 122/197/6 121/198/6
f 58/199/3 59/200/3 123/201/3 122/202/3
f 84/203/6 62/204/6 125/205/6 124/206/6
f 62/207/3 63/208/3 126/209/3 125/210/3
f 79/211/2 65/212/2 128/213/2 127/214/2
f 65/215/1 68/216/1 129/217/1 128/218/1
f 75/219/2 69/220/2 131/221/2 130/222/2
f 69/223/1 72/224/1 132/225/1 131/226/1
f 72/227/6 74/228/6 133/229/6 132/230/6
f 74/231/3 75/232/3 130/233/3 133/234/3
f 68/235/6 78/236/6 134/237/6 129/238/6
f 78/239/3 79/240/3 127/241/3 134/242/3
f 63/243/2 81/244/2 135/245/2 126/246/2
f 81/247/1 84/248/1 124/249/1 135/250/1
f 59/220/2 85/251/2 136/214/2 123/252/2
f 85/253/1 88/254/1 121/255/1 136/256/1
f 152/257/4 139/258/4 138/259/4 137/260/4
f 151/261/4 142/262/4 141/263/4 140/264/4
f 147/265/4 146/266/4 149/267/4 148/268/4
f 144/269/4 143/270/4 150/271/4 145/272/4
f 183/273/6 182/274/6 164/275/6 165/276/6
f 173/277/3 176/278/3 154/279/3 155/280/3
f 184/147/3 183/281/3 165/282/3 162/283/3
f 170/284/6 169/285/6 156/286/6 157/287/6
f 178/285/6 177/288/6 161/289/6 166/290/6
f 171/291/3 170/292/3 157/293/3 158/294/3
f 179/295/3 178/296/3 166/297/3 159/298/3
f 180/299/2 179/300/2 159/301/2 160/302/2
f 172/303/2 171/304/2 158/305/2 167/306/2
f 177/307/1 180/308/1 160/309/1 161/310/1
f 169/311/1 172/312/1 167/313/1 156/314/1
f 181/315/2 184/316/2 162/317/2 163/318/2
f 137/43/5 138/43/5 154/43/5 153/43/5
f 138/43/5 139/43/5 155/43/5 154/43/5
f 140/43/5 141/43/5 157/43/5 156/43/5
f 141/43/5 142/43/5 158/43/5 157/43/5
f 143/43/5 144/43/5 160/43/5 159/43/5
f 144/43/5 145/43/5 161/43/5 160/43/5
f 146/194/5 147/194/5 163/194/5 162/194/5
f 147/194/5 148/194/5 164/194/5 163/194/5
f 148/194/5 149/194/5 165/194/5 164/194/5
f 149/194/5 146/194/5 162/194/5 165/194/5
f 145/43/5 150/43/5 166/43/5 161/43/5
f 150/43/5 143/43/5 159/43/5 166/43/5
f 142/43/5 151/43/5 167/43/5 158/43/5
f 151/43/5 140/43/5 156/43/5 167/43/5
f 139/43/5 152/43/5 168/43/5 155/43/5
f 152/43/5 137/43/5 153/43/5 168/43/5
f 84/248/7 81/247/7 172/312/7 169/311/7
f 81/244/8 63/243/8 171/304/8 172/303/8
f 63/208/9 62/207/9 170/292/9 171/291/9
f 62/204/10 84/203/10 169/285/10 170/284/10
f 59/200/9 58/199/9 176/278/9 173/277/9
f 85/251/11 59/220/11 173/188/11 174/187/11
f 58/196/12 88/195/12 175/157/12 176/156/12
f 88/254/7 85/253/7 174/147/7 175/146/7
f 68/216/13 65/215/13 180/308/13 177/307/13
f 65/212/8 79/211/8 179/300/8 180/299/8
f 79/240/14 78/239/14 178/296/14 179/295/14
f 78/236/10 68/235/10 177/288/10 178/285/10
f 69/220/11 75/219/11 184/316/11 181/315/11
f 75/232/14 74/231/14 183/281/14 184/147/14
f 74/228/12 72/227/12 182/274/12 183/273/12
f 72/224/13 69/223/13 181/184/13 182/183/13
f 66/20/5 2/19/5 12/42/5 71/41/5
f 80/170/5 66/20/5 71/41/5 73/179/5
f 54/137/5 80/170/5 73/179/5 51/128/5
f 40/102/5 54/137/5 51/128/5 34/85/5
f 44/103/5 40/102/5 34/85/5 45/84/5
f 82/113/5 44/103/5 45/84/5 87/120/5
f 64/154/5 82/113/5 87/120/5 57/139/5
f 6/155/5 64/154/5 57/139/5 16/138/5
f 2/2/1 1/1/1 11/24/1 12/23/1
f 1/165/4 97/164/4 99/172/4 11/171/4
f 93/16/4 5/15/4 15/38/4 91/37/4
f 42/115/4 92/192/4 104/28/4 47/122/4
f 124/319/4 125/320/4 123/272/4 136/321/4
f 39/106/4 42/115/4 47/122/4 33/89/4
f 56/107/4 39/106/4 33/89/4 49/88/4
f 102/135/4 56/107/4 49/88/4 98/52/4
f 129/322/4 134/319/4 130/321/4 131/323/4
f 5/12/3 6/11/3 16/30/3 15/29/3
f 17/62/6 21/61/6 31/80/6 27/79/6
f 21/56/3 22/55/3 32/72/3 31/71/3
