# Blender 5.1.2
# www.blender.org
mtllib DoorFrame.mtl
o Cube.001
v -0.423733 8.897737 -4.967572
v -0.423733 -0.673190 -4.967572
v -0.423733 8.897737 0.681924
v -0.423733 -0.673190 0.681924
v -0.832505 8.897737 -4.967572
v -0.832505 -0.673190 -4.967572
v -0.832505 8.897737 0.681924
v -0.832505 -0.673190 0.681924
v -1.000000 -1.000000 -5.285648
v -1.000000 -1.000000 1.000000
v -0.256238 9.224546 -5.285648
v -0.256238 -1.000000 -5.285648
v -1.000000 9.224546 1.000000
v -0.256238 9.224546 1.000000
v -0.256238 -1.000000 1.000000
v -1.000000 9.224546 -5.285648
v -0.256238 4.112273 -5.285648
v -1.000000 4.112273 1.000000
v -0.256238 4.112273 1.000000
v -1.000000 4.112273 -5.285648
v -0.260224 4.112273 -4.967572
v -0.832505 4.112273 0.681924
v -0.423733 4.112273 0.681924
v -0.996014 4.112273 -4.967572
v -1.000000 6.668410 1.000000
v -0.832505 6.505005 0.681924
v -0.256238 6.668410 -5.285648
v -0.256238 6.668410 1.000000
v -1.000000 6.668410 -5.285648
v -0.423733 6.505005 -4.967572
v -0.423733 6.505005 0.681924
v -0.832505 6.505005 -4.967572
v -0.256238 1.438310 -5.285648
v -0.256238 1.438310 1.000000
v -1.000000 1.438310 -5.285648
v -0.423733 1.609247 -4.967572
v -0.423733 1.609247 0.681924
v -0.832505 1.609247 -4.967572
v -1.000000 1.438310 1.000000
v -0.832505 1.609246 0.681924
v -0.256238 5.390342 -5.285648
v -0.256238 5.390342 1.000000
v -1.000000 5.390342 -5.285648
v -0.423733 5.308639 -4.967572
v -0.423733 5.308639 0.681924
v -0.832505 5.308639 -4.967572
v -1.000000 5.390342 1.000000
v -0.832505 5.308639 0.681924
v -1.000000 2.775291 1.000000
v -0.832505 2.860760 0.681924
v -0.256238 2.775291 -5.285648
v -0.256238 2.775291 1.000000
v -1.000000 2.775291 -5.285648
v -0.260224 2.860760 -4.967572
v -0.423733 2.860760 0.681924
v -0.996014 2.860760 -4.967572
vn -0.0000 1.0000 -0.0000
vn -0.0000 -0.0000 1.0000
vn -0.0000 -1.0000 -0.0000
vn -0.0000 -0.0000 -1.0000
vn -0.8899 0.4561 -0.0000
vn 0.8848 -0.0000 0.4659
vn -0.8848 -0.0000 -0.4659
vn 0.8848 -0.0000 -0.4659
vn -0.8848 -0.0000 0.4659
vn 0.8899 -0.4561 -0.0000
vn -0.8899 -0.4561 -0.0000
vn 0.8899 0.4561 -0.0000
vn -0.9999 -0.0000 0.0125
vn 0.9615 0.0635 0.2673
vn 0.9574 -0.0605 0.2824
vn -0.9615 0.0635 0.2673
vn 0.9999 -0.0000 0.0125
vn -0.9574 -0.0605 0.2824
vn -0.0000 -0.9972 0.0753
vt 0.625000 0.500000
vt 0.875000 0.500000
vt 0.875000 0.750000
vt 0.625000 0.750000
vt 0.562500 0.750000
vt 0.625000 1.000000
vt 0.562500 1.000000
vt 0.125000 0.500000
vt 0.375000 0.500000
vt 0.375000 0.750000
vt 0.125000 0.750000
vt 0.562500 0.250000
vt 0.625000 0.250000
vt 0.562500 0.500000
vt 0.393705 0.017570
vt 0.393705 0.232430
vt 0.375000 0.250000
vt 0.375000 0.000000
vt 0.444403 0.517570
vt 0.393705 0.517570
vt 0.434619 0.500000
vt 0.444403 0.017570
vt 0.434619 0.000000
vt 0.553148 0.732430
vt 0.606295 0.732430
vt 0.553148 0.232430
vt 0.606295 0.232430
vt 0.606295 0.517570
vt 0.606295 0.017570
vt 0.625000 0.000000
vt 0.393705 0.732430
vt 0.472201 0.232430
vt 0.500000 0.232430
vt 0.500000 0.250000
vt 0.467310 0.250000
vt 0.472201 0.732430
vt 0.500000 0.732430
vt 0.500000 0.750000
vt 0.467310 0.750000
vt 0.526574 0.017570
vt 0.500000 0.017570
vt 0.500000 0.000000
vt 0.531250 0.000000
vt 0.526574 0.517570
vt 0.500000 0.517570
vt 0.500000 0.500000
vt 0.531250 0.500000
vt 0.467310 0.500000
vt 0.500000 1.000000
vt 0.467310 1.000000
vt 0.553148 0.517570
vt 0.553148 0.017570
vt 0.562500 0.000000
vt 0.526574 0.232430
vt 0.531250 0.250000
vt 0.526574 0.732431
vt 0.531250 0.750000
vt 0.531250 1.000000
vt 0.434619 0.750000
vt 0.434619 1.000000
vt 0.375000 1.000000
vt 0.434619 0.250000
vt 0.444403 0.732430
vt 0.444402 0.232430
vt 0.472201 0.017570
vt 0.467309 0.000000
vt 0.472201 0.517570
vt 0.000000 0.000000
s 0
usemtl Material
f 11/1/1 16/2/1 13/3/1 14/4/1
f 28/5/2 14/4/2 13/6/2 25/7/2
f 9/8/3 12/9/3 15/10/3 10/11/3
f 29/12/4 16/13/4 11/1/4 27/14/4
f 8/15/5 6/16/5 9/17/5 10/18/5
f 36/19/6 2/20/6 12/9/6 33/21/6
f 40/22/7 8/15/7 10/18/7 39/23/7
f 31/24/8 3/25/8 14/4/8 28/5/8
f 32/26/9 5/27/9 16/13/9 29/12/9
f 3/25/10 1/28/10 11/1/10 14/4/10
f 5/27/11 7/29/11 13/30/11 16/13/11
f 2/20/12 4/31/12 15/10/12 12/9/12
f 56/32/13 24/33/13 20/34/13 53/35/13
f 55/36/8 23/37/8 19/38/8 52/39/8
f 48/40/7 22/41/7 18/42/7 47/43/7
f 44/44/14 21/45/14 17/46/14 41/47/14
f 53/35/4 20/34/4 17/46/4 51/48/4
f 52/39/2 19/38/2 18/49/2 49/50/2
f 1/28/6 30/51/6 27/14/6 11/1/6
f 7/29/7 26/52/7 25/53/7 13/30/7
f 46/54/9 32/26/9 29/12/9 43/55/9
f 45/56/8 31/24/8 28/5/8 42/57/8
f 43/55/4 29/12/4 27/14/4 41/47/4
f 42/57/2 28/5/2 25/7/2 47/58/2
f 15/10/2 34/59/2 39/60/2 10/61/2
f 9/17/4 35/62/4 33/21/4 12/9/4
f 4/31/8 37/63/8 34/59/8 15/10/8
f 6/16/9 38/64/9 35/62/9 9/17/9
f 50/65/7 40/22/7 39/23/7 49/66/7
f 54/67/15 36/19/15 33/21/15 51/48/15
f 19/38/2 42/57/2 47/58/2 18/49/2
f 20/34/4 43/55/4 41/47/4 17/46/4
f 23/37/8 45/56/8 42/57/8 19/38/8
f 24/33/16 46/54/16 43/55/16 20/34/16
f 30/51/6 44/44/6 41/47/6 27/14/6
f 26/52/7 48/40/7 47/43/7 25/53/7
f 21/45/17 54/67/17 51/48/17 17/46/17
f 22/41/7 50/65/7 49/66/7 18/42/7
f 34/59/2 52/39/2 49/50/2 39/60/2
f 35/62/4 53/35/4 51/48/4 33/21/4
f 37/63/8 55/36/8 52/39/8 34/59/8
f 38/64/18 56/32/18 53/35/18 35/62/18
f 3/68/19 14/68/19 13/68/19 7/68/19 5/68/19 1/68/19
f 2/20/2 36/19/2 54/67/2 21/45/2 44/44/2 30/51/2 1/68/2 5/27/2 32/26/2 46/54/2 24/33/2 56/32/2 38/64/2 6/16/2
f 6/16/1 8/15/1 4/31/1 2/20/1
f 26/52/4 7/29/4 3/25/4 31/24/4 45/56/4 23/37/4 55/36/4 37/63/4 4/31/4 8/15/4 40/22/4 50/65/4 22/41/4 48/40/4
