# Blender 5.1.2
# www.blender.org
mtllib DoorCenter.mtl
o Cube
v -0.423733 8.897737 -4.967572
v -0.423733 -0.673190 -4.967572
v -0.423733 8.897737 0.681924
v -0.423733 -0.673190 0.681924
v -0.832505 8.897737 -4.967572
v -0.832505 -0.673190 -4.967572
v -0.832505 8.897737 0.681924
v -0.832505 -0.673190 0.681924
v -0.260224 4.112273 -4.967572
v -0.832505 4.112273 0.681924
v -0.423733 4.112273 0.681924
v -0.996014 4.112273 -4.967572
v -0.832505 6.505005 0.681924
v -0.423733 6.505005 -4.967572
v -0.423733 6.505005 0.681924
v -0.832505 6.505005 -4.967572
v -0.423733 1.609247 -4.967572
v -0.423733 1.609247 0.681924
v -0.832505 1.609247 -4.967572
v -0.832505 1.609246 0.681924
v -0.423733 5.308639 -4.967572
v -0.423733 5.308639 0.681924
v -0.832505 5.308639 -4.967572
v -0.832505 5.308639 0.681924
v -0.832505 2.860760 0.681924
v -0.260224 2.860760 -4.967572
v -0.423733 2.860760 0.681924
v -0.996014 2.860760 -4.967572
vn -1.0000 -0.0000 -0.0000
vn 1.0000 -0.0000 -0.0000
vn 0.9996 -0.0000 0.0289
vn -0.9996 -0.0000 0.0289
vn -0.9976 0.0682 0.0144
vn 0.9976 0.0682 0.0144
vn -0.9978 -0.0652 0.0144
vn 0.9978 -0.0652 0.0144
vt 0.553148 0.017570
vt 0.606295 0.017570
vt 0.606295 0.232430
vt 0.553148 0.232430
vt 0.553148 0.517570
vt 0.606295 0.517570
vt 0.606295 0.732430
vt 0.553148 0.732430
vt 0.472201 0.517570
vt 0.500000 0.517570
vt 0.500000 0.732430
vt 0.472201 0.732430
vt 0.472201 0.017570
vt 0.500000 0.017570
vt 0.500000 0.232430
vt 0.472201 0.232430
vt 0.526574 0.517570
vt 0.526574 0.732431
vt 0.526574 0.017570
vt 0.526574 0.232430
vt 0.393705 0.017570
vt 0.444403 0.017570
vt 0.444402 0.232430
vt 0.393705 0.232430
vt 0.393705 0.517570
vt 0.444403 0.517570
vt 0.444403 0.732430
vt 0.393705 0.732430
s 0
usemtl Material
f 13/1/1 7/2/1 5/3/1 16/4/1
f 14/5/2 1/6/2 3/7/2 15/8/2
f 26/9/3 9/10/3 11/11/3 27/12/3
f 25/13/4 10/14/4 12/15/4 28/16/4
f 21/17/2 14/5/2 15/8/2 22/18/2
f 24/19/1 13/1/1 16/4/1 23/20/1
f 8/21/1 20/22/1 19/23/1 6/24/1
f 2/25/2 17/26/2 18/27/2 4/28/2
f 10/14/5 24/19/5 23/20/5 12/15/5
f 9/10/6 21/17/6 22/18/6 11/11/6
f 20/22/7 25/13/7 28/16/7 19/23/7
f 17/26/8 26/9/8 27/12/8 18/27/8
