# Blender 5.1.2
# www.blender.org
mtllib Floorhole.mtl
o Cube
v 5.611236 0.152619 1.500000
v 5.611236 0.152619 -3.000001
v -5.552831 0.152619 1.500000
v 5.611236 0.152619 3.000001
v 5.611236 0.152619 0.000000
v -5.552831 0.152619 -3.000001
v -5.552831 0.152619 0.000000
v -5.552831 0.152619 3.000001
v -5.552831 0.152619 -1.500000
v 5.611236 0.152619 -1.500000
v 0.029203 0.152619 -3.000001
v -0.830940 -0.274583 2.046452
v 0.029203 0.152619 3.000001
v -1.373300 0.521292 -1.979478
v -2.761814 0.152619 -3.000001
v -2.968778 -0.030936 1.730495
v -3.538615 0.321481 0.370725
v -3.021943 0.364387 -1.577130
v -2.761814 0.152619 3.000001
v 2.820219 0.152619 3.000001
v 2.820219 0.152619 -3.000001
v 4.094233 0.035850 1.530695
v 4.183316 -0.413634 0.082560
v 3.688648 -0.118295 -1.549877
v 4.215727 0.152619 3.000001
v 4.215727 0.152619 -3.000001
v 5.089653 0.152619 1.500000
v 5.379378 -0.023467 -0.035728
v 4.679832 -0.081373 -1.466403
v 1.424711 0.152619 -3.000001
v 3.153668 -0.425789 1.890718
v 3.063306 -0.603263 0.664958
v 0.256221 -0.081062 -1.971695
v 1.424711 0.152619 3.000001
v -1.366306 0.152619 3.000001
v -1.366306 0.152619 -3.000001
v -1.832083 -0.097429 2.021758
v -2.330099 0.436194 -1.958198
v -4.157322 0.152619 -3.000001
v -4.157322 0.152619 1.500000
v -4.292824 0.259302 -0.050893
v -4.091230 0.079321 -1.453030
v -4.157322 0.152619 3.000001
v -5.552831 0.152619 -2.250000
v 5.611236 0.152619 -2.250000
v -0.081161 0.093302 -2.316424
v -3.088035 0.437685 -2.374100
v 3.488551 0.032893 -2.185380
v 4.010133 0.032893 -2.185380
v 0.477989 0.195038 -2.534029
v -1.692527 0.437685 -2.374100
v -4.157322 0.152619 -2.250000
v 5.611236 0.152619 -0.750000
v -5.552831 0.152619 -0.750000
v -1.434650 -0.032912 -1.824903
v -2.803237 0.364386 -0.882965
v 3.688648 -0.118295 -0.799877
v 5.207327 -0.202737 -0.649500
v -0.384035 0.021675 -1.661333
v -2.620589 0.150814 -1.640705
v -4.091230 0.079321 -0.703030
v -5.552831 0.152619 0.767253
v 5.611236 0.152619 0.767253
v -1.276088 -0.292855 1.382409
v -3.104279 0.075747 0.946855
v 4.064665 -0.269875 0.905577
v 4.615815 0.035850 0.797948
v 2.717309 -0.546066 1.287106
v -2.355350 0.088137 1.210481
v -4.292824 0.259302 0.716360
v -5.552831 0.152619 2.250001
v 5.611236 0.152619 2.250001
v -0.177761 -0.030936 2.480496
v -2.761814 -0.155996 2.250001
v 2.820219 0.152619 2.250001
v 4.215727 0.152619 2.250001
v 1.424711 -0.155996 2.250001
v -1.366306 -0.155996 2.250001
v -4.157322 0.152619 2.250001
v -5.554217 -0.131889 2.248865
v -5.554217 -0.131889 2.998865
v -4.158709 -0.131889 -3.001136
v -5.554217 -0.131889 -3.001136
v 5.609850 -0.131889 -0.751136
v 5.609850 -0.131889 -1.501136
v -5.554217 -0.131889 -2.251136
v -5.554217 -0.131889 -1.501136
v -4.158709 -0.131889 1.498865
v -5.554217 -0.131889 1.498865
v 5.609850 -0.131889 2.248865
v 5.609850 -0.131889 1.498865
v -5.554217 -0.131889 0.766118
v -4.294210 -0.025206 -0.052029
v -5.554217 -0.131889 -0.001135
v 4.214341 -0.131889 2.998865
v 5.609850 -0.131889 2.998865
v 5.609850 -0.131889 0.766118
v 5.609850 -0.131889 -0.001135
v -5.554217 -0.131889 -0.751136
v 5.609850 -0.131889 -2.251136
v 5.609850 -0.131889 -3.001136
v -4.092617 -0.205187 -1.454166
v 1.423325 -0.131889 -3.001136
v 0.027816 -0.131889 -3.001136
v 2.679972 -0.623977 1.976757
v -0.390742 -0.616937 1.682240
v -1.367692 -0.131889 2.998865
v 0.027816 -0.131889 2.998865
v 0.254834 -0.365570 -1.972831
v -1.374687 0.236784 -1.980613
v -1.277474 -0.577363 1.381274
v 0.027816 -0.440504 2.248865
v -0.082547 -0.191206 -2.317559
v -1.367692 -0.131889 -3.001136
v -2.763201 -0.131889 -3.001136
v -1.412975 -0.414712 1.730319
v -2.970164 -0.315444 1.729360
v -2.550191 0.151687 -1.903499
v -3.023329 0.079879 -1.578266
v -4.158709 -0.131889 2.998865
v -2.763201 -0.131889 2.998865
v -3.089422 0.153177 -2.375236
v -2.763201 -0.440504 2.248865
v -3.023329 0.079879 -0.828266
v -3.105665 0.099854 0.178466
v -3.105665 -0.208761 0.945719
v 1.423325 -0.131889 2.998865
v 2.818832 -0.131889 2.998865
v 4.214341 -0.131889 -3.001136
v 2.818832 -0.131889 -3.001136
v 5.088267 -0.131889 1.498865
v 4.092846 -0.248658 1.529560
v 5.377991 -0.307974 -0.036864
v 4.181930 -0.698142 0.081425
v 4.678446 -0.365881 -1.467538
v 3.282938 -0.365881 -1.467538
v 3.810433 -0.487245 -0.650636
v 4.063278 -0.554383 0.904441
v 2.818832 -0.131889 2.248865
v 3.487164 -0.251615 -2.186516
v 5.205941 -0.487245 -0.650636
v 4.614429 -0.248658 0.796813
v 4.214341 -0.131889 2.248865
v 4.008747 -0.251615 -2.186516
v 2.842912 -0.936495 0.591938
v 0.476602 -0.089470 -2.535164
v 1.423325 -0.440504 2.248865
v 2.715922 -0.830574 1.285971
v -1.693913 0.153177 -2.375236
v -1.574656 -0.315444 2.479360
v -2.100049 -0.264357 1.264856
v -4.294210 -0.025206 0.715224
v -4.092617 -0.205187 -0.704166
v -4.158709 -0.131889 2.248865
v -4.158709 -0.131889 -2.251136
v -1.287702 -0.260542 -1.652025
v -0.011852 -0.143550 -1.628546
v -2.692348 -0.076816 -1.411993
vn 0.2643 0.9623 -0.0643
vn -0.1318 0.9818 0.1365
vn -0.0000 1.0000 -0.0000
vn -0.0777 0.9954 -0.0553
vn -0.6424 0.7661 -0.0197
vn -0.0131 0.9330 -0.3596
vn 0.1003 0.9538 -0.2832
vn -0.2442 0.9636 0.1089
vn 0.1077 0.9738 -0.2004
vn -0.1493 0.9783 -0.1438
vn 0.1305 0.9852 0.1115
vn -0.3550 0.9167 -0.1832
vn -0.1077 0.9738 -0.2004
vn -0.0110 0.9419 0.3358
vn -0.1125 0.9856 0.1266
vn -0.2747 0.9414 -0.1955
vn -0.0356 0.9761 0.2142
vn 0.2383 0.9404 0.2424
vn 0.0110 0.9317 -0.3630
vn -0.0253 0.9984 0.0497
vn -0.0000 0.9248 -0.3805
vn -0.0282 0.9811 0.1914
vn -0.0386 0.9965 0.0736
vn -0.0123 0.9916 -0.1291
vn 0.0249 0.9986 0.0463
vn -0.0000 0.9101 -0.4145
vn -0.0560 0.9977 -0.0369
vn -0.0000 0.9894 0.1454
vn 0.0314 0.9973 0.0670
vn -0.1232 0.9655 -0.2293
vn 0.1153 0.9846 -0.1313
vn -0.0383 0.9967 0.0712
vn 0.0501 0.9987 -0.0000
vn 0.4853 0.8319 0.2691
vn 0.0842 0.6484 0.7566
vn 0.0121 0.9972 0.0732
vn -0.2307 0.9724 0.0349
vn -0.3791 0.9040 0.1977
vn 0.1057 0.4533 0.8851
vn -0.0844 0.9964 -0.0000
vn -0.3861 0.8681 -0.3120
vn -0.2616 0.9409 -0.2150
vn 0.0012 0.9837 0.1796
vn -0.2291 0.9626 -0.1449
vn -0.0022 0.9707 0.2403
vn 0.0044 0.8422 -0.5391
vn -0.0502 0.9871 -0.1518
vn -0.2654 0.3937 -0.8801
vn 0.1809 0.9812 0.0672
vn 0.0651 0.9271 -0.3690
vn -0.2658 -0.9092 0.3205
vn 0.1318 -0.9818 -0.1365
vn -0.0000 -1.0000 -0.0000
vn 0.0777 -0.9954 0.0553
vn 0.6424 -0.7661 0.0197
vn -0.0110 -0.9317 0.3630
vn -0.0872 -0.9579 0.2735
vn 0.2442 -0.9636 -0.1089
vn -0.1077 -0.9738 0.2004
vn 0.1701 -0.9745 0.1466
vn -0.1305 -0.9852 -0.1115
vn 0.3127 -0.8846 0.3459
vn 0.1077 -0.9738 0.2004
vn 0.0148 -0.9578 -0.2869
vn 0.1447 -0.9861 -0.0816
vn 0.2747 -0.9414 0.1955
vn -0.0000 -0.9876 -0.1570
vn -0.2383 -0.9404 -0.2424
vn -0.0000 -0.9248 0.3805
vn 0.0316 -0.9987 -0.0392
vn 0.0131 -0.9330 0.3596
vn -0.0372 -0.9834 -0.1779
vn 0.0386 -0.9965 -0.0736
vn 0.0123 -0.9916 0.1291
vn -0.0249 -0.9986 -0.0463
vn -0.0000 -0.9101 0.4145
vn 0.0560 -0.9977 0.0369
vn -0.0000 -0.9894 -0.1454
vn -0.0314 -0.9973 -0.0670
vn 0.1232 -0.9655 0.2293
vn -0.1153 -0.9846 0.1313
vn 0.0383 -0.9967 -0.0712
vn -0.0501 -0.9987 -0.0000
vn -0.3316 -0.9204 -0.2074
vn -0.1462 -0.9013 -0.4078
vn -0.0000 -0.9891 -0.1470
vn 0.2576 -0.9663 -0.0000
vn 0.3791 -0.9040 -0.1977
vn -0.1098 -0.7406 -0.6629
vn 0.0844 -0.9964 -0.0000
vn 0.3861 -0.8681 0.3120
vn 0.2469 -0.9490 0.1962
vn 0.0141 -0.9803 -0.1971
vn 0.2291 -0.9626 0.1449
vn 0.0111 -0.9997 -0.0207
vn -0.0260 -0.9278 0.3721
vn 0.0502 -0.9871 0.1518
vn 0.2567 -0.5222 0.8133
vn -0.1809 -0.9812 -0.0672
vn -0.0974 -0.9701 0.2223
vn 0.1403 -0.0268 -0.9897
vn -0.1361 0.2504 0.9585
vn 1.0000 -0.0049 -0.0000
vn -1.0000 0.0049 -0.0000
vn -0.0000 -0.0040 1.0000
vn -0.8131 0.4916 0.3118
vn 0.7643 0.6445 0.0188
vn -0.0000 0.0040 -1.0000
vn 0.6104 0.5438 0.5759
vn 0.8993 0.2890 0.3283
vn -0.7085 0.7045 0.0412
vn 0.0277 0.4560 -0.8895
vn -0.8656 0.3534 -0.3548
vn 0.8717 -0.2707 0.4085
vn 0.4463 0.6628 -0.6013
vn 0.3159 0.0467 -0.9476
vn -0.1008 0.3536 0.9300
vn -0.8873 -0.0598 0.4573
vn -0.4295 0.2581 -0.8654
vn 0.2116 0.6660 0.7153
vt 0.218750 0.656969
vt 0.250000 0.656969
vt 0.250000 0.687500
vt 0.218750 0.687500
vt 0.343750 0.531250
vt 0.375000 0.531250
vt 0.375000 0.562500
vt 0.343750 0.562500
vt 0.343750 0.718750
vt 0.375000 0.718750
vt 0.375000 0.750000
vt 0.343750 0.750000
vt 0.343750 0.656969
vt 0.375000 0.656969
vt 0.375000 0.687500
vt 0.343750 0.687500
vt 0.343750 0.593750
vt 0.375000 0.593750
vt 0.375000 0.625000
vt 0.343750 0.625000
vt 0.218750 0.718750
vt 0.250000 0.718750
vt 0.250000 0.750000
vt 0.218750 0.750000
vt 0.218750 0.531250
vt 0.250000 0.531250
vt 0.250000 0.562500
vt 0.218750 0.562500
vt 0.156250 0.531250
vt 0.187500 0.531250
vt 0.187500 0.562500
vt 0.156250 0.562500
vt 0.156250 0.718750
vt 0.187500 0.718750
vt 0.187500 0.750000
vt 0.156250 0.750000
vt 0.156250 0.593750
vt 0.187500 0.593750
vt 0.187500 0.625000
vt 0.156250 0.625000
vt 0.156250 0.656969
vt 0.187500 0.656969
vt 0.187500 0.687500
vt 0.156250 0.687500
vt 0.281250 0.656969
vt 0.312500 0.656969
vt 0.312500 0.687500
vt 0.281250 0.687500
vt 0.281250 0.718750
vt 0.312500 0.718750
vt 0.312500 0.750000
vt 0.281250 0.750000
vt 0.281250 0.531250
vt 0.312500 0.531250
vt 0.312500 0.562500
vt 0.281250 0.562500
vt 0.312500 0.593750
vt 0.312500 0.625000
vt 0.125000 0.656969
vt 0.125000 0.687500
vt 0.125000 0.593750
vt 0.125000 0.625000
vt 0.125000 0.718750
vt 0.125000 0.750000
vt 0.125000 0.531250
vt 0.125000 0.562500
vt 0.125000 0.500000
vt 0.156250 0.500000
vt 0.187500 0.500000
vt 0.218750 0.500000
vt 0.250000 0.500000
vt 0.281250 0.500000
vt 0.312500 0.500000
vt 0.343750 0.500000
vt 0.375000 0.500000
vt 0.218750 0.593750
vt 0.281250 0.593750
vt 0.250000 0.593750
vt 0.281250 0.625000
s 0
usemtl Material
f 69/1/1 37/4/1 12/3/1 64/2/1
f 49/5/2 29/8/2 10/7/2 45/6/2
f 76/9/3 25/12/3 4/11/3 72/10/3
f 67/13/4 27/16/4 1/15/4 63/14/4
f 58/17/5 28/20/5 5/19/5 53/18/5
f 78/21/6 35/24/6 13/23/6 73/22/6
f 51/25/7 38/28/7 14/27/7 46/26/7
f 52/29/8 42/32/8 18/31/8 47/30/8
f 79/33/9 43/36/9 19/35/9 74/34/9
f 61/37/10 41/40/10 17/39/10 56/38/10
f 70/41/11 40/44/11 16/43/11 65/42/11
f 68/45/12 31/48/12 22/47/12 66/46/12
f 77/49/13 34/52/13 20/51/13 75/50/13
f 50/53/14 33/56/14 24/55/14 48/54/14
f 57/57/15 23/58/15 28/20/15 58/17/15
f 66/46/16 22/47/16 27/16/16 67/13/16
f 75/50/3 20/51/3 25/12/3 76/9/3
f 48/54/17 24/55/17 29/8/17 49/5/17
f 46/26/18 14/27/18 33/56/18 50/53/18
f 73/22/19 13/23/19 34/52/19 77/49/19
f 47/30/20 18/31/20 38/28/20 51/25/20
f 74/34/21 19/35/21 35/24/21 78/21/21
f 65/42/22 16/43/22 37/4/22 69/1/22
f 62/59/23 3/60/23 40/44/23 70/41/23
f 54/61/24 7/62/24 41/40/24 61/37/24
f 71/63/3 8/64/3 43/36/3 79/33/3
f 44/65/25 9/66/25 42/32/25 52/29/25
f 6/67/3 44/65/3 52/29/3 39/68/3
f 15/69/26 47/30/26 51/25/26 36/70/26
f 11/71/27 46/26/27 50/53/27 30/72/27
f 21/73/28 48/54/28 49/5/28 26/74/28
f 30/72/29 50/53/29 48/54/29 21/73/29
f 39/68/30 52/29/30 47/30/30 15/69/30
f 36/70/31 51/25/31 46/26/31 11/71/31
f 26/74/32 49/5/32 45/6/32 2/75/32
f 9/66/33 54/61/33 61/37/33 42/32/33
f 18/31/34 56/38/34 60/76/34 38/28/34
f 14/27/35 55/78/35 59/77/35 33/56/35
f 24/55/36 57/57/36 58/17/36 29/8/36
f 42/32/37 61/37/37 56/38/37 18/31/37
f 29/8/38 58/17/38 53/18/38 10/7/38
f 38/28/39 60/76/39 55/78/39 14/27/39
f 7/62/40 62/59/40 70/41/40 41/40/40
f 23/58/41 66/46/41 67/13/41 28/20/41
f 32/79/42 68/45/42 66/46/42 23/58/42
f 41/40/43 70/41/43 65/42/43 17/39/43
f 28/20/44 67/13/44 63/14/44 5/19/44
f 3/60/3 71/63/3 79/33/3 40/44/3
f 16/43/45 74/34/45 78/21/45 37/4/45
f 12/3/46 73/22/46 77/49/46 31/48/46
f 22/47/47 75/50/47 76/9/47 27/16/47
f 31/48/48 77/49/48 75/50/48 22/47/48
f 40/44/49 79/33/49 74/34/49 16/43/49
f 37/4/50 78/21/50 73/22/50 12/3/50
f 27/16/3 76/9/3 72/10/3 1/15/3
f 151/1/51 111/2/51 106/3/51 116/4/51
f 144/5/52 100/6/52 85/7/52 135/8/52
f 143/9/53 90/10/53 96/11/53 95/12/53
f 142/13/54 97/14/54 91/15/54 131/16/54
f 141/17/55 84/18/55 98/19/55 133/20/55
f 150/21/56 112/22/56 108/23/56 107/24/56
f 149/25/57 113/26/57 110/27/57 118/28/57
f 155/29/58 122/30/58 119/31/58 102/32/58
f 154/33/59 123/34/59 121/35/59 120/36/59
f 153/37/60 124/38/60 125/39/60 93/40/60
f 152/41/61 126/42/61 117/43/61 88/44/61
f 148/45/62 138/46/62 132/47/62 105/48/62
f 147/49/63 139/50/63 128/51/63 127/52/63
f 146/53/64 140/54/64 136/55/64 109/56/64
f 137/57/65 141/17/65 133/20/65 134/58/65
f 138/46/66 142/13/66 131/16/66 132/47/66
f 139/50/53 143/9/53 95/12/53 128/51/53
f 140/54/67 144/5/67 135/8/67 136/55/67
f 113/26/68 146/53/68 109/56/68 110/27/68
f 112/22/69 147/49/69 127/52/69 108/23/69
f 122/30/70 149/25/70 118/28/70 119/31/70
f 123/34/71 150/21/71 107/24/71 121/35/71
f 126/42/72 151/1/72 116/4/72 117/43/72
f 92/59/73 152/41/73 88/44/73 89/60/73
f 99/61/74 153/37/74 93/40/74 94/62/74
f 80/63/53 154/33/53 120/36/53 81/64/53
f 86/65/75 155/29/75 102/32/75 87/66/75
f 83/67/53 82/68/53 155/29/53 86/65/53
f 115/69/76 114/70/76 149/25/76 122/30/76
f 104/71/77 103/72/77 146/53/77 113/26/77
f 130/73/78 129/74/78 144/5/78 140/54/78
f 103/72/79 130/73/79 140/54/79 146/53/79
f 82/68/80 115/69/80 122/30/80 155/29/80
f 114/70/81 104/71/81 113/26/81 149/25/81
f 129/74/82 101/75/82 100/6/82 144/5/82
f 87/66/83 102/32/83 153/37/83 99/61/83
f 119/31/84 118/28/84 158/76/84 124/38/84
f 110/27/85 109/56/85 157/77/85 156/78/85
f 136/55/86 135/8/86 141/17/86 137/57/86
f 102/32/87 119/31/87 124/38/87 153/37/87
f 135/8/88 85/7/88 84/18/88 141/17/88
f 118/28/89 110/27/89 156/78/89 158/76/89
f 94/62/90 93/40/90 152/41/90 92/59/90
f 134/58/91 133/20/91 142/13/91 138/46/91
f 145/79/92 134/58/92 138/46/92 148/45/92
f 93/40/93 125/39/93 126/42/93 152/41/93
f 133/20/94 98/19/94 97/14/94 142/13/94
f 89/60/53 88/44/53 154/33/53 80/63/53
f 117/43/95 116/4/95 150/21/95 123/34/95
f 106/3/96 105/48/96 147/49/96 112/22/96
f 132/47/97 131/16/97 143/9/97 139/50/97
f 105/48/98 132/47/98 139/50/98 147/49/98
f 88/44/99 117/43/99 123/34/99 154/33/99
f 116/4/100 106/3/100 112/22/100 150/21/100
f 131/16/53 91/15/53 90/10/53 143/9/53
f 69/1/101 64/2/101 111/2/101 151/1/101
f 24/55/102 33/56/102 109/56/102 136/55/102
f 5/19/103 63/14/103 97/14/103 98/19/103
f 62/59/104 7/62/104 94/62/104 92/59/104
f 19/35/105 43/36/105 120/36/105 121/35/105
f 71/63/104 3/60/104 89/60/104 80/63/104
f 34/52/105 13/23/105 108/23/105 127/52/105
f 7/62/104 54/61/104 99/61/104 94/62/104
f 63/14/103 1/15/103 91/15/103 97/14/103
f 25/12/105 20/51/105 128/51/105 95/12/105
f 57/57/106 24/55/106 136/55/106 137/57/106
f 72/10/103 4/11/103 96/11/103 90/10/103
f 2/75/103 45/6/103 100/6/103 101/75/103
f 17/39/107 65/42/107 126/42/107 125/39/107
f 26/74/108 2/75/108 101/75/108 129/74/108
f 43/36/105 8/64/105 81/64/105 120/36/105
f 33/56/109 59/77/109 157/77/109 109/56/109
f 56/38/110 17/39/110 125/39/110 124/38/110
f 31/48/111 68/45/111 148/45/111 105/48/111
f 11/71/108 30/72/108 103/72/108 104/71/108
f 8/64/104 71/63/104 80/63/104 81/64/104
f 35/24/105 19/35/105 121/35/105 107/24/105
f 12/3/112 31/48/112 105/48/112 106/3/112
f 68/45/113 32/79/113 145/79/113 148/45/113
f 6/67/108 39/68/108 82/68/108 83/67/108
f 20/51/105 34/52/105 127/52/105 128/51/105
f 36/70/108 11/71/108 104/71/108 114/70/108
f 13/23/105 35/24/105 107/24/105 108/23/105
f 10/7/103 53/18/103 84/18/103 85/7/103
f 21/73/108 26/74/108 129/74/108 130/73/108
f 44/65/104 6/67/104 83/67/104 86/65/104
f 9/66/104 44/65/104 86/65/104 87/66/104
f 60/76/114 56/38/114 124/38/114 158/76/114
f 64/2/115 12/3/115 106/3/115 111/2/115
f 65/42/116 69/1/116 151/1/116 126/42/116
f 45/6/103 10/7/103 85/7/103 100/6/103
f 59/77/117 55/78/117 156/78/117 157/77/117
f 1/15/103 72/10/103 90/10/103 91/15/103
f 30/72/108 21/73/108 130/73/108 103/72/108
f 3/60/104 62/59/104 92/59/104 89/60/104
f 23/58/118 57/57/118 137/57/118 134/58/118
f 53/18/103 5/19/103 98/19/103 84/18/103
f 15/69/108 36/70/108 114/70/108 115/69/108
f 39/68/108 15/69/108 115/69/108 82/68/108
f 54/61/104 9/66/104 87/66/104 99/61/104
f 32/79/119 23/58/119 134/58/119 145/79/119
f 4/11/105 25/12/105 95/12/105 96/11/105
f 55/78/120 60/76/120 158/76/120 156/78/120
