# Blender 5.1.2
# www.blender.org
mtllib HideBox.mtl
o Cube
v 3.000000 -0.083190 -3.000000
v -3.000000 4.079750 3.000000
v 3.000000 -0.083190 3.000000
v -2.875925 4.083190 2.875925
v -3.000000 -0.083190 -3.000000
v -2.875925 4.083190 -2.875925
v -3.000000 -0.083190 3.000000
v -3.000000 4.079750 -3.000000
v 2.875925 0.083190 -2.875925
v 3.000000 0.079750 -3.000000
v 2.875925 0.083190 2.875925
v 3.000000 0.079750 3.000000
v -3.000000 0.079750 -3.000000
v -2.875925 0.083190 -2.875925
v -2.875925 0.083190 2.875925
v -3.000000 0.079750 3.000000
v 3.000000 4.079750 -3.000000
v 2.875925 4.083190 -2.875925
v 2.875925 4.083190 2.875925
v 3.000000 4.079750 3.000000
v -0.086669 4.401596 2.875925
v -0.122268 4.520504 3.000000
v -0.122268 4.520504 -3.000000
v -0.086669 4.401596 -2.875925
v 0.089770 4.405932 -3.000000
v 0.070916 4.283250 -2.875925
v 0.070916 4.283250 2.875925
v 0.089770 4.405932 3.000000
vn -0.0000 -1.0000 -0.0000
vn -0.0000 -0.0000 1.0000
vn 0.1165 -0.8697 -0.4796
vn -0.0000 0.9996 0.0277
vn -0.0000 0.9996 -0.0277
vn 0.1134 -0.9935 -0.0000
vn -0.0000 -0.0000 -1.0000
vn 1.0000 -0.0000 -0.0000
vn -0.0000 1.0000 -0.0000
vn -1.0000 -0.0000 -0.0000
vn -0.9884 0.1519 -0.0000
vn 0.9580 0.2868 -0.0000
vn -0.0711 -0.9975 -0.0000
vn -0.1514 0.9885 -0.0000
vn -0.0810 -0.8794 0.4692
vn -0.0810 -0.8794 -0.4692
vn 0.1165 -0.8697 0.4796
vn 0.1114 0.9938 -0.0000
vt 0.625000 0.500000
vt 0.875000 0.500000
vt 0.875000 0.750000
vt 0.625000 0.750000
vt 0.369830 0.505170
vt 0.130170 0.505170
vt 0.125000 0.500000
vt 0.130170 0.744830
vt 0.369830 0.744830
vt 0.378877 0.750000
vt 0.125000 0.750000
vt 0.378877 0.500000
vt 0.380170 1.000000
vt 0.380170 0.250000
vt 0.625000 0.250000
vt 0.625000 1.000000
vt 0.380170 0.000000
vt 0.625000 0.000000
s 0
usemtl Material
f 1/1/1 3/4/1 7/3/1 5/2/1
f 9/5/2 18/5/2 6/6/2 14/6/2
f 8/7/3 23/7/3 24/6/3 6/6/3
f 4/8/4 2/11/4 20/10/4 19/9/4
f 18/5/5 17/12/5 8/7/5 6/6/5
f 6/6/6 24/6/6 21/8/6 4/8/6
f 15/8/7 4/8/7 19/9/7 11/9/7
f 12/10/2 20/10/2 2/13/2 16/13/2
f 10/12/8 17/12/8 20/10/8 12/10/8
f 13/14/7 8/14/7 17/12/7 10/12/7
f 13/14/7 10/12/7 1/1/7 5/15/7
f 10/12/8 12/10/8 3/4/8 1/1/8
f 14/6/9 15/8/9 11/9/9 9/5/9
f 12/10/2 16/13/2 7/16/2 3/4/2
f 16/17/10 13/14/10 5/15/10 7/18/10
f 16/17/10 2/17/10 8/14/10 13/14/10
f 14/6/8 6/6/8 4/8/8 15/8/8
f 11/9/10 19/9/10 18/5/10 9/5/10
f 27/9/11 28/10/11 25/12/11 26/5/11
f 24/6/12 23/7/12 22/11/12 21/8/12
f 19/9/13 27/9/13 26/5/13 18/5/13
f 2/17/14 22/17/14 23/14/14 8/14/14
f 20/10/15 28/10/15 27/9/15 19/9/15
f 18/5/16 26/5/16 25/12/16 17/12/16
f 4/8/17 21/8/17 22/11/17 2/11/17
f 17/12/18 25/12/18 28/10/18 20/10/18
