# Blender 5.1.2
# www.blender.org
mtllib MeetingTable.mtl
o Cube
v 3.825000 0.075000 -2.100000
v 3.825000 -0.075000 -2.100000
v 3.825000 0.075000 2.100000
v 3.825000 -0.075000 2.100000
v -3.825000 0.075000 -2.100000
v -3.825000 -0.075000 -2.100000
v -3.825000 0.075000 2.100000
v -3.825000 -0.075000 2.100000
v 0.000000 -0.100000 -2.800000
v 0.000000 0.100000 2.800000
v 0.000000 -0.100000 2.800000
v 0.000000 0.100000 -2.800000
v 2.550000 -0.100000 2.800000
v 2.550000 0.100000 -2.800000
v 2.550000 -0.100000 -2.800000
v 2.550000 0.100000 2.800000
v -2.550000 -0.100000 -2.800000
v -2.550000 0.100000 2.800000
v -2.550000 -0.100000 2.800000
v -2.550000 0.100000 -2.800000
v -5.100000 -0.100000 0.000000
v 5.100000 0.100000 0.000000
v -5.100000 0.100000 0.000000
v 5.100000 -0.100000 0.000000
v 0.000000 -0.100000 0.000000
v 0.000000 0.100000 0.000000
v 2.550000 0.100000 0.000000
v 2.550000 -0.100000 0.000000
v -2.550000 -0.100000 0.000000
v -2.550000 0.100000 0.000000
v -5.100000 0.100000 -1.400000
v 5.100000 -0.100000 -1.400000
v -5.100000 -0.100000 -1.400000
v 5.100000 0.100000 -1.400000
v 0.000000 -0.100000 -1.400000
v 0.000000 0.100000 -1.400000
v 2.550000 0.100000 -1.400000
v 2.550000 -0.100000 -1.400000
v -2.550000 -0.100000 -1.400000
v -2.550000 0.100000 -1.400000
v -5.100000 -0.100000 1.472488
v 5.100000 0.100000 1.472488
v 0.000000 -0.100000 1.472488
v 0.000000 0.100000 1.472488
v 2.550000 0.100000 1.472488
v 2.550000 -0.100000 1.472488
v -2.550000 -0.100000 1.472488
v -2.550000 0.100000 1.472488
v -5.100000 0.100000 1.472488
v 5.100000 -0.100000 1.472488
v -3.788711 -1.051689 1.098721
v -2.841533 -1.033117 1.564889
v -1.894355 -1.051689 -2.075244
v -2.841533 -1.033117 -1.555225
v 1.894355 -1.051689 2.084908
v 2.841533 -1.033117 1.564889
v 3.788711 -1.051689 -1.035206
v 2.841533 -1.033117 -1.555225
v 1.894355 -1.051689 -2.075244
v 1.894355 -1.051689 1.098721
v -1.894355 -1.051689 2.084908
v -1.894355 -1.051689 1.098721
v -3.788711 -1.051689 -1.035206
v 1.894355 -1.051689 -1.035206
v -1.894355 -1.051689 -1.035206
v 3.788711 -1.051689 1.098721
v -3.788711 -3.051688 1.099871
v -2.841533 -3.033117 1.566039
v -1.894355 -3.051688 -2.074094
v -2.841533 -3.033117 -1.554075
v 1.894355 -3.051688 2.086059
v 2.841533 -3.033117 1.566039
v 3.788711 -3.051688 -1.034056
v 2.841533 -3.033117 -1.554075
v 1.894355 -3.051688 -2.074094
v 1.894355 -3.051688 1.099871
v -1.894355 -3.051688 2.086059
v -1.894355 -3.051688 1.099871
v -3.788711 -3.051688 -1.034056
v 1.894355 -3.051688 -1.034056
v -1.894355 -3.051688 -1.034056
v 3.788711 -3.051688 1.099871
vn -0.0101 0.9998 0.0194
vn -0.4813 -0.0000 0.8766
vn -0.4813 -0.0000 -0.8766
vn -0.3504 -0.7082 -0.6129
vn 0.4416 -0.0000 0.8972
vn 0.4813 -0.0000 -0.8766
vn -0.0000 -0.0000 -1.0000
vn -0.0000 -1.0000 -0.0000
vn -0.0000 -0.0000 1.0000
vn -0.0000 1.0000 -0.0000
vn 0.0101 0.9998 0.0194
vn 0.4813 -0.0000 0.8766
vn 0.3519 -0.7050 0.6157
vn 1.0000 -0.0000 -0.0000
vn -1.0000 -0.0000 -0.0000
vn -0.0098 0.9998 -0.0179
vn -0.0000 0.3579 0.9338
vn 0.0098 0.9998 -0.0179
vn -0.3519 -0.7050 0.6157
vn -0.4416 -0.0000 0.8972
vn 0.4813 0.0005 0.8766
vn -0.4813 -0.0005 -0.8766
vn 0.8235 0.5673 -0.0000
vn 0.3104 -0.6861 0.6580
vn 0.3328 -0.7005 -0.6312
vn -0.8235 0.5673 -0.0000
vn -0.0000 0.3656 -0.9308
vn -0.3328 -0.7005 -0.6312
vn 0.3504 -0.7082 -0.6129
vn -0.3104 -0.6861 0.6580
vn 0.0101 -0.9998 0.0194
vn -0.0101 -0.9998 0.0194
vn 0.0098 -0.9998 -0.0179
vn -0.0098 -0.9998 -0.0179
vn 0.4813 -0.0005 -0.8766
vn -0.0000 0.0006 1.0000
vn 0.4416 0.0005 0.8972
vn -0.4813 0.0005 0.8766
vn -0.0000 -0.0006 -1.0000
vn -0.4416 0.0005 0.8972
vt 0.812500 0.690736
vt 0.875000 0.690736
vt 0.875000 0.750000
vt 0.812500 0.750000
vt 0.375000 0.937500
vt 0.625000 0.937500
vt 0.625000 1.000000
vt 0.375000 1.000000
vt 0.375000 0.187500
vt 0.625000 0.187500
vt 0.625000 0.250000
vt 0.375000 0.250000
vt 0.375000 0.312500
vt 0.375000 0.690736
vt 0.625000 0.690736
vt 0.625000 0.750000
vt 0.375000 0.750000
vt 0.375000 0.437500
vt 0.625000 0.437500
vt 0.625000 0.500000
vt 0.375000 0.500000
vt 0.625000 0.312500
vt 0.625000 0.375000
vt 0.375000 0.375000
vt 0.187500 0.690736
vt 0.250000 0.690736
vt 0.250000 0.750000
vt 0.187500 0.750000
vt 0.375000 0.812500
vt 0.625000 0.812500
vt 0.625000 0.875000
vt 0.375000 0.875000
vt 0.687500 0.690736
vt 0.750000 0.690736
vt 0.750000 0.750000
vt 0.687500 0.750000
vt 0.312500 0.690736
vt 0.312500 0.750000
vt 0.750000 0.562500
vt 0.812500 0.562500
vt 0.812500 0.625000
vt 0.750000 0.625000
vt 0.125000 0.562500
vt 0.187500 0.562500
vt 0.187500 0.625000
vt 0.125000 0.625000
vt 0.250000 0.562500
vt 0.312500 0.562500
vt 0.312500 0.625000
vt 0.250000 0.625000
vt 0.625000 0.562500
vt 0.687500 0.562500
vt 0.687500 0.625000
vt 0.625000 0.625000
vt 0.375000 0.562500
vt 0.375000 0.625000
vt 0.375000 0.059264
vt 0.625000 0.059264
vt 0.625000 0.125000
vt 0.375000 0.125000
vt 0.875000 0.562500
vt 0.875000 0.625000
vt 0.812500 0.500000
vt 0.875000 0.500000
vt 0.187500 0.500000
vt 0.250000 0.500000
vt 0.687500 0.500000
vt 0.750000 0.500000
vt 0.312500 0.500000
vt 0.375000 0.000000
vt 0.625000 0.000000
vt 0.125000 0.690736
vt 0.125000 0.750000
vt 0.125000 0.500000
s 0
usemtl Material
f 48/1/1 49/2/1 7/3/1 18/4/1
f 19/5/2 18/6/2 7/7/2 8/8/2
f 33/9/3 31/10/3 5/11/3 6/12/3
f 6/12/4 17/13/4 53/13/4 54/12/4
f 50/14/5 42/15/5 3/16/5 4/17/5
f 15/18/6 14/19/6 1/20/6 2/21/6
f 17/13/7 20/22/7 12/23/7 9/24/7
f 47/25/8 43/26/8 11/27/8 19/28/8
f 13/29/9 16/30/9 10/31/9 11/32/9
f 45/33/10 44/34/10 10/35/10 16/36/10
f 42/15/11 45/33/11 16/36/11 3/16/11
f 4/17/12 3/16/12 16/30/12 13/29/12
f 9/24/7 12/23/7 14/19/7 15/18/7
f 43/26/8 46/37/8 13/38/8 11/27/8
f 4/17/13 13/29/13 55/29/13 56/17/13
f 6/12/3 5/11/3 20/22/3 17/13/3
f 11/32/9 10/31/9 18/6/9 19/5/9
f 44/34/10 48/1/10 18/4/10 10/35/10
f 36/39/10 40/40/10 30/41/10 26/42/10
f 33/43/8 39/44/8 29/45/8 21/46/8
f 35/47/8 38/48/8 28/49/8 25/50/8
f 34/51/10 37/52/10 27/53/10 22/54/10
f 37/52/10 36/39/10 26/42/10 27/53/10
f 39/44/8 35/47/8 25/50/8 29/45/8
f 32/55/14 34/51/14 22/54/14 24/56/14
f 38/48/8 32/55/8 24/56/8 28/49/8
f 41/57/15 49/58/15 23/59/15 21/60/15
f 40/40/10 31/61/10 23/62/10 30/41/10
f 20/63/16 5/64/16 31/61/16 40/40/16
f 32/55/17 38/48/17 64/48/17 57/55/17
f 2/21/6 1/20/6 34/51/6 32/55/6
f 17/65/8 9/66/8 35/47/8 39/44/8
f 14/67/10 12/68/10 36/39/10 37/52/10
f 1/20/18 14/67/18 37/52/18 34/51/18
f 9/66/8 15/69/8 38/48/8 35/47/8
f 19/5/19 8/8/19 52/8/19 61/5/19
f 12/68/10 20/63/10 40/40/10 36/39/10
f 21/60/15 23/59/15 31/10/15 33/9/15
f 8/70/20 7/71/20 49/58/20 41/57/20
f 26/42/10 30/41/10 48/1/10 44/34/10
f 21/46/8 29/45/8 47/25/8 41/72/8
f 25/50/8 28/49/8 46/37/8 43/26/8
f 22/54/10 27/53/10 45/33/10 42/15/10
f 27/53/10 26/42/10 44/34/10 45/33/10
f 29/45/8 25/50/8 43/26/8 47/25/8
f 24/56/14 22/54/14 42/15/14 50/14/14
f 28/49/8 24/56/8 50/14/8 46/37/8
f 30/41/10 23/62/10 49/2/10 48/1/10
f 56/17/21 55/29/21 71/29/21 72/17/21
f 64/48/15 59/69/15 75/69/15 80/48/15
f 54/12/22 53/13/22 69/13/22 70/12/22
f 63/9/22 54/12/22 70/12/22 79/9/22
f 47/25/23 19/28/23 61/28/23 62/25/23
f 50/14/24 4/17/24 56/17/24 66/14/24
f 2/21/25 32/55/25 57/55/25 58/21/25
f 38/48/26 15/69/26 59/69/26 64/48/26
f 13/38/26 46/37/26 60/37/26 55/38/26
f 17/65/23 39/44/23 65/44/23 53/65/23
f 46/37/27 50/14/27 66/14/27 60/37/27
f 33/9/28 6/12/28 54/12/28 63/9/28
f 39/44/17 33/43/17 63/43/17 65/44/17
f 41/72/27 47/25/27 62/25/27 51/72/27
f 15/18/29 2/21/29 58/21/29 59/18/29
f 8/70/30 41/57/30 51/57/30 52/70/30
f 76/37/31 82/14/31 72/17/31 71/38/31
f 67/72/32 78/25/32 77/28/32 68/73/32
f 75/69/33 74/21/33 73/55/33 80/48/33
f 70/74/34 69/65/34 81/44/34 79/43/34
f 53/65/14 65/44/14 81/44/14 69/65/14
f 58/21/35 57/55/35 73/55/35 74/21/35
f 57/55/36 64/48/36 80/48/36 73/55/36
f 59/18/35 58/21/35 74/21/35 75/18/35
f 65/44/36 63/43/36 79/43/36 81/44/36
f 55/38/15 60/37/15 76/37/15 71/38/15
f 66/14/37 56/17/37 72/17/37 82/14/37
f 61/5/38 52/8/38 68/8/38 77/5/38
f 51/72/39 62/25/39 78/25/39 67/72/39
f 62/25/14 61/28/14 77/28/14 78/25/14
f 52/70/40 51/57/40 67/57/40 68/70/40
f 60/37/39 66/14/39 82/14/39 76/37/39
