# Blender 5.0.1
# www.blender.org
mtllib meLab.mtl
o Plane
v -0.045158 -2.521624 0.879035
v -0.138532 -2.550962 -0.748703
v -0.072562 -0.852819 0.972593
v -0.029339 -0.757634 -0.855959
v -0.063048 -3.036136 2.549241
v -0.401570 -1.504865 0.889152
v -0.090719 -1.128330 1.153420
v 0.000000 -1.774573 1.611606
v 0.000000 -2.687437 2.000585
v -0.088830 -3.212099 2.459247
v -0.088830 -2.951303 2.175189
v 0.000000 -2.002063 1.214097
v -0.047080 -3.080389 -2.565672
v -0.000000 -1.681529 -1.504150
v -0.367087 -1.640634 -0.623192
v -0.000000 -1.998193 -1.261891
v -0.047080 -3.099325 -2.395689
v -0.047080 -2.844405 -2.085851
v -0.000000 -2.691587 -2.034305
v -0.131854 -0.391276 0.514270
v -0.169937 -0.403877 -0.368253
v -0.090719 -1.073404 -1.046693
v -0.034071 -2.576851 0.120559
v -0.002866 -5.724264 0.539181
v 0.090211 -3.855632 0.696230
v -0.050808 -3.823794 0.224823
v 0.003730 -5.718297 0.746187
v -0.001111 -5.705207 0.290761
v 0.001620 -5.699330 -0.651872
v -0.045510 -3.801519 -0.111280
v -0.045754 -3.756805 -0.635754
v -0.000615 -5.704892 -0.197237
v -0.000658 -4.641755 -0.663896
v 0.716780 -1.468424 0.739996
v 0.468039 -2.535836 0.841995
v 0.363965 -3.756805 -0.634650
v 0.468039 -2.590461 -0.719171
v 0.269066 -1.060195 -1.055965
v 0.193579 -0.791219 -0.821241
v 0.238574 -0.391631 0.460657
v 0.343804 -0.818590 0.953085
v 0.269066 -1.774573 1.611606
v 0.312713 -3.054740 2.496008
v 0.269066 -2.002063 1.214097
v 0.269066 -1.115121 1.144148
v 0.330590 -2.948233 2.169061
v 0.269066 -2.687437 2.000585
v 0.330590 -3.209030 2.453118
v 0.324595 -3.124280 -2.374969
v 0.324595 -3.105344 -2.544953
v 0.269066 -1.681529 -1.504150
v 0.598552 -1.556208 -0.721289
v 0.269066 -1.998193 -1.261891
v 0.324595 -2.869360 -2.065131
v 0.269066 -2.691587 -2.034305
v 0.188515 -0.353350 -0.335146
v 0.358911 -3.823794 0.225927
v 0.430691 -2.570876 0.063335
v 0.272796 -5.718297 0.746187
v 0.266199 -5.724264 0.539181
v 0.359277 -3.855632 0.696230
v 0.267954 -5.705207 0.290761
v 0.268451 -5.704892 -0.197237
v 0.270686 -5.699330 -0.651872
v 0.364209 -3.801519 -0.110176
v 0.268408 -4.641755 -0.663896
v 0.266953 -5.356580 -0.346577
v 0.283941 -5.368082 0.569116
v 0.284743 -5.362554 -0.168585
v 0.283771 -5.363387 0.269373
v 0.283644 -5.366660 0.480237
v 0.266954 -5.349613 -0.670283
v 0.284846 -5.371063 0.753263
v -0.011726 -5.326852 -0.167479
v 0.816589 -5.739687 0.734099
v 0.809992 -5.745654 0.527093
v 0.818395 -5.592045 0.736341
v 0.811747 -5.726597 0.278673
v 0.812244 -5.726282 -0.209325
v 0.814479 -5.720720 -0.663960
v 0.818293 -5.583535 -0.185507
v 0.817194 -5.587641 0.463315
v 0.800503 -5.577561 -0.363499
v 0.817491 -5.589063 0.552194
v 0.817320 -5.584369 0.252452
v 0.800504 -5.570594 -0.687205
v 0.269066 -2.590051 -2.187907
v 0.304617 -2.715098 -2.039946
v 0.304617 -2.720267 -2.033210
v -0.000000 -2.598093 -2.193960
v 0.000000 -2.557636 2.167538
v 0.269066 -2.565142 2.172866
v 0.154240 -0.116868 -0.186124
v 0.141799 -0.135522 0.299182
v -0.185222 0.033050 0.402096
v -0.246218 0.134968 -0.097070
v 0.068342 0.016610 -0.360148
v 0.368974 0.026130 -0.163154
v 0.320232 0.653174 0.351831
v -0.033227 0.787993 0.376114
v -0.111989 0.708917 -0.328514
v 0.408628 0.576831 -0.164866
v 0.371183 0.610641 0.358849
v 0.347981 0.762436 0.103737
v 0.331753 0.018273 0.348030
v 0.150602 -0.140916 0.235961
v -0.178729 0.116636 0.236625
v -0.032352 0.001201 0.272366
v -0.104163 0.104054 -0.130587
v -0.160291 -0.400685 -0.144706
v -0.142206 -0.394701 0.274383
v 0.200554 -0.362557 -0.143755
v 0.226472 -0.382376 0.268261
vn -0.9606 -0.2560 0.1078
vn -0.9436 -0.3309 0.0103
vn -0.9518 -0.1344 0.2757
vn -0.9998 0.0121 -0.0155
vn -0.9984 0.0472 0.0305
vn -0.9996 -0.0267 -0.0091
vn -0.9574 0.0235 0.2880
vn -1.0000 -0.0000 -0.0000
vn -0.6386 -0.0129 0.7695
vn -0.9910 0.0988 0.0907
vn -0.9011 0.4053 0.1540
vn -0.8149 0.3523 0.4602
vn -0.8164 0.3535 0.4566
vn -0.9934 -0.0992 0.0568
vn -0.9682 0.2474 0.0382
vn -0.7047 0.4622 -0.5384
vn -0.9970 0.0671 0.0393
vn -0.9094 0.1548 -0.3861
vn -0.9239 0.2128 -0.3179
vn -0.9984 -0.0212 -0.0516
vn -1.0000 -0.0022 -0.0049
vn -0.9928 -0.0132 0.1189
vn -0.9987 -0.0508 -0.0039
vn -0.9970 -0.0773 -0.0061
vn -0.9856 0.1648 -0.0373
vn -0.9441 -0.3294 0.0080
vn -0.9247 0.3415 -0.1680
vn -0.8920 -0.2746 -0.3590
vn 0.9909 -0.1249 0.0504
vn 0.9725 -0.2301 -0.0363
vn 0.9967 -0.0814 -0.0063
vn 0.9970 -0.0630 -0.0450
vn 0.9988 -0.0493 -0.0057
vn 0.3831 0.9235 0.0199
vn -0.0458 -0.0846 -0.9954
vn 1.0000 -0.0000 -0.0000
vn 0.6933 0.0567 0.7185
vn 0.9922 0.0916 0.0841
vn 0.9342 0.3209 0.1556
vn 0.8769 0.4397 0.1939
vn 0.7435 0.2196 0.6317
vn 0.9169 0.3972 -0.0386
vn 0.5067 0.6432 -0.5741
vn 0.9812 0.1697 -0.0923
vn 0.8625 0.2960 -0.4104
vn 0.8758 0.3899 -0.2844
vn 0.9938 -0.0468 -0.1009
vn 0.0225 -0.0195 0.9996
vn 0.9969 -0.0608 0.0491
vn 0.9942 -0.1070 -0.0096
vn 0.9960 -0.0895 -0.0081
vn 0.9323 0.3487 -0.0964
vn 0.9749 -0.2124 -0.0661
vn 0.9881 0.1387 -0.0658
vn 0.9043 -0.2594 -0.3391
vn 0.0492 0.5894 -0.8063
vn 0.1126 0.0496 0.9924
vn -0.0000 -0.9971 -0.0765
vn -0.0452 0.0610 -0.9971
vn 0.0268 -0.0831 -0.9962
vn -0.0000 -0.9999 -0.0122
vn 0.1007 -0.8220 0.5605
vn 0.0558 0.5883 -0.8067
vn 0.0643 -0.1645 0.9843
vn -0.0869 -0.7693 0.6329
vn 0.0316 0.7330 0.6795
vn 0.0016 0.0324 -0.9995
vn -0.0485 -0.2423 0.9690
vn -0.0000 0.5789 0.8154
vn -0.0019 -0.0371 0.9993
vn -0.0000 -0.7441 0.6680
vn -0.0689 -0.6093 -0.7900
vn -0.0270 -0.0114 -0.9996
vn -0.1233 0.9922 0.0208
vn -0.0022 0.5453 0.8382
vn 0.0503 0.7786 -0.6255
vn -0.0001 0.5783 0.8158
vn -0.0243 0.5917 -0.8058
vn -0.0050 -0.5471 -0.8371
vn -0.0630 -0.1037 -0.9926
vn 0.0618 -0.3738 0.9254
vn -0.0000 -0.9996 0.0288
vn -0.0045 -0.7366 -0.6763
vn 0.0447 -0.1223 0.9915
vn -0.0000 -0.7539 -0.6570
vn -0.0125 -0.0341 -0.9993
vn -0.0604 -0.9920 -0.1105
vn -0.0307 0.0282 0.9991
vn 0.9991 -0.0419 0.0021
vn 0.9988 -0.0488 -0.0002
vn 0.9988 -0.0494 -0.0041
vn -0.0032 -0.0808 0.9967
vn 0.3830 0.9236 0.0146
vn 1.0000 -0.0021 -0.0000
vn 0.3824 0.9240 -0.0072
vn 0.9989 -0.0472 -0.0041
vn 0.9961 0.0883 0.0043
vn 0.9946 -0.0254 -0.1003
vn 0.9994 -0.0289 -0.0189
vn -0.0386 -0.9988 0.0300
vn 0.3830 0.9237 0.0135
vn -0.0409 -0.9962 -0.0767
vn 0.3830 0.9237 0.0131
vn 0.0026 -0.1077 0.9942
vn -0.0483 -0.0957 -0.9942
vn -0.0396 -0.9991 -0.0124
vn 0.9995 0.0256 0.0169
vn 0.5277 0.6739 0.5172
vn -0.0000 0.6013 -0.7990
vn 0.9972 0.0605 -0.0430
vn 0.0836 0.5854 0.8064
vn -0.9947 0.0809 -0.0629
vn -0.9757 0.1781 0.1277
vn 0.5889 -0.8080 -0.0160
vn 0.9703 0.2414 -0.0132
vn -0.5446 -0.8336 -0.0917
vn 0.4589 -0.5811 -0.6722
vn 0.6237 -0.7810 0.0334
vn 0.2417 -0.1190 0.9630
vn -0.9717 0.1784 0.1551
vn -0.6657 -0.1399 -0.7330
vn 0.5485 -0.0421 -0.8351
vn -0.2216 -0.0099 0.9751
vn 0.0758 0.0191 0.9969
vn -0.9632 0.2570 0.0788
vn 0.3268 0.1279 -0.9364
vn 0.9946 -0.0714 0.0757
vn 0.5594 0.7337 0.3857
vn 0.3495 0.8424 0.4101
vn -0.0121 0.9938 -0.1102
vn 0.3539 0.8049 -0.4763
vn 0.9696 0.2388 0.0539
vn 0.9952 -0.0675 0.0714
vn -0.0150 0.9998 0.0143
vn -0.5030 -0.7633 -0.4053
vn -0.5551 -0.7692 -0.3167
vn -0.4513 -0.8903 -0.0611
vn -0.0983 -0.0362 -0.9945
vn 0.0882 0.0489 0.9949
vn 0.9998 -0.0122 0.0150
vt 0.204608 0.204286
vt 0.209246 0.311179
vt 0.106356 0.304694
vt 0.028125 0.173093
vt 0.017694 0.290524
vt 0.081191 0.450352
vt 0.024956 0.448401
vt 0.024321 0.670304
vt -0.000000 0.667447
vt 0.053752 0.670589
vt 0.639095 0.830515
vt 0.612458 0.716374
vt 0.666169 0.710233
vt 0.339761 0.864524
vt 0.339761 0.967146
vt 0.299473 0.923647
vt 0.632588 0.912802
vt 0.611583 0.902270
vt 0.641441 0.868097
vt 0.614147 0.829832
vt 0.082999 0.044299
vt 0.024088 0.093518
vt -0.000000 0.124180
vt 0.611583 0.623030
vt 0.186851 0.055031
vt 0.111228 0.047216
vt 0.160545 0.052312
vt 0.259512 0.140189
vt 0.240158 0.100729
vt 0.397122 0.391904
vt 0.363301 0.358766
vt 0.417324 0.391414
vt 0.358680 0.339977
vt 0.378441 0.330614
vt 0.306769 0.215799
vt 0.120964 0.451132
vt 0.177148 0.555292
vt 0.111189 0.675532
vt 0.111644 0.630847
vt 0.164748 0.679507
vt 0.183157 0.451232
vt 0.274969 0.250559
vt 0.630069 0.444714
vt 0.527812 0.334424
vt 0.619393 0.323457
vt 0.458562 0.470650
vt 0.436439 0.346942
vt 0.439952 0.190411
vt 0.495589 0.189019
vt 0.417324 0.012977
vt 0.439011 0.011318
vt 0.829158 0.957130
vt 0.790993 0.958350
vt 0.790993 0.890928
vt 0.829158 0.889708
vt 0.893358 0.508762
vt 0.891607 0.550019
vt 0.829939 0.520703
vt 0.829289 0.502950
vt 0.691135 0.704510
vt 0.720072 0.824187
vt 0.666207 0.818988
vt 0.085896 0.891808
vt 0.085896 0.812256
vt 0.157058 0.816553
vt 0.683048 0.623030
vt 0.692593 0.667531
vt 0.668405 0.635074
vt 0.666169 0.704541
vt 0.505647 0.595724
vt 0.442571 0.550556
vt 0.417324 0.517985
vt 0.666169 0.914406
vt 0.599897 0.591683
vt 0.577229 0.592655
vt 0.528433 0.594747
vt 0.676579 0.500407
vt 0.657220 0.539454
vt 0.809100 0.242998
vt 0.829289 0.243369
vt 0.775420 0.276374
vt 0.793171 0.308059
vt 0.774232 0.294857
vt 0.722575 0.422413
vt 0.535315 0.187951
vt 0.525797 0.003906
vt 0.546885 0.002717
vt 0.591888 0.083341
vt 0.899602 0.044924
vt 0.897194 0.004033
vt 0.961396 -0.000000
vt 0.962031 0.017387
vt 0.597460 0.187481
vt 0.773385 0.294323
vt 0.774019 0.297792
vt 0.690680 0.387806
vt 0.763827 0.626823
vt 0.758518 0.684427
vt 0.726745 0.684749
vt 0.720072 0.623030
vt 0.829289 0.502950
vt 0.868455 0.382338
vt 0.929159 0.378945
vt 0.962031 0.502712
vt 0.244807 0.952897
vt 0.215394 0.952311
vt 0.215838 0.920524
vt 0.245252 0.921109
vt 0.922174 0.882582
vt 0.944092 0.991652
vt 0.829289 0.995617
vt 0.850966 0.874343
vt 0.918970 0.739949
vt 0.870638 0.737493
vt 0.214949 0.891133
vt 0.161232 0.890089
vt 0.161677 0.858302
vt 0.215394 0.859346
vt 0.215394 0.793974
vt 0.146372 0.741986
vt 0.149681 0.710368
vt 0.215394 0.679507
vt 0.769919 0.867049
vt 0.762632 0.904587
vt 0.720072 0.905272
vt 0.727360 0.867734
vt 0.423963 1.000000
vt 0.418866 0.853396
vt 0.467238 0.852019
vt 0.479073 0.998479
vt 0.086392 0.947574
vt 0.086392 0.911955
vt 0.130426 0.913505
vt 0.130426 0.949124
vt -0.000000 0.932585
vt 0.002557 0.877338
vt 0.047756 0.864490
vt 0.042370 0.925125
vt 0.918910 0.635179
vt 0.887167 0.633565
vt 0.412351 0.770404
vt 0.417324 0.789084
vt 0.373464 0.790758
vt 0.376316 0.772920
vt 0.380577 0.769657
vt 0.810142 0.729480
vt 0.809915 0.815418
vt 0.778147 0.815215
vt 0.778376 0.728454
vt 0.417324 0.673270
vt 0.452199 0.668054
vt 0.417324 0.680254
vt 0.385551 0.679507
vt 0.145408 0.767898
vt 0.085896 0.812256
vt 0.085896 0.679507
vt 0.146372 0.736129
vt 0.925100 0.510377
vt 0.417324 0.866868
vt 0.408959 0.891952
vt 0.369892 0.881363
vt 0.377768 0.860154
vt 0.819043 0.628427
vt 0.821042 0.658896
vt 0.778571 0.656074
vt 0.769919 0.623030
vt 0.409119 0.802786
vt 0.369892 0.790757
vt 0.758931 0.794080
vt 0.727154 0.793439
vt 0.696940 0.963975
vt 0.666169 0.952569
vt 0.666394 0.920786
vt 0.696940 0.914406
vt 0.611583 0.850234
vt 0.605485 0.997287
vt 0.550364 0.996522
vt 0.563204 0.849039
vt 0.817404 0.867706
vt 0.819451 0.889496
vt 0.769919 0.887603
vt 0.772745 0.869051
vt 0.269245 0.952498
vt 0.269690 0.920711
vt 0.646158 0.962354
vt 0.611583 0.962603
vt 0.611583 0.913052
vt 0.646158 0.912802
vt 0.881248 0.223022
vt 0.913023 0.222339
vt 0.079539 0.865156
vt 0.079539 0.960743
vt 0.047756 0.960077
vt 0.047756 0.864490
vt 0.611583 0.627956
vt 0.576839 0.667462
vt 0.579809 0.627170
vt 0.085896 0.891808
vt 0.129930 0.893358
vt 0.865419 0.004716
vt 0.085751 0.798228
vt 0.083978 0.827580
vt 0.067247 0.830895
vt 0.067232 0.805996
vt 0.449478 0.010515
vt 0.474303 0.008596
vt 0.417324 0.628439
vt 0.449093 0.627527
vt 0.215394 0.958555
vt 0.190528 0.959398
vt 0.190528 0.891977
vt 0.215394 0.891133
vt 0.585018 -0.000000
vt 0.769919 0.956917
vt 0.769919 0.889496
vt 0.067232 0.795499
vt 0.286904 0.858698
vt 0.287410 0.912368
vt 0.269690 0.915544
vt 0.269690 0.877315
vt 0.270003 0.856195
vt 0.067237 0.773748
vt 0.084675 0.773765
vt 0.244807 0.856781
vt 0.269245 0.856383
vt 0.180045 0.959713
vt 0.180045 0.892291
vt 0.215394 0.856195
vt 0.158325 0.960329
vt 0.158325 0.892908
vt 0.513264 0.623030
vt 0.514427 0.640066
vt 0.514427 0.639764
vt 0.515610 0.623030
vt 0.161232 0.793974
vt 0.214949 0.795018
vt 0.365887 0.679507
vt 0.366655 0.679651
vt 0.365887 0.684376
vt 0.115246 -0.000000
vt 0.165422 0.002533
vt 0.248004 0.497987
vt 0.255460 0.498988
vt 0.305414 0.498976
vt 0.304416 0.519113
vt 0.535251 0.623030
vt 0.585114 0.621236
vt 0.301755 0.475660
vt 0.295476 0.450969
vt 0.326401 0.488266
vt 0.268852 0.856195
vt 0.255936 0.843498
vt 0.285675 0.839361
vt 0.247923 0.518692
vt 0.358953 0.769655
vt 0.315682 0.779004
vt 0.300696 0.690128
vt 0.280679 0.750733
vt 0.241492 0.757107
vt 0.223240 0.769223
vt 0.215394 0.838671
vt 0.215394 0.769223
vt 0.282657 0.771800
vt 0.299473 0.759093
vt 0.299473 0.699211
vt 0.365887 0.679507
vt 0.299473 0.679507
vt 0.304444 0.519053
vt 0.324362 0.585441
vt 0.250918 0.576509
vt 0.234203 0.583842
vt 0.270821 0.610354
vt 0.002529 0.780543
vt 0.067232 0.773748
vt 0.048673 0.810000
vt 0.000000 0.864490
vt 0.067232 0.863849
vt 0.248012 0.518806
vt 0.047756 0.947221
vt 0.007643 0.959912
vt 0.256054 0.459290
vt 0.251529 0.476969
vt 0.236179 0.458924
vt 0.393366 0.939516
vt 0.372109 0.921302
vt 0.369892 0.891952
vt 0.412754 0.891952
vt 0.736099 0.915864
vt 0.761638 0.905272
vt 0.761638 0.953648
vt 0.720072 0.940485
s 0
g Plane_Material.001
usemtl Material.001
f 15/1/1 2/2/1 23/3/1
f 6/4/2 23/3/2 1/5/2
f 1/5/3 26/6/3 25/7/3
f 23/3/4 26/6/4 1/5/4
f 25/7/5 24/8/5 27/9/5
f 24/8/6 26/6/6 28/10/6
f 24/8/7 25/7/7 26/6/7
f 9/11/8 8/12/8 12/13/8
f 12/14/9 7/15/9 6/16/9
f 10/17/10 5/18/10 11/19/10
f 11/19/11 5/18/11 9/11/11
f 8/12/8 9/11/8 91/20/8
f 20/21/12 6/4/12 3/22/12
f 3/22/13 6/4/13 7/23/13
f 7/24/14 12/13/14 8/12/14
f 21/25/15 6/4/15 20/21/15 111/26/15 110/27/15
f 22/28/16 21/25/16 4/29/16
f 17/30/8 18/31/8 13/32/8
f 13/32/17 19/33/17 90/34/17
f 14/35/18 15/1/18 22/28/18
f 22/28/19 15/1/19 21/25/19
f 30/36/20 33/37/20 32/38/20 74/39/20
f 32/38/21 33/37/21 29/40/21
f 23/3/22 2/2/22 30/36/22
f 30/36/23 31/41/23 33/37/23
f 30/36/24 2/2/24 31/41/24
f 21/25/25 15/1/25 6/4/25
f 6/4/26 15/1/26 23/3/26
f 13/32/27 18/31/27 19/33/27
f 19/33/8 16/42/8 14/35/8
f 16/42/28 15/1/28 14/35/28
f 52/43/29 58/44/29 37/45/29
f 34/46/30 35/47/30 58/44/30
f 35/47/31 61/48/31 57/49/31
f 58/44/32 35/47/32 57/49/32
f 61/48/33 73/50/33 68/51/33
f 72/52/34 67/53/34 83/54/34 86/55/34
f 64/56/35 72/57/35 86/58/35 80/59/35
f 47/60/36 44/61/36 42/62/36
f 44/63/37 34/64/37 45/65/37
f 48/66/38 46/67/38 43/68/38
f 46/67/39 47/60/39 43/68/39
f 42/62/36 92/69/36 47/60/36
f 40/70/40 41/71/40 34/46/40
f 41/71/41 45/72/41 34/46/41
f 45/73/36 42/62/36 44/61/36
f 56/74/42 112/75/42 113/76/42 40/70/42 34/46/42
f 38/77/43 39/78/43 56/74/43
f 49/79/36 50/80/36 54/81/36
f 50/80/44 87/82/44 88/83/44
f 51/84/45 38/77/45 52/43/45
f 38/77/46 56/74/46 52/43/46
f 65/85/47 69/86/47 67/87/47 66/88/47
f 73/89/48 59/90/48 75/91/48 77/92/48
f 58/44/49 65/85/49 37/45/49
f 65/85/50 66/88/50 36/93/50
f 65/85/51 36/93/51 37/45/51
f 56/74/52 34/46/52 52/43/52
f 34/46/53 58/44/53 52/43/53
f 50/80/54 88/83/54 89/94/54 54/81/54
f 55/95/36 51/84/36 53/96/36
f 53/96/55 51/84/55 52/43/55
f 13/97/56 90/98/56 87/99/56 50/100/56
f 6/101/57 1/102/57 35/103/57 34/104/57
f 24/105/58 28/106/58 62/107/58 60/108/58
f 2/109/59 15/110/59 52/111/59 37/112/59
f 31/113/60 2/109/60 37/112/60 36/114/60
f 32/115/61 29/116/61 64/117/61 63/118/61
f 15/119/62 16/120/62 53/121/62 52/122/62
f 22/123/63 4/124/63 39/125/63 38/126/63
f 23/127/64 30/128/64 65/129/64 58/130/64
f 18/131/65 17/132/65 49/133/65 54/134/65
f 20/135/66 3/136/66 41/137/66 40/138/66
f 33/139/67 31/113/67 36/114/67 66/140/67
f 19/141/68 18/142/68 54/143/68 89/144/68 55/145/68
f 8/146/69 91/147/69 92/148/69 42/149/69
f 30/128/70 74/150/70 69/151/70 65/129/70
f 16/152/71 19/141/71 55/145/71 53/153/71
f 12/154/72 6/155/72 34/156/72 44/157/72
f 29/158/73 33/139/73 66/140/73 72/57/73 64/56/73
f 21/159/74 110/160/74 112/161/74 56/162/74
f 3/163/75 7/164/75 45/165/75 41/166/75
f 4/167/76 21/159/76 56/162/76 39/168/76
f 7/164/77 8/146/77 42/149/77 45/165/77
f 14/169/78 22/123/78 38/126/78 51/170/78
f 11/171/79 9/172/79 47/173/79 46/174/79
f 26/175/80 23/176/80 58/177/80 57/178/80
f 5/179/81 10/180/81 48/181/81 43/182/81
f 27/183/82 24/105/82 60/108/82 59/184/82
f 10/185/83 11/186/83 46/187/83 48/188/83
f 1/102/84 25/189/84 61/190/84 35/103/84
f 9/191/85 12/192/85 44/193/85 47/194/85
f 28/195/86 26/175/86 57/178/86 70/196/86 62/197/86
f 17/132/87 13/198/87 50/199/87 49/133/87
f 25/189/88 27/200/88 59/90/88 73/89/88 61/190/88
f 76/201/89 78/202/89 85/203/89 82/204/89
f 71/205/90 70/206/90 57/49/90
f 68/51/91 71/205/91 57/49/91 61/48/91
f 69/151/92 74/150/92 32/207/92 63/208/92
f 70/209/93 71/210/93 82/211/93 85/212/93
f 67/87/94 72/213/94 66/88/94
f 67/53/95 69/214/95 81/215/95 83/54/95
f 76/201/96 82/204/96 84/216/96
f 79/217/97 80/218/97 86/219/97 83/220/97
f 83/220/98 81/221/98 79/217/98
f 84/216/99 77/222/99 75/223/99 76/201/99
f 59/184/100 60/108/100 76/224/100 75/225/100
f 71/210/101 68/226/101 84/227/101 82/211/101
f 60/108/102 62/107/102 78/228/102 76/224/102
f 68/226/103 73/229/103 77/230/103 84/227/103
f 69/151/104 63/208/104 79/231/104 81/232/104
f 62/197/105 70/196/105 85/233/105 78/234/105
f 63/118/106 64/117/106 80/235/106 79/236/106
f 88/83/107 87/82/107 51/84/107 55/95/107
f 89/237/108 88/238/108 55/239/108
f 90/34/8 19/33/8 14/35/8
f 87/99/109 90/98/109 14/169/109 51/170/109
f 47/60/110 92/69/110 43/68/110
f 92/148/111 91/147/111 5/179/111 43/182/111
f 91/20/112 9/11/112 5/18/112
f 108/240/113 109/241/113 110/27/113 111/26/113
f 94/242/114 106/243/114 93/244/114 98/245/114
f 106/246/115 113/76/115 112/75/115 93/247/115
f 93/244/116 109/248/116 96/249/116 97/250/116
f 93/251/117 97/252/117 98/253/117
f 94/242/118 98/245/118 105/254/118
f 95/255/119 94/256/119 99/257/119
f 96/258/120 107/259/120 95/260/120 100/122/120
f 97/252/121 96/261/121 101/262/121
f 98/253/122 97/252/122 102/263/122
f 94/256/123 105/264/123 103/265/123 99/257/123
f 95/255/124 99/257/124 100/266/124
f 96/258/125 100/122/125 101/267/125
f 97/252/126 101/262/126 102/263/126
f 98/268/127 102/269/127 103/270/127
f 99/271/128 103/270/128 104/272/128
f 100/273/129 99/274/129 104/275/129
f 101/276/130 100/273/130 104/275/130
f 102/277/131 101/276/131 104/275/131
f 103/270/132 102/269/132 104/272/132
f 105/278/133 98/268/133 103/270/133
f 113/279/134 111/280/134 20/135/134 40/138/134
f 107/281/135 108/282/135 95/283/135
f 108/282/136 106/243/136 94/242/136 95/283/136
f 109/248/137 108/282/137 107/281/137 96/249/137
f 109/284/138 93/285/138 112/286/138 110/287/138
f 106/288/139 108/289/139 111/290/139 113/291/139
f 30/36/140 23/3/140 26/6/140
