# Blender 5.1.2
# www.blender.org
mtllib Projector.mtl
o Cube
v -1.205120 -1.009700 1.205120
v -2.000000 0.800000 2.000000
v -1.205120 -1.009700 -1.205120
v -2.000000 0.800000 -2.000000
v 1.205120 -0.792780 1.205120
v 2.000000 0.800000 2.000000
v 1.205120 -0.792780 -1.205120
v 2.000000 0.800000 -2.000000
v -2.106721 -0.000000 -1.622372
v -2.106721 -0.121419 -1.610413
v -2.106721 -0.238172 -1.574997
v -2.106721 -0.345771 -1.517483
v -2.106721 -0.440084 -1.440083
v -2.106721 -0.517483 -1.345771
v -2.106721 -0.574997 -1.238171
v -2.106721 -0.610413 -1.121419
v -2.106721 -0.622372 -1.000000
v -2.106721 -0.610413 -0.878581
v -2.106721 -0.574997 -0.761829
v -2.106721 -0.517483 -0.654229
v -2.106721 -0.440084 -0.559917
v -2.106721 -0.345771 -0.482517
v -2.106721 -0.238172 -0.425003
v -2.106721 -0.121419 -0.389587
v -2.106721 -0.000000 -0.377628
v -2.106721 0.121419 -0.389587
v -2.106721 0.238171 -0.425003
v -2.106721 0.345771 -0.482517
v -2.106721 0.440083 -0.559917
v -2.106721 0.517483 -0.654229
v -2.106721 0.574997 -0.761829
v -2.106721 0.610413 -0.878581
v -2.106721 0.622372 -1.000000
v -2.106721 0.610413 -1.121419
v -2.106721 0.574997 -1.238171
v -2.106721 0.517483 -1.345771
v -2.106721 0.440083 -1.440083
v -2.106721 0.345771 -1.517483
v -2.106721 0.238171 -1.574997
v -2.106721 0.121419 -1.610413
v -2.279104 -0.000000 -1.467847
v -2.279104 -0.107786 -1.457231
v -2.279104 -0.211102 -1.425891
v -2.279104 -0.305601 -1.375380
v -2.279104 -0.387164 -1.308443
v -2.279104 -0.452008 -1.229430
v -2.279104 -0.496971 -1.145311
v -2.279104 -0.520864 -1.066544
v -2.279104 -0.527418 -1.000000
v -2.279104 -0.520864 -0.933456
v -2.279104 -0.496971 -0.854689
v -2.279104 -0.452008 -0.770570
v -2.279104 -0.387164 -0.691557
v -2.279104 -0.305601 -0.624620
v -2.279104 -0.211102 -0.574109
v -2.279104 -0.107786 -0.542769
v -2.279104 -0.000000 -0.532153
v -2.279104 0.107785 -0.542769
v -2.279104 0.211102 -0.574109
v -2.279104 0.305600 -0.624620
v -2.279104 0.387164 -0.691557
v -2.279104 0.452008 -0.770570
v -2.279104 0.496970 -0.854689
v -2.279104 0.520864 -0.933456
v -2.279104 0.527418 -1.000000
v -2.279104 0.520864 -1.066544
v -2.279104 0.496970 -1.145311
v -2.279104 0.452008 -1.229430
v -2.279104 0.387164 -1.308443
v -2.279104 0.305600 -1.375380
v -2.279104 0.211102 -1.425891
v -2.279104 0.107785 -1.457231
v -2.373960 -0.121419 -1.610413
v -2.373960 -0.000000 -1.622372
v -2.373960 -0.238172 -1.574997
v -2.373960 -0.345771 -1.517483
v -2.373960 -0.440084 -1.440083
v -2.373960 -0.517483 -1.345771
v -2.373960 -0.574997 -1.238171
v -2.373960 -0.610413 -1.121419
v -2.373960 -0.622372 -1.000000
v -2.373960 -0.610413 -0.878581
v -2.373960 -0.574997 -0.761829
v -2.373960 -0.517483 -0.654229
v -2.373960 -0.440084 -0.559917
v -2.373960 -0.345771 -0.482517
v -2.373960 -0.238172 -0.425003
v -2.373960 -0.121419 -0.389587
v -2.373960 -0.000000 -0.377628
v -2.373960 0.121419 -0.389587
v -2.373960 0.238171 -0.425003
v -2.373960 0.345771 -0.482517
v -2.373960 0.440083 -0.559917
v -2.373960 0.517483 -0.654229
v -2.373960 0.574997 -0.761829
v -2.373960 0.610413 -0.878581
v -2.373960 0.622372 -1.000000
v -2.373960 0.610413 -1.121419
v -2.373960 0.574997 -1.238171
v -2.373960 0.517483 -1.345771
v -2.373960 0.440083 -1.440083
v -2.373960 0.345771 -1.517483
v -2.373960 0.238171 -1.574997
v -2.373960 0.121419 -1.610413
v -2.000000 -0.800000 -2.000000
v -2.000000 -0.800000 2.000000
v 2.000000 -0.800000 -2.000000
v 2.000000 -0.800000 2.000000
v -1.817181 -1.121706 -1.817181
v -1.817181 -1.121706 1.817181
v 1.817181 -0.904786 -1.817181
v 1.817181 -0.904786 1.817181
vn -0.0000 -0.0000 -1.0000
vn 1.0000 -0.0000 -0.0000
vn -0.0000 -0.0000 1.0000
vn 0.0896 -0.9960 -0.0000
vn -0.0000 1.0000 -0.0000
vn -0.9829 -0.0534 -0.1762
vn -0.9864 -0.0776 -0.1451
vn -0.9872 -0.1011 -0.1232
vn -0.9861 -0.1284 -0.1054
vn -0.9822 -0.1658 -0.0886
vn -0.9714 -0.2273 -0.0689
vn -0.9322 -0.3603 -0.0355
vn -0.8714 -0.4905 -0.0000
vn -0.5938 0.8008 0.0789
vn -0.9945 -0.0999 0.0303
vn -0.9735 -0.0224 -0.2276
vn -0.5938 -0.8008 0.0789
vn -0.9984 -0.0433 0.0355
vn -0.9988 -0.0306 0.0373
vn -0.9990 -0.0209 0.0391
vn -0.9990 -0.0000 0.0448
vn -0.9991 -0.0125 0.0411
vn -0.9623 -0.0000 -0.2720
vn -0.9990 -0.0043 0.0434
vn -0.9735 0.0224 -0.2276
vn -0.9990 0.0043 0.0434
vn -0.9829 0.0534 -0.1762
vn -0.9991 0.0125 0.0411
vn -0.9864 0.0776 -0.1451
vn -0.9990 0.0209 0.0391
vn -0.9872 0.1011 -0.1232
vn -0.9988 0.0306 0.0373
vn -0.9861 0.1284 -0.1054
vn -0.9984 0.0433 0.0355
vn -0.9822 0.1658 -0.0886
vn -0.9975 0.0626 0.0334
vn -0.9714 0.2273 -0.0689
vn -0.9945 0.0999 0.0303
vn -0.9322 0.3603 -0.0355
vn -0.8714 0.4905 -0.0000
vn -0.9975 -0.0626 0.0334
vn -0.0000 -0.2903 -0.9569
vn -0.0000 0.6344 -0.7730
vn -0.0000 -0.0980 0.9952
vn -0.0000 -0.4714 -0.8819
vn -0.0000 0.4714 -0.8819
vn -0.0000 0.0980 0.9952
vn -0.0000 -0.6344 -0.7730
vn -0.0000 0.2903 -0.9569
vn -0.0000 0.2903 0.9569
vn -0.0000 -0.7730 -0.6344
vn -0.0000 0.0980 -0.9952
vn -0.0000 0.4714 0.8819
vn -0.0000 -0.8819 -0.4714
vn -0.0000 0.6344 0.7730
vn -0.0000 -0.9569 -0.2903
vn -0.0000 0.7730 0.6344
vn -0.0000 -0.9952 -0.0980
vn -0.0000 0.8819 0.4714
vn -0.0000 -0.9952 0.0980
vn -0.0000 0.9569 0.2903
vn -0.0000 -0.9569 0.2903
vn -0.0000 0.9952 0.0980
vn -0.0000 -0.8819 0.4714
vn -0.0000 0.9952 -0.0980
vn -0.0000 -0.7730 0.6344
vn -0.0000 0.9569 -0.2903
vn -0.0000 -0.6344 0.7730
vn -0.0000 0.8819 -0.4714
vn -0.0000 -0.4714 0.8819
vn -0.0000 -0.0980 -0.9952
vn -0.0000 0.7730 -0.6344
vn -0.0000 -0.2903 0.9569
vn -1.0000 -0.0000 -0.0000
vn -0.8511 0.0515 0.5225
vn -0.8461 0.1547 0.5101
vn -0.8356 0.2590 0.4845
vn -0.8189 0.3641 0.4437
vn -0.7952 0.4687 0.3846
vn -0.7648 0.5682 0.3037
vn -0.7310 0.6530 0.1981
vn -0.7058 0.7050 0.0694
vn -0.7058 0.7050 -0.0694
vn -0.7310 0.6530 -0.1981
vn -0.7648 0.5682 -0.3037
vn -0.7952 0.4687 -0.3846
vn -0.8189 0.3641 -0.4437
vn -0.8356 0.2590 -0.4845
vn -0.8461 0.1547 -0.5101
vn -0.8511 0.0515 -0.5225
vn -0.8511 -0.0515 -0.5225
vn -0.8461 -0.1547 -0.5101
vn -0.8356 -0.2590 -0.4845
vn -0.8189 -0.3641 -0.4437
vn -0.7952 -0.4687 -0.3846
vn -0.7648 -0.5682 -0.3037
vn -0.7310 -0.6530 -0.1981
vn -0.7058 -0.7050 -0.0694
vn -0.7058 -0.7050 0.0694
vn -0.7310 -0.6530 0.1981
vn -0.7648 -0.5682 0.3037
vn -0.7952 -0.4687 0.3846
vn -0.8189 -0.3641 0.4437
vn -0.8356 -0.2590 0.4845
vn -0.8461 -0.1547 0.5101
vn -0.8511 -0.0515 0.5225
vn -0.8694 -0.4941 -0.0000
vn 0.0185 -0.6508 -0.7591
vn 0.4973 -0.8676 -0.0000
vn 0.0185 -0.6508 0.7591
vn 0.1800 -0.9837 -0.0000
vn 0.0704 -0.9812 0.1796
vn -0.1800 -0.9837 -0.0000
vn 0.0704 -0.9812 -0.1796
vt 0.375000 0.250000
vt 0.625000 0.250000
vt 0.625000 0.500000
vt 0.375000 0.500000
vt 0.625000 0.750000
vt 0.375000 0.750000
vt 0.625000 1.000000
vt 0.375000 1.000000
vt 0.153935 0.528935
vt 0.346065 0.528935
vt 0.346065 0.721065
vt 0.153935 0.721065
vt 0.875000 0.500000
vt 0.875000 0.750000
vt 0.000000 0.000000
vt 0.136426 0.511426
vt 0.136426 0.738574
vt 0.125000 0.750000
vt 0.125000 0.500000
vt 0.363574 0.511426
vt 0.363574 0.738574
s 0
f 105/1/1 4/2/1 8/3/1 107/4/1
f 107/4/2 8/3/2 6/5/2 108/6/2
f 108/6/3 6/5/3 2/7/3 106/8/3
f 3/9/4 7/10/4 5/11/4 1/12/4
f 8/3/5 4/13/5 2/14/5 6/5/5
f 11/15/6 10/15/6 105/15/6
f 11/15/7 105/15/7 12/15/7
f 12/15/8 105/15/8 13/15/8
f 13/15/9 105/15/9 14/15/9
f 14/15/10 105/15/10 15/15/10
f 15/15/11 105/15/11 16/15/11
f 16/15/12 105/15/12 17/15/12
f 106/15/13 18/15/13 105/15/13
f 4/15/14 33/15/14 32/15/14
f 18/15/15 106/15/15 19/15/15
f 105/15/16 10/15/16 9/15/16
f 18/15/17 17/15/17 105/15/17
f 20/15/18 106/15/18 21/15/18
f 21/15/19 106/15/19 22/15/19
f 22/15/20 106/15/20 23/15/20
f 106/15/21 2/15/21 25/15/21
f 23/15/22 106/15/22 24/15/22
f 4/15/23 105/15/23 9/15/23
f 24/15/24 106/15/24 25/15/24
f 4/15/25 9/15/25 40/15/25
f 26/15/26 25/15/26 2/15/26
f 4/15/27 40/15/27 39/15/27
f 27/15/28 26/15/28 2/15/28
f 4/15/29 39/15/29 38/15/29
f 28/15/30 27/15/30 2/15/30
f 4/15/31 38/15/31 37/15/31
f 29/15/32 28/15/32 2/15/32
f 4/15/33 37/15/33 36/15/33
f 30/15/34 29/15/34 2/15/34
f 4/15/35 36/15/35 35/15/35
f 31/15/36 30/15/36 2/15/36
f 4/15/37 35/15/37 34/15/37
f 32/15/38 31/15/38 2/15/38
f 4/15/39 34/15/39 33/15/39
f 2/15/40 4/15/40 32/15/40
f 20/15/41 19/15/41 106/15/41
f 10/15/42 11/15/42 75/15/42 73/15/42
f 37/15/43 38/15/43 102/15/43 101/15/43
f 24/15/44 25/15/44 89/15/44 88/15/44
f 11/15/45 12/15/45 76/15/45 75/15/45
f 38/15/46 39/15/46 103/15/46 102/15/46
f 25/15/47 26/15/47 90/15/47 89/15/47
f 12/15/48 13/15/48 77/15/48 76/15/48
f 39/15/49 40/15/49 104/15/49 103/15/49
f 26/15/50 27/15/50 91/15/50 90/15/50
f 13/15/51 14/15/51 78/15/51 77/15/51
f 40/15/52 9/15/52 74/15/52 104/15/52
f 27/15/53 28/15/53 92/15/53 91/15/53
f 14/15/54 15/15/54 79/15/54 78/15/54
f 28/15/55 29/15/55 93/15/55 92/15/55
f 15/15/56 16/15/56 80/15/56 79/15/56
f 29/15/57 30/15/57 94/15/57 93/15/57
f 16/15/58 17/15/58 81/15/58 80/15/58
f 30/15/59 31/15/59 95/15/59 94/15/59
f 17/15/60 18/15/60 82/15/60 81/15/60
f 31/15/61 32/15/61 96/15/61 95/15/61
f 18/15/62 19/15/62 83/15/62 82/15/62
f 32/15/63 33/15/63 97/15/63 96/15/63
f 19/15/64 20/15/64 84/15/64 83/15/64
f 33/15/65 34/15/65 98/15/65 97/15/65
f 20/15/66 21/15/66 85/15/66 84/15/66
f 34/15/67 35/15/67 99/15/67 98/15/67
f 21/15/68 22/15/68 86/15/68 85/15/68
f 35/15/69 36/15/69 100/15/69 99/15/69
f 22/15/70 23/15/70 87/15/70 86/15/70
f 9/15/71 10/15/71 73/15/71 74/15/71
f 36/15/72 37/15/72 101/15/72 100/15/72
f 23/15/73 24/15/73 88/15/73 87/15/73
f 42/15/74 43/15/74 44/15/74 45/15/74 46/15/74 47/15/74 48/15/74 49/15/74 50/15/74 51/15/74 52/15/74 53/15/74 54/15/74 55/15/74 56/15/74 57/15/74 58/15/74 59/15/74 60/15/74 61/15/74 62/15/74 63/15/74 64/15/74 65/15/74 66/15/74 67/15/74 68/15/74 69/15/74 70/15/74 71/15/74 72/15/74 41/15/74
f 42/15/75 41/15/75 74/15/75 73/15/75
f 43/15/76 42/15/76 73/15/76 75/15/76
f 44/15/77 43/15/77 75/15/77 76/15/77
f 45/15/78 44/15/78 76/15/78 77/15/78
f 46/15/79 45/15/79 77/15/79 78/15/79
f 47/15/80 46/15/80 78/15/80 79/15/80
f 48/15/81 47/15/81 79/15/81 80/15/81
f 49/15/82 48/15/82 80/15/82 81/15/82
f 50/15/83 49/15/83 81/15/83 82/15/83
f 51/15/84 50/15/84 82/15/84 83/15/84
f 52/15/85 51/15/85 83/15/85 84/15/85
f 53/15/86 52/15/86 84/15/86 85/15/86
f 54/15/87 53/15/87 85/15/87 86/15/87
f 55/15/88 54/15/88 86/15/88 87/15/88
f 56/15/89 55/15/89 87/15/89 88/15/89
f 57/15/90 56/15/90 88/15/90 89/15/90
f 58/15/91 57/15/91 89/15/91 90/15/91
f 59/15/92 58/15/92 90/15/92 91/15/92
f 60/15/93 59/15/93 91/15/93 92/15/93
f 61/15/94 60/15/94 92/15/94 93/15/94
f 62/15/95 61/15/95 93/15/95 94/15/95
f 63/15/96 62/15/96 94/15/96 95/15/96
f 64/15/97 63/15/97 95/15/97 96/15/97
f 65/15/98 64/15/98 96/15/98 97/15/98
f 66/15/99 65/15/99 97/15/99 98/15/99
f 67/15/100 66/15/100 98/15/100 99/15/100
f 68/15/101 67/15/101 99/15/101 100/15/101
f 69/15/102 68/15/102 100/15/102 101/15/102
f 70/15/103 69/15/103 101/15/103 102/15/103
f 71/15/104 70/15/104 102/15/104 103/15/104
f 72/15/105 71/15/105 103/15/105 104/15/105
f 41/15/106 72/15/106 104/15/106 74/15/106
f 109/16/107 110/17/107 106/18/107 105/19/107
f 111/20/108 109/16/108 105/19/108 107/4/108
f 112/21/109 111/20/109 107/4/109 108/6/109
f 110/17/110 112/21/110 108/6/110 106/18/110
f 3/9/111 1/12/111 110/17/111 109/16/111
f 7/10/112 3/9/112 109/16/112 111/20/112
f 5/11/113 7/10/113 111/20/113 112/21/113
f 1/12/114 5/11/114 112/21/114 110/17/114
