# Blender 5.1.2
# www.blender.org
mtllib StandardDesk.mtl
o Cube
v 2.000000 1.100000 -1.000000
v 2.000000 0.900000 -1.000000
v 2.000000 1.100000 1.000000
v 2.000000 0.900000 1.000000
v -2.000000 1.100000 -1.000000
v -2.000000 0.900000 -1.000000
v -2.000000 1.100000 1.000000
v -2.000000 0.900000 1.000000
v 0.000000 0.900000 -1.000000
v 0.000000 1.100000 1.000000
v 0.000000 0.900000 1.000000
v 0.000000 1.100000 -1.000000
v -1.000000 0.900000 -1.000000
v -1.000000 1.100000 1.000000
v -1.000000 0.900000 1.000000
v -1.000000 1.100000 -1.000000
v 1.000000 0.900000 1.000000
v 1.000000 1.100000 -1.000000
v 1.000000 0.900000 -1.000000
v 1.000000 1.100000 1.000000
v 1.500000 0.900000 1.000000
v 1.500000 1.100000 -1.000000
v 1.500000 0.900000 -1.000000
v 1.500000 1.100000 1.000000
v -1.500000 0.900000 -1.000000
v -1.500000 1.100000 1.000000
v -1.500000 0.900000 1.000000
v -1.500000 1.100000 -1.000000
v -1.750000 0.900000 -1.000000
v -1.750000 1.100000 1.000000
v -1.750000 0.900000 1.000000
v -1.750000 1.100000 -1.000000
v 1.750000 0.900000 1.000000
v 1.750000 1.100000 -1.000000
v 1.750000 0.900000 -1.000000
v 1.750000 1.100000 1.000000
v -2.000000 -0.100000 -1.000000
v -2.000000 -0.100000 1.000000
v -1.750000 -0.100000 -1.000000
v 1.750000 -0.100000 1.000000
v 2.000000 -0.100000 1.000000
v 2.000000 -0.100000 -1.000000
v -1.750000 -0.100000 1.000000
v 1.750000 -0.100000 -1.000000
vn -0.0000 1.0000 -0.0000
vn -0.0000 -0.0000 1.0000
vn -1.0000 -0.0000 -0.0000
vn 1.0000 -0.0000 -0.0000
vn -0.0000 -0.0000 -1.0000
vn -0.0000 -1.0000 -0.0000
vt 0.859375 0.500000
vt 0.875000 0.500000
vt 0.875000 0.750000
vt 0.859375 0.750000
vt 0.375000 0.984375
vt 0.625000 0.984375
vt 0.625000 1.000000
vt 0.375000 1.000000
vt 0.375000 0.000000
vt 0.625000 0.000000
vt 0.625000 0.250000
vt 0.375000 0.250000
vt 0.375000 0.750000
vt 0.375000 0.765625
vt 0.375000 0.500000
vt 0.625000 0.500000
vt 0.625000 0.750000
vt 0.375000 0.484375
vt 0.625000 0.484375
vt 0.375000 0.312500
vt 0.625000 0.312500
vt 0.625000 0.375000
vt 0.375000 0.375000
vt 0.187500 0.500000
vt 0.250000 0.500000
vt 0.250000 0.750000
vt 0.187500 0.750000
vt 0.375000 0.812500
vt 0.625000 0.812500
vt 0.625000 0.875000
vt 0.375000 0.875000
vt 0.687500 0.500000
vt 0.750000 0.500000
vt 0.750000 0.750000
vt 0.687500 0.750000
vt 0.156250 0.500000
vt 0.156250 0.750000
vt 0.375000 0.281250
vt 0.625000 0.281250
vt 0.625000 0.937500
vt 0.375000 0.937500
vt 0.812500 0.500000
vt 0.812500 0.750000
vt 0.656250 0.500000
vt 0.656250 0.750000
vt 0.375000 0.781250
vt 0.625000 0.781250
vt 0.625000 0.437500
vt 0.375000 0.437500
vt 0.312500 0.500000
vt 0.312500 0.750000
vt 0.625000 0.765625
vt 0.640625 0.500000
vt 0.640625 0.750000
vt 0.625000 0.468750
vt 0.375000 0.468750
vt 0.343750 0.500000
vt 0.343750 0.750000
vt 0.375000 0.265625
vt 0.625000 0.265625
vt 0.140625 0.500000
vt 0.140625 0.750000
vt 0.625000 0.968750
vt 0.375000 0.968750
vt 0.843750 0.500000
vt 0.843750 0.750000
vt 0.359375 0.500000
vt 0.359375 0.750000
vt 0.125000 0.500000
vt 0.125000 0.750000
s 0
usemtl Material
f 32/1/1 5/2/1 7/3/1 30/4/1
f 31/5/2 30/6/2 7/7/2 8/8/2
f 8/9/3 7/10/3 5/11/3 6/12/3
f 4/13/2 33/14/2 40/14/2 41/13/2
f 2/15/4 1/16/4 3/17/4 4/13/4
f 35/18/5 34/19/5 1/16/5 2/15/5
f 13/20/5 16/21/5 12/22/5 9/23/5
f 13/24/6 9/25/6 11/26/6 15/27/6
f 17/28/2 20/29/2 10/30/2 11/31/2
f 18/32/1 12/33/1 10/34/1 20/35/1
f 25/36/6 13/24/6 15/27/6 27/37/6
f 25/38/5 28/39/5 16/21/5 13/20/5
f 11/31/2 10/30/2 14/40/2 15/41/2
f 12/33/1 16/42/1 14/43/1 10/34/1
f 22/44/1 18/32/1 20/35/1 24/45/1
f 21/46/2 24/47/2 20/29/2 17/28/2
f 9/23/5 12/22/5 18/48/5 19/49/5
f 9/25/6 19/50/6 17/51/6 11/26/6
f 33/14/2 36/52/2 24/47/2 21/46/2
f 34/53/1 22/44/1 24/45/1 36/54/1
f 19/49/5 18/48/5 22/55/5 23/56/5
f 19/50/6 23/57/6 21/58/6 17/51/6
f 29/59/5 32/60/5 28/39/5 25/38/5
f 29/61/6 25/36/6 27/37/6 31/62/6
f 15/41/2 14/40/2 26/63/2 27/64/2
f 16/42/1 28/65/1 26/66/1 14/43/1
f 31/5/2 8/8/2 38/8/2 43/5/2
f 6/12/5 5/11/5 32/60/5 29/59/5
f 27/64/2 26/63/2 30/6/2 31/5/2
f 28/65/1 32/1/1 30/4/1 26/66/1
f 1/16/1 34/53/1 36/54/1 3/17/1
f 4/13/2 3/17/2 36/52/2 33/14/2
f 23/56/5 22/55/5 34/19/5 35/18/5
f 23/57/6 35/67/6 33/68/6 21/58/6
f 44/67/6 42/15/6 41/13/6 40/68/6
f 37/69/6 39/61/6 43/62/6 38/70/6
f 8/9/3 6/12/3 37/12/3 38/9/3
f 2/15/4 4/13/4 41/13/4 42/15/4
f 35/18/5 2/15/5 42/15/5 44/18/5
f 33/68/3 35/67/3 44/67/3 40/68/3
f 29/61/4 31/62/4 43/62/4 39/61/4
f 6/12/5 29/59/5 39/59/5 37/12/5
