# Blender 5.1.2
# www.blender.org
mtllib TableWarehouse2.mtl
o Cube.001
v 3.989700 0.069335 -1.980000
v 3.989700 -0.069335 -1.980000
v 3.989700 0.069335 1.980000
v 3.989700 -0.069335 1.980000
v -3.989700 0.069335 -1.980000
v -3.989700 -0.069335 -1.980000
v -3.989700 0.069335 1.980000
v -3.989700 -0.069335 1.980000
v 3.989700 3.069335 -1.980000
v 3.989700 2.930665 -1.980000
v 3.989700 3.069335 1.980000
v 3.989700 2.930665 1.980000
v -3.989700 3.069335 -1.980000
v -3.989700 2.930665 -1.980000
v -3.989700 3.069335 1.980000
v -3.989700 2.930665 1.980000
v -3.340412 2.971417 -1.383887
v -3.340412 0.028583 -1.383887
v -3.340412 2.971417 -1.700688
v -3.340412 0.028583 -1.700688
v -3.659588 2.971417 -1.383887
v -3.659588 0.028583 -1.383887
v -3.659588 2.971417 -1.700688
v -3.659588 0.028583 -1.700688
v -3.340412 2.971417 1.777078
v -3.340412 0.028583 1.777078
v -3.340412 2.971417 1.460278
v -3.340412 0.028583 1.460278
v -3.659588 2.971417 1.777078
v -3.659588 0.028583 1.777078
v -3.659588 2.971417 1.460278
v -3.659588 0.028583 1.460278
v 3.696755 2.971417 1.777078
v 3.696755 0.028583 1.777078
v 3.696755 2.971417 1.460278
v 3.696755 0.028583 1.460278
v 3.377579 2.971417 1.777078
v 3.377579 0.028583 1.777078
v 3.377579 2.971417 1.460278
v 3.377579 0.028583 1.460278
v 3.696755 2.971417 -1.383887
v 3.696755 0.028583 -1.383887
v 3.696755 2.971417 -1.700688
v 3.696755 0.028583 -1.700688
v 3.377579 2.971417 -1.383887
v 3.377579 0.028583 -1.383887
v 3.377579 2.971417 -1.700688
v 3.377579 0.028583 -1.700688
v 3.696755 -0.054673 -1.383887
v 3.696755 -2.997507 -1.383887
v 3.696755 -0.054673 -1.700688
v 3.696755 -2.997507 -1.700688
v 3.377579 -0.054673 -1.383887
v 3.377579 -2.997507 -1.383887
v 3.377579 -0.054673 -1.700688
v 3.377579 -2.997507 -1.700688
v 3.696755 -0.054673 1.777078
v 3.696755 -2.997507 1.777078
v 3.696755 -0.054673 1.460278
v 3.696755 -2.997507 1.460278
v 3.377579 -0.054673 1.777078
v 3.377579 -2.997507 1.777078
v 3.377579 -0.054673 1.460278
v 3.377579 -2.997507 1.460278
v -3.340412 -0.054673 1.777078
v -3.340412 -2.997507 1.777078
v -3.340412 -0.054673 1.460278
v -3.340412 -2.997507 1.460278
v -3.659588 -0.054673 1.777078
v -3.659588 -2.997507 1.777078
v -3.659588 -0.054673 1.460278
v -3.659588 -2.997507 1.460278
v -3.340412 -0.054673 -1.383887
v -3.340412 -2.997507 -1.383887
v -3.340412 -0.054673 -1.700688
v -3.340412 -2.997507 -1.700688
v -3.659588 -0.054673 -1.383887
v -3.659588 -2.997507 -1.383887
v -3.659588 -0.054673 -1.700688
v -3.659588 -2.997507 -1.700688
vn -0.0000 1.0000 -0.0000
vn -0.0000 -0.0000 1.0000
vn -1.0000 -0.0000 -0.0000
vn -0.0000 -1.0000 -0.0000
vn 1.0000 -0.0000 -0.0000
vn -0.0000 -0.0000 -1.0000
vt 0.625000 0.500000
vt 0.875000 0.500000
vt 0.875000 0.750000
vt 0.625000 0.750000
vt 0.375000 0.750000
vt 0.625000 1.000000
vt 0.375000 1.000000
vt 0.375000 0.000000
vt 0.625000 0.000000
vt 0.625000 0.250000
vt 0.375000 0.250000
vt 0.125000 0.500000
vt 0.375000 0.500000
vt 0.125000 0.750000
s 1
usemtl Material.001
f 1/1/1 5/2/1 7/3/1 3/4/1
f 4/5/2 3/4/2 7/6/2 8/7/2
f 8/8/3 7/9/3 5/10/3 6/11/3
f 6/12/4 2/13/4 4/5/4 8/14/4
f 2/13/5 1/1/5 3/4/5 4/5/5
f 6/11/6 5/10/6 1/1/6 2/13/6
usemtl Material.002
f 9/1/1 13/2/1 15/3/1 11/4/1
f 12/5/2 11/4/2 15/6/2 16/7/2
f 16/8/3 15/9/3 13/10/3 14/11/3
f 14/12/4 10/13/4 12/5/4 16/14/4
f 10/13/5 9/1/5 11/4/5 12/5/5
f 14/11/6 13/10/6 9/1/6 10/13/6
usemtl Material.003
f 17/1/1 19/4/1 23/3/1 21/2/1
f 20/5/6 24/7/6 23/6/6 19/4/6
f 24/8/3 22/11/3 21/10/3 23/9/3
f 22/12/4 24/14/4 20/5/4 18/13/4
f 18/13/5 20/5/5 19/4/5 17/1/5
f 22/11/2 18/13/2 17/1/2 21/10/2
usemtl Material.004
f 25/1/1 27/4/1 31/3/1 29/2/1
f 28/5/6 32/7/6 31/6/6 27/4/6
f 32/8/3 30/11/3 29/10/3 31/9/3
f 30/12/4 32/14/4 28/5/4 26/13/4
f 26/13/5 28/5/5 27/4/5 25/1/5
f 30/11/2 26/13/2 25/1/2 29/10/2
usemtl Material.005
f 33/1/1 35/4/1 39/3/1 37/2/1
f 36/5/6 40/7/6 39/6/6 35/4/6
f 40/8/3 38/11/3 37/10/3 39/9/3
f 38/12/4 40/14/4 36/5/4 34/13/4
f 34/13/5 36/5/5 35/4/5 33/1/5
f 38/11/2 34/13/2 33/1/2 37/10/2
usemtl Material.006
f 41/1/1 43/4/1 47/3/1 45/2/1
f 44/5/6 48/7/6 47/6/6 43/4/6
f 48/8/3 46/11/3 45/10/3 47/9/3
f 46/12/4 48/14/4 44/5/4 42/13/4
f 42/13/5 44/5/5 43/4/5 41/1/5
f 46/11/2 42/13/2 41/1/2 45/10/2
usemtl Material.007
f 49/1/1 51/4/1 55/3/1 53/2/1
f 52/5/6 56/7/6 55/6/6 51/4/6
f 56/8/3 54/11/3 53/10/3 55/9/3
f 54/12/4 56/14/4 52/5/4 50/13/4
f 50/13/5 52/5/5 51/4/5 49/1/5
f 54/11/2 50/13/2 49/1/2 53/10/2
usemtl Material.008
f 57/1/1 59/4/1 63/3/1 61/2/1
f 60/5/6 64/7/6 63/6/6 59/4/6
f 64/8/3 62/11/3 61/10/3 63/9/3
f 62/12/4 64/14/4 60/5/4 58/13/4
f 58/13/5 60/5/5 59/4/5 57/1/5
f 62/11/2 58/13/2 57/1/2 61/10/2
usemtl Material.009
f 65/1/1 67/4/1 71/3/1 69/2/1
f 68/5/6 72/7/6 71/6/6 67/4/6
f 72/8/3 70/11/3 69/10/3 71/9/3
f 70/12/4 72/14/4 68/5/4 66/13/4
f 66/13/5 68/5/5 67/4/5 65/1/5
f 70/11/2 66/13/2 65/1/2 69/10/2
usemtl Material.010
f 73/1/1 75/4/1 79/3/1 77/2/1
f 76/5/6 80/7/6 79/6/6 75/4/6
f 80/8/3 78/11/3 77/10/3 79/9/3
f 78/12/4 80/14/4 76/5/4 74/13/4
f 74/13/5 76/5/5 75/4/5 73/1/5
f 78/11/2 74/13/2 73/1/2 77/10/2
