# Blender 5.1.2
# www.blender.org
mtllib TableWarehouse.mtl
o Cube
v 3.989700 0.069335 -1.980000
v 3.989700 -0.069335 -1.980000
v 3.989700 0.069335 1.980000
v 3.989700 -0.069335 1.980000
v -3.989700 0.069335 -1.980000
v -3.989700 -0.069335 -1.980000
v -3.989700 0.069335 1.980000
v -3.989700 -0.069335 1.980000
vn -0.0000 1.0000 -0.0000
vn -0.0000 -0.0000 1.0000
vn -1.0000 -0.0000 -0.0000
vn -0.0000 -1.0000 -0.0000
vn 1.0000 -0.0000 -0.0000
vn -0.0000 -0.0000 -1.0000
vt 0.625000 0.500000
vt 0.875000 0.500000
vt 0.875000 0.750000
vt 0.625000 0.750000
vt 0.375000 0.750000
vt 0.625000 1.000000
vt 0.375000 1.000000
vt 0.375000 0.000000
vt 0.625000 0.000000
vt 0.625000 0.250000
vt 0.375000 0.250000
vt 0.125000 0.500000
vt 0.375000 0.500000
vt 0.125000 0.750000
s 0
usemtl Material
f 1/1/1 5/2/1 7/3/1 3/4/1
f 4/5/2 3/4/2 7/6/2 8/7/2
f 8/8/3 7/9/3 5/10/3 6/11/3
f 6/12/4 2/13/4 4/5/4 8/14/4
f 2/13/5 1/1/5 3/4/5 4/5/5
f 6/11/6 5/10/6 1/1/6 2/13/6
o Cube.001
v 3.989700 3.069335 -1.980000
v 3.989700 2.930665 -1.980000
v 3.989700 3.069335 1.980000
v 3.989700 2.930665 1.980000
v -3.989700 3.069335 -1.980000
v -3.989700 2.930665 -1.980000
v -3.989700 3.069335 1.980000
v -3.989700 2.930665 1.980000
vn -0.0000 1.0000 -0.0000
vn -0.0000 -0.0000 1.0000
vn -1.0000 -0.0000 -0.0000
vn -0.0000 -1.0000 -0.0000
vn 1.0000 -0.0000 -0.0000
vn -0.0000 -0.0000 -1.0000
vt 0.625000 0.500000
vt 0.875000 0.500000
vt 0.875000 0.750000
vt 0.625000 0.750000
vt 0.375000 0.750000
vt 0.625000 1.000000
vt 0.375000 1.000000
vt 0.375000 0.000000
vt 0.625000 0.000000
vt 0.625000 0.250000
vt 0.375000 0.250000
vt 0.125000 0.500000
vt 0.375000 0.500000
vt 0.125000 0.750000
s 0
usemtl Material.001
f 9/15/7 13/16/7 15/17/7 11/18/7
f 12/19/8 11/18/8 15/20/8 16/21/8
f 16/22/9 15/23/9 13/24/9 14/25/9
f 14/26/10 10/27/10 12/19/10 16/28/10
f 10/27/11 9/15/11 11/18/11 12/19/11
f 14/25/12 13/24/12 9/15/12 10/27/12
o Cube.002
v -3.340412 2.971417 -1.383887
v -3.340412 0.028583 -1.383887
v -3.340412 2.971417 -1.700688
v -3.340412 0.028583 -1.700688
v -3.659588 2.971417 -1.383887
v -3.659588 0.028583 -1.383887
v -3.659588 2.971417 -1.700688
v -3.659588 0.028583 -1.700688
vn -0.0000 1.0000 -0.0000
vn -0.0000 -0.0000 -1.0000
vn -1.0000 -0.0000 -0.0000
vn -0.0000 -1.0000 -0.0000
vn 1.0000 -0.0000 -0.0000
vn -0.0000 -0.0000 1.0000
vt 0.625000 0.500000
vt 0.875000 0.500000
vt 0.875000 0.750000
vt 0.625000 0.750000
vt 0.375000 0.750000
vt 0.625000 1.000000
vt 0.375000 1.000000
vt 0.375000 0.000000
vt 0.625000 0.000000
vt 0.625000 0.250000
vt 0.375000 0.250000
vt 0.125000 0.500000
vt 0.375000 0.500000
vt 0.125000 0.750000
s 0
usemtl Material.002
f 17/29/13 19/32/13 23/31/13 21/30/13
f 20/33/14 24/35/14 23/34/14 19/32/14
f 24/36/15 22/39/15 21/38/15 23/37/15
f 22/40/16 24/42/16 20/33/16 18/41/16
f 18/41/17 20/33/17 19/32/17 17/29/17
f 22/39/18 18/41/18 17/29/18 21/38/18
o Cube.003
v -3.340412 2.971417 1.777078
v -3.340412 0.028583 1.777078
v -3.340412 2.971417 1.460278
v -3.340412 0.028583 1.460278
v -3.659588 2.971417 1.777078
v -3.659588 0.028583 1.777078
v -3.659588 2.971417 1.460278
v -3.659588 0.028583 1.460278
vn -0.0000 1.0000 -0.0000
vn -0.0000 -0.0000 -1.0000
vn -1.0000 -0.0000 -0.0000
vn -0.0000 -1.0000 -0.0000
vn 1.0000 -0.0000 -0.0000
vn -0.0000 -0.0000 1.0000
vt 0.625000 0.500000
vt 0.875000 0.500000
vt 0.875000 0.750000
vt 0.625000 0.750000
vt 0.375000 0.750000
vt 0.625000 1.000000
vt 0.375000 1.000000
vt 0.375000 0.000000
vt 0.625000 0.000000
vt 0.625000 0.250000
vt 0.375000 0.250000
vt 0.125000 0.500000
vt 0.375000 0.500000
vt 0.125000 0.750000
s 0
usemtl Material.003
f 25/43/19 27/46/19 31/45/19 29/44/19
f 28/47/20 32/49/20 31/48/20 27/46/20
f 32/50/21 30/53/21 29/52/21 31/51/21
f 30/54/22 32/56/22 28/47/22 26/55/22
f 26/55/23 28/47/23 27/46/23 25/43/23
f 30/53/24 26/55/24 25/43/24 29/52/24
o Cube.004
v 3.696755 2.971417 1.777078
v 3.696755 0.028583 1.777078
v 3.696755 2.971417 1.460278
v 3.696755 0.028583 1.460278
v 3.377579 2.971417 1.777078
v 3.377579 0.028583 1.777078
v 3.377579 2.971417 1.460278
v 3.377579 0.028583 1.460278
vn -0.0000 1.0000 -0.0000
vn -0.0000 -0.0000 -1.0000
vn -1.0000 -0.0000 -0.0000
vn -0.0000 -1.0000 -0.0000
vn 1.0000 -0.0000 -0.0000
vn -0.0000 -0.0000 1.0000
vt 0.625000 0.500000
vt 0.875000 0.500000
vt 0.875000 0.750000
vt 0.625000 0.750000
vt 0.375000 0.750000
vt 0.625000 1.000000
vt 0.375000 1.000000
vt 0.375000 0.000000
vt 0.625000 0.000000
vt 0.625000 0.250000
vt 0.375000 0.250000
vt 0.125000 0.500000
vt 0.375000 0.500000
vt 0.125000 0.750000
s 0
usemtl Material.004
f 33/57/25 35/60/25 39/59/25 37/58/25
f 36/61/26 40/63/26 39/62/26 35/60/26
f 40/64/27 38/67/27 37/66/27 39/65/27
f 38/68/28 40/70/28 36/61/28 34/69/28
f 34/69/29 36/61/29 35/60/29 33/57/29
f 38/67/30 34/69/30 33/57/30 37/66/30
o Cube.005
v 3.696755 2.971417 -1.383887
v 3.696755 0.028583 -1.383887
v 3.696755 2.971417 -1.700688
v 3.696755 0.028583 -1.700688
v 3.377579 2.971417 -1.383887
v 3.377579 0.028583 -1.383887
v 3.377579 2.971417 -1.700688
v 3.377579 0.028583 -1.700688
vn -0.0000 1.0000 -0.0000
vn -0.0000 -0.0000 -1.0000
vn -1.0000 -0.0000 -0.0000
vn -0.0000 -1.0000 -0.0000
vn 1.0000 -0.0000 -0.0000
vn -0.0000 -0.0000 1.0000
vt 0.625000 0.500000
vt 0.875000 0.500000
vt 0.875000 0.750000
vt 0.625000 0.750000
vt 0.375000 0.750000
vt 0.625000 1.000000
vt 0.375000 1.000000
vt 0.375000 0.000000
vt 0.625000 0.000000
vt 0.625000 0.250000
vt 0.375000 0.250000
vt 0.125000 0.500000
vt 0.375000 0.500000
vt 0.125000 0.750000
s 0
usemtl Material.005
f 41/71/31 43/74/31 47/73/31 45/72/31
f 44/75/32 48/77/32 47/76/32 43/74/32
f 48/78/33 46/81/33 45/80/33 47/79/33
f 46/82/34 48/84/34 44/75/34 42/83/34
f 42/83/35 44/75/35 43/74/35 41/71/35
f 46/81/36 42/83/36 41/71/36 45/80/36
o Cube.006
v 3.696755 -0.054673 -1.383887
v 3.696755 -2.997507 -1.383887
v 3.696755 -0.054673 -1.700688
v 3.696755 -2.997507 -1.700688
v 3.377579 -0.054673 -1.383887
v 3.377579 -2.997507 -1.383887
v 3.377579 -0.054673 -1.700688
v 3.377579 -2.997507 -1.700688
vn -0.0000 1.0000 -0.0000
vn -0.0000 -0.0000 -1.0000
vn -1.0000 -0.0000 -0.0000
vn -0.0000 -1.0000 -0.0000
vn 1.0000 -0.0000 -0.0000
vn -0.0000 -0.0000 1.0000
vt 0.625000 0.500000
vt 0.875000 0.500000
vt 0.875000 0.750000
vt 0.625000 0.750000
vt 0.375000 0.750000
vt 0.625000 1.000000
vt 0.375000 1.000000
vt 0.375000 0.000000
vt 0.625000 0.000000
vt 0.625000 0.250000
vt 0.375000 0.250000
vt 0.125000 0.500000
vt 0.375000 0.500000
vt 0.125000 0.750000
s 0
usemtl Material.006
f 49/85/37 51/88/37 55/87/37 53/86/37
f 52/89/38 56/91/38 55/90/38 51/88/38
f 56/92/39 54/95/39 53/94/39 55/93/39
f 54/96/40 56/98/40 52/89/40 50/97/40
f 50/97/41 52/89/41 51/88/41 49/85/41
f 54/95/42 50/97/42 49/85/42 53/94/42
o Cube.007
v 3.696755 -0.054673 1.777078
v 3.696755 -2.997507 1.777078
v 3.696755 -0.054673 1.460278
v 3.696755 -2.997507 1.460278
v 3.377579 -0.054673 1.777078
v 3.377579 -2.997507 1.777078
v 3.377579 -0.054673 1.460278
v 3.377579 -2.997507 1.460278
vn -0.0000 1.0000 -0.0000
vn -0.0000 -0.0000 -1.0000
vn -1.0000 -0.0000 -0.0000
vn -0.0000 -1.0000 -0.0000
vn 1.0000 -0.0000 -0.0000
vn -0.0000 -0.0000 1.0000
vt 0.625000 0.500000
vt 0.875000 0.500000
vt 0.875000 0.750000
vt 0.625000 0.750000
vt 0.375000 0.750000
vt 0.625000 1.000000
vt 0.375000 1.000000
vt 0.375000 0.000000
vt 0.625000 0.000000
vt 0.625000 0.250000
vt 0.375000 0.250000
vt 0.125000 0.500000
vt 0.375000 0.500000
vt 0.125000 0.750000
s 0
usemtl Material.007
f 57/99/43 59/102/43 63/101/43 61/100/43
f 60/103/44 64/105/44 63/104/44 59/102/44
f 64/106/45 62/109/45 61/108/45 63/107/45
f 62/110/46 64/112/46 60/103/46 58/111/46
f 58/111/47 60/103/47 59/102/47 57/99/47
f 62/109/48 58/111/48 57/99/48 61/108/48
o Cube.008
v -3.340412 -0.054673 1.777078
v -3.340412 -2.997507 1.777078
v -3.340412 -0.054673 1.460278
v -3.340412 -2.997507 1.460278
v -3.659588 -0.054673 1.777078
v -3.659588 -2.997507 1.777078
v -3.659588 -0.054673 1.460278
v -3.659588 -2.997507 1.460278
vn -0.0000 1.0000 -0.0000
vn -0.0000 -0.0000 -1.0000
vn -1.0000 -0.0000 -0.0000
vn -0.0000 -1.0000 -0.0000
vn 1.0000 -0.0000 -0.0000
vn -0.0000 -0.0000 1.0000
vt 0.625000 0.500000
vt 0.875000 0.500000
vt 0.875000 0.750000
vt 0.625000 0.750000
vt 0.375000 0.750000
vt 0.625000 1.000000
vt 0.375000 1.000000
vt 0.375000 0.000000
vt 0.625000 0.000000
vt 0.625000 0.250000
vt 0.375000 0.250000
vt 0.125000 0.500000
vt 0.375000 0.500000
vt 0.125000 0.750000
s 0
usemtl Material.008
f 65/113/49 67/116/49 71/115/49 69/114/49
f 68/117/50 72/119/50 71/118/50 67/116/50
f 72/120/51 70/123/51 69/122/51 71/121/51
f 70/124/52 72/126/52 68/117/52 66/125/52
f 66/125/53 68/117/53 67/116/53 65/113/53
f 70/123/54 66/125/54 65/113/54 69/122/54
o Cube.009
v -3.340412 -0.054673 -1.383887
v -3.340412 -2.997507 -1.383887
v -3.340412 -0.054673 -1.700688
v -3.340412 -2.997507 -1.700688
v -3.659588 -0.054673 -1.383887
v -3.659588 -2.997507 -1.383887
v -3.659588 -0.054673 -1.700688
v -3.659588 -2.997507 -1.700688
vn -0.0000 1.0000 -0.0000
vn -0.0000 -0.0000 -1.0000
vn -1.0000 -0.0000 -0.0000
vn -0.0000 -1.0000 -0.0000
vn 1.0000 -0.0000 -0.0000
vn -0.0000 -0.0000 1.0000
vt 0.625000 0.500000
vt 0.875000 0.500000
vt 0.875000 0.750000
vt 0.625000 0.750000
vt 0.375000 0.750000
vt 0.625000 1.000000
vt 0.375000 1.000000
vt 0.375000 0.000000
vt 0.625000 0.000000
vt 0.625000 0.250000
vt 0.375000 0.250000
vt 0.125000 0.500000
vt 0.375000 0.500000
vt 0.125000 0.750000
s 0
usemtl Material.009
f 73/127/55 75/130/55 79/129/55 77/128/55
f 76/131/56 80/133/56 79/132/56 75/130/56
f 80/134/57 78/137/57 77/136/57 79/135/57
f 78/138/58 80/140/58 76/131/58 74/139/58
f 74/139/59 76/131/59 75/130/59 73/127/59
f 78/137/60 74/139/60 73/127/60 77/136/60
