# Blender 5.1.2
# www.blender.org
mtllib TransductorGlows.mtl
o BottomGlow
v -0.000000 0.328110 -1.202100
v 0.772695 0.328110 -0.920862
v 1.183837 0.328110 -0.208742
v 1.041049 0.328110 0.601050
v 0.411142 0.328110 1.129604
v -0.411142 0.328110 1.129604
v -1.041049 0.328110 0.601050
v -1.183837 0.328110 -0.208742
v -0.772695 0.328110 -0.920862
v 0.855733 0.128110 -1.019823
v -0.000000 0.128110 -1.331284
v 1.311059 0.128110 -0.231175
v 1.152926 0.128110 0.665642
v 0.455326 0.326278 1.250998
v -0.455326 0.326278 1.250998
v -1.152926 0.128110 0.665642
v -1.311059 0.128110 -0.231175
v -0.855733 0.128110 -1.019823
vn -0.0000 1.0000 -0.0000
vn 0.2924 0.5189 -0.8033
vn 0.7403 0.5189 -0.4274
vn 0.8419 0.5189 0.1484
vn 0.4764 0.7660 0.4315
vn -0.0000 0.9999 0.0151
vn -0.4764 0.7660 0.4315
vn -0.8419 0.5189 0.1484
vn -0.7403 0.5189 -0.4274
vn -0.2924 0.5189 -0.8033
vt 0.338364 0.355307
vt 0.250000 0.387469
vt 0.161636 0.355307
vt 0.114619 0.273871
vt 0.130948 0.181265
vt 0.202983 0.120821
vt 0.297017 0.120821
vt 0.369052 0.181265
vt 0.385381 0.273871
vt 0.347860 0.366624
vt 0.250000 0.402242
vt 0.399930 0.276437
vt 0.381846 0.173879
vt 0.302070 0.106939
vt 0.197930 0.106939
vt 0.118154 0.173879
vt 0.100070 0.276437
vt 0.152140 0.366624
s 0
f 2/1/1 1/2/1 9/3/1 8/4/1 7/5/1 6/6/1 5/7/1 4/8/1 3/9/1
f 1/2/2 2/1/2 10/10/2 11/11/2
f 2/1/3 3/9/3 12/12/3 10/10/3
f 3/9/4 4/8/4 13/13/4 12/12/4
f 4/8/5 5/7/5 14/14/5 13/13/5
f 5/7/6 6/6/6 15/15/6 14/14/6
f 6/6/7 7/5/7 16/16/7 15/15/7
f 7/5/8 8/4/8 17/17/8 16/16/8
f 8/4/9 9/3/9 18/18/9 17/17/9
f 9/3/10 1/2/10 11/11/10 18/18/10
o TopGlow
v -0.000000 3.671890 -1.202100
v -0.772695 3.671890 -0.920862
v -1.183837 3.671890 -0.208742
v -1.041049 3.671890 0.601050
v -0.411142 3.671890 1.129604
v 0.411142 3.671890 1.129604
v 1.041049 3.671890 0.601050
v 1.183837 3.671890 -0.208742
v 0.772695 3.671890 -0.920862
v -0.855733 3.871890 -1.019823
v -0.000000 3.871890 -1.331284
v -1.311059 3.871890 -0.231175
v -1.152926 3.871890 0.665642
v -0.455326 3.873722 1.250998
v 0.455326 3.873722 1.250998
v 1.152926 3.871890 0.665642
v 1.311059 3.871890 -0.231175
v 0.855733 3.871890 -1.019823
vn -0.0000 -1.0000 -0.0000
vn -0.2924 -0.5189 -0.8033
vn -0.7403 -0.5189 -0.4274
vn -0.8419 -0.5189 0.1484
vn -0.5497 -0.5171 0.6560
vn -0.0000 -0.5154 0.8569
vn 0.5497 -0.5171 0.6560
vn 0.8419 -0.5189 0.1484
vn 0.7403 -0.5189 -0.4274
vn 0.2924 -0.5189 -0.8033
vt 0.338364 0.355307
vt 0.250000 0.387469
vt 0.161636 0.355307
vt 0.114619 0.273871
vt 0.130948 0.181265
vt 0.202983 0.120821
vt 0.297017 0.120821
vt 0.369052 0.181265
vt 0.385381 0.273871
vt 0.347860 0.366624
vt 0.250000 0.402242
vt 0.399930 0.276437
vt 0.381846 0.173879
vt 0.302070 0.106939
vt 0.197930 0.106939
vt 0.118154 0.173879
vt 0.100070 0.276437
vt 0.152140 0.366624
s 0
usemtl Material.001
f 20/19/11 19/20/11 27/21/11 26/22/11 25/23/11 24/24/11 23/25/11 22/26/11 21/27/11
f 19/20/12 20/19/12 28/28/12 29/29/12
f 20/19/13 21/27/13 30/30/13 28/28/13
f 21/27/14 22/26/14 31/31/14 30/30/14
f 22/26/15 23/25/15 32/32/15 31/31/15
f 23/25/16 24/24/16 33/33/16 32/32/16
f 24/24/17 25/23/17 34/34/17 33/33/17
f 25/23/18 26/22/18 35/35/18 34/34/18
f 26/22/19 27/21/19 36/36/19 35/35/19
f 27/21/20 19/20/20 29/29/20 36/36/20
