# Blender 5.1.2
# www.blender.org
mtllib TransductorControl.mtl
o Control
v 0.848462 -0.100816 1.751538
v 0.848462 1.595107 1.707154
v 0.848462 -0.100816 1.448462
v 0.848462 1.809413 1.492847
v 1.151538 -0.100816 1.751538
v 1.151538 1.595107 1.707154
v 1.151538 -0.100816 1.448462
v 1.151538 1.809413 1.492847
v 0.543401 1.520817 2.064285
v 0.543401 2.166545 1.418557
v 1.456599 2.166545 1.418557
v 1.456599 1.520817 2.064285
v 0.556835 1.566304 2.090773
v 0.556835 2.193033 1.464043
v 1.443165 2.193033 1.464043
v 1.443165 1.566304 2.090773
v 0.543401 1.591528 2.134996
v 0.543401 2.237256 1.489268
v 1.456599 2.237256 1.489268
v 1.456599 1.591528 2.134996
vn -1.0000 -0.0000 -0.0000
vn -0.0000 0.0232 -0.9997
vn 1.0000 -0.0000 -0.0000
vn -0.0000 0.0262 0.9997
vn -0.0000 -1.0000 -0.0000
vn -0.5483 -0.5913 -0.5913
vn -0.0000 -0.7071 0.7071
vn -0.0000 -0.9790 -0.2037
vn -0.0000 -0.2037 -0.9790
vn 0.5483 -0.5913 -0.5913
vn -0.0000 0.7071 -0.7071
vn 0.9646 0.1866 0.1866
vn -0.0000 -0.4955 0.8686
vn -0.9646 0.1866 0.1866
vn -0.0000 0.8686 -0.4955
vt 0.375000 0.000000
vt 0.625000 0.000000
vt 0.625000 0.250000
vt 0.375000 0.250000
vt 0.625000 0.500000
vt 0.375000 0.500000
vt 0.625000 0.750000
vt 0.375000 0.750000
vt 0.625000 1.000000
vt 0.375000 1.000000
vt 0.125000 0.500000
vt 0.125000 0.750000
vt 0.858035 0.733035
vt 0.858035 0.516965
vt 0.875000 0.500000
vt 0.875000 0.750000
vt 0.641965 0.516965
vt 0.641965 0.733035
s 0
f 1/1/1 2/2/1 4/3/1 3/4/1
f 3/4/2 4/3/2 8/5/2 7/6/2
f 7/6/3 8/5/3 6/7/3 5/8/3
f 5/8/4 6/7/4 2/9/4 1/10/4
f 3/11/5 7/6/5 5/8/5 1/12/5
f 4/3/6 2/2/6 9/2/6 10/3/6
f 9/9/7 12/7/7 20/7/7 17/9/7
f 2/9/8 6/7/8 12/7/8 9/9/8
f 8/5/9 4/3/9 10/3/9 11/5/9
f 6/7/10 8/5/10 11/5/10 12/7/10
f 11/5/11 10/3/11 18/3/11 19/5/11
f 12/7/3 11/5/3 19/5/3 20/7/3
f 10/3/1 9/2/1 17/2/1 18/3/1
f 13/13/12 14/14/12 18/15/12 17/16/12
f 14/14/13 15/17/13 19/5/13 18/15/13
f 15/17/14 16/18/14 20/7/14 19/5/14
f 16/18/15 13/13/15 17/16/15 20/7/15
o ControlScreen
v 0.556835 1.566304 2.090773
v 0.556835 2.193033 1.464043
v 1.443165 2.193033 1.464043
v 1.443165 1.566304 2.090773
vn -0.0000 0.7071 0.7071
vt 0.641965 0.516965
vt 0.858035 0.516965
vt 0.858035 0.733035
vt 0.641965 0.733035
s 0
f 23/19/16 22/20/16 21/21/16 24/22/16
