# Blender 5.1.2
# www.blender.org
mtllib TransductorChassis.mtl
o Bottom
v 0.000000 -0.100000 -2.000000
v 1.285575 -0.100000 -1.532089
v 1.969615 -0.100000 -0.347296
v 1.732051 -0.100000 1.000000
v 0.684040 -0.100000 1.879385
v -0.684040 -0.100000 1.879385
v -1.732051 -0.100000 1.000000
v -1.969615 -0.100000 -0.347296
v -1.285575 -0.100000 -1.532089
v 1.285575 0.100000 -1.532089
v 0.000000 0.100000 -2.000000
v 1.969615 0.100000 -0.347296
v 1.732051 0.100000 1.000000
v 0.684040 0.100000 1.879385
v -0.684040 0.100000 1.879385
v -1.732051 0.100000 1.000000
v -1.969615 0.100000 -0.347296
v -1.285575 0.100000 -1.532089
v 1.141109 0.305210 -1.359921
v 0.000000 0.305210 -1.775251
v 1.748281 0.305210 -0.308269
v 1.537412 0.305210 0.887625
v 0.607172 0.305210 1.668190
v -0.607172 0.305210 1.668190
v -1.537412 0.305210 0.887625
v -1.748281 0.305210 -0.308269
v -1.141109 0.305210 -1.359921
v 1.020103 0.128110 -1.215711
v -0.000000 0.128110 -1.586999
v 1.562889 0.128110 -0.275579
v 1.374381 0.128110 0.793499
v 0.542785 0.326278 1.491291
v -0.542785 0.326278 1.491291
v -1.374381 0.128110 0.793499
v -1.562889 0.128110 -0.275579
v -1.020103 0.128110 -1.215711
v 0.855733 0.128110 -1.019823
v -0.000000 0.128110 -1.331284
v 1.311059 0.128110 -0.231175
v 1.152926 0.128110 0.665642
v 0.455326 0.326278 1.250998
v -0.455326 0.326278 1.250998
v -1.152926 0.128110 0.665642
v -1.311059 0.128110 -0.231175
v -0.855733 0.128110 -1.019823
vn 0.3420 -0.0000 -0.9397
vn 0.8660 -0.0000 -0.5000
vn 0.9848 -0.0000 0.1736
vn 0.6428 -0.0000 0.7660
vn -0.0000 -0.0000 1.0000
vn -0.6428 -0.0000 0.7660
vn -0.9848 -0.0000 0.1736
vn -0.8660 -0.0000 -0.5000
vn -0.3420 -0.0000 -0.9397
vn -0.0000 -1.0000 -0.0000
vn 0.2383 0.7172 -0.6548
vn 0.6035 0.7172 -0.3484
vn 0.6863 0.7172 0.1210
vn 0.4479 0.7172 0.5338
vn -0.0000 0.7172 0.6969
vn -0.4479 0.7172 0.5338
vn -0.6863 0.7172 0.1210
vn -0.6035 0.7172 -0.3484
vn -0.2383 0.7172 -0.6548
vn -0.2420 0.7067 0.6648
vn -0.6127 0.7067 0.3538
vn -0.6968 0.7067 -0.1229
vn -0.1984 0.9121 -0.3587
vn -0.0000 0.9930 0.1183
vn 0.1984 0.9121 -0.3587
vn 0.6968 0.7067 -0.1229
vn 0.6127 0.7067 0.3538
vn 0.2420 0.7067 0.6648
vn -0.0000 1.0000 -0.0000
vn 0.1492 0.9809 -0.1252
vn -0.1492 0.9809 -0.1252
vt 1.000000 0.500000
vt 1.000000 1.000000
vt 0.888889 1.000000
vt 0.888889 0.500000
vt 0.777778 1.000000
vt 0.777778 0.500000
vt 0.666667 1.000000
vt 0.666667 0.500000
vt 0.555556 1.000000
vt 0.555556 0.500000
vt 0.444444 1.000000
vt 0.444444 0.500000
vt 0.333333 1.000000
vt 0.333333 0.500000
vt 0.222222 1.000000
vt 0.222222 0.500000
vt 0.111111 1.000000
vt 0.111111 0.500000
vt 0.000000 1.000000
vt 0.000000 0.500000
vt 0.750000 0.490000
vt 0.904269 0.433851
vt 0.986354 0.291676
vt 0.957846 0.130000
vt 0.832085 0.024474
vt 0.667915 0.024474
vt 0.542154 0.130000
vt 0.513646 0.291676
vt 0.595731 0.433851
vt 0.250000 0.463030
vt 0.386933 0.413190
vt 0.404269 0.433851
vt 0.250000 0.490000
vt 0.459794 0.286992
vt 0.486354 0.291676
vt 0.434490 0.143485
vt 0.457846 0.130000
vt 0.322861 0.049817
vt 0.332085 0.024474
vt 0.177139 0.049817
vt 0.167915 0.024474
vt 0.065511 0.143485
vt 0.042154 0.130000
vt 0.040206 0.286992
vt 0.013646 0.291676
vt 0.113067 0.413190
vt 0.095731 0.433851
vt 0.250000 0.431485
vt 0.366657 0.389026
vt 0.428728 0.281515
vt 0.407171 0.159257
vt 0.312072 0.079460
vt 0.187928 0.079460
vt 0.092829 0.159257
vt 0.071272 0.281515
vt 0.133343 0.389026
vt 0.250000 0.402242
vt 0.347860 0.366624
vt 0.399930 0.276437
vt 0.381846 0.173879
vt 0.302070 0.106939
vt 0.197930 0.106939
vt 0.118154 0.173879
vt 0.100070 0.276437
vt 0.152140 0.366624
s 0
f 1/1/1 11/2/1 10/3/1 2/4/1
f 2/4/2 10/3/2 12/5/2 3/6/2
f 3/6/3 12/5/3 13/7/3 4/8/3
f 4/8/4 13/7/4 14/9/4 5/10/4
f 5/10/5 14/9/5 15/11/5 6/12/5
f 6/12/6 15/11/6 16/13/6 7/14/6
f 7/14/7 16/13/7 17/15/7 8/16/7
f 8/16/8 17/15/8 18/17/8 9/18/8
f 9/18/9 18/17/9 11/19/9 1/20/9
f 1/21/10 2/22/10 3/23/10 4/24/10 5/25/10 6/26/10 7/27/10 8/28/10 9/29/10
f 20/30/11 19/31/11 10/32/11 11/33/11
f 19/31/12 21/34/12 12/35/12 10/32/12
f 21/34/13 22/36/13 13/37/13 12/35/13
f 22/36/14 23/38/14 14/39/14 13/37/14
f 23/38/15 24/40/15 15/41/15 14/39/15
f 24/40/16 25/42/16 16/43/16 15/41/16
f 25/42/17 26/44/17 17/45/17 16/43/17
f 26/44/18 27/46/18 18/47/18 17/45/18
f 27/46/19 20/30/19 11/33/19 18/47/19
f 29/48/20 28/49/20 19/31/20 20/30/20
f 28/49/21 30/50/21 21/34/21 19/31/21
f 30/50/22 31/51/22 22/36/22 21/34/22
f 31/51/23 32/52/23 23/38/23 22/36/23
f 32/52/24 33/53/24 24/40/24 23/38/24
f 33/53/25 34/54/25 25/42/25 24/40/25
f 34/54/26 35/55/26 26/44/26 25/42/26
f 35/55/27 36/56/27 27/46/27 26/44/27
f 36/56/28 29/48/28 20/30/28 27/46/28
f 38/57/29 37/58/29 28/49/29 29/48/29
f 37/58/29 39/59/29 30/50/29 28/49/29
f 39/59/29 40/60/29 31/51/29 30/50/29
f 40/60/30 41/61/30 32/52/30 31/51/30
f 41/61/29 42/62/29 33/53/29 32/52/29
f 42/62/31 43/63/31 34/54/31 33/53/31
f 43/63/29 44/64/29 35/55/29 34/54/29
f 44/64/29 45/65/29 36/56/29 35/55/29
f 45/65/29 38/57/29 29/48/29 36/56/29
o Top
v -1.285575 3.900000 -1.532089
v -0.000000 3.900000 -2.000000
v -1.969615 3.900000 -0.347296
v -1.732051 3.900000 1.000000
v -0.684040 3.900000 1.879385
v 0.684040 3.900000 1.879385
v 1.732051 3.900000 1.000000
v 1.969615 3.900000 -0.347296
v 1.285575 3.900000 -1.532089
v -1.141109 3.694790 -1.359921
v -0.000000 3.694790 -1.775251
v -1.748281 3.694790 -0.308269
v -1.537412 3.694790 0.887625
v -0.607172 3.694790 1.668190
v 0.607172 3.694790 1.668190
v 1.537412 3.694790 0.887625
v 1.748281 3.694789 -0.308269
v 1.141109 3.694790 -1.359921
v -1.020103 3.871890 -1.215711
v -0.000000 3.871890 -1.586999
v -1.562889 3.871890 -0.275579
v -1.374381 3.871890 0.793499
v -0.542786 3.873722 1.491291
v 0.542785 3.873722 1.491291
v 1.374381 3.871890 0.793499
v 1.562889 3.871890 -0.275579
v 1.020103 3.871890 -1.215711
v -0.855733 3.871890 -1.019823
v -0.000000 3.871890 -1.331284
v -1.311059 3.871890 -0.231175
v -1.152926 3.871890 0.665642
v -0.455326 3.873722 1.250998
v 0.455326 3.873722 1.250998
v 1.152926 3.871890 0.665642
v 1.311059 3.871890 -0.231175
v 0.855733 3.871890 -1.019823
v 0.000000 4.579985 -1.587652
v 0.000000 4.080626 -2.000000
v -1.020523 4.579985 -1.216212
v -1.285575 4.080626 -1.532089
v -1.563532 4.579985 -0.275693
v -1.969615 4.080626 -0.347296
v -1.374947 4.579985 0.793826
v -1.732051 4.080626 1.000000
v -0.543009 4.579985 1.491905
v -0.684040 4.080626 1.879385
v 0.543009 4.579984 1.491905
v 0.684040 4.080626 1.879385
v 1.374947 4.579984 0.793826
v 1.732051 4.080626 1.000000
v 1.563532 4.579984 -0.275693
v 1.969615 4.080626 -0.347296
v 1.020523 4.579984 -1.216212
v 1.285575 4.080626 -1.532089
v -0.145937 0.070499 -1.792561
v -0.200000 0.067796 -1.905993
v 0.145937 0.070499 -1.792561
v 0.200000 0.067796 -1.905993
v -0.200000 0.067796 -1.705993
v 0.200000 0.067796 -1.705993
vn -0.2383 -0.7172 -0.6548
vn -0.6035 -0.7172 -0.3484
vn -0.6863 -0.7172 0.1210
vn -0.4479 -0.7172 0.5338
vn -0.0000 -0.7172 0.6969
vn 0.4479 -0.7172 0.5338
vn 0.6863 -0.7172 0.1210
vn 0.6035 -0.7172 -0.3484
vn 0.2383 -0.7172 -0.6548
vn 0.2420 -0.7067 0.6648
vn 0.6127 -0.7067 0.3538
vn 0.6968 -0.7067 -0.1229
vn 0.4564 -0.7049 -0.5430
vn -0.0000 -0.7031 -0.7111
vn -0.4564 -0.7049 -0.5430
vn -0.6968 -0.7067 -0.1229
vn -0.6127 -0.7067 0.3538
vn -0.2420 -0.7067 0.6648
vn -0.0000 -1.0000 -0.0000
vn 0.0014 -1.0000 0.0012
vn -0.0014 -1.0000 0.0012
vn -0.2702 0.6130 -0.7424
vn -0.6842 0.6130 -0.3950
vn -0.7780 0.6130 0.1372
vn -0.5078 0.6130 0.6052
vn -0.0000 0.6130 0.7900
vn 0.5078 0.6130 0.6052
vn 0.7780 0.6130 0.1372
vn 0.6842 0.6130 -0.3950
vn 0.2702 0.6130 -0.7424
vn -0.0000 1.0000 -0.0000
vn -0.3420 -0.0000 -0.9397
vn 0.3420 -0.0000 -0.9397
vn -0.8660 -0.0000 -0.5000
vn -0.9848 -0.0000 0.1736
vn -0.6428 -0.0000 0.7660
vn -0.0000 -0.0000 1.0000
vn 0.6428 -0.0000 0.7660
vn 0.9848 -0.0000 0.1736
vn 0.8660 -0.0000 -0.5000
vn -0.0000 0.9995 0.0312
vt 0.250000 0.463030
vt 0.386933 0.413190
vt 0.404269 0.433851
vt 0.250000 0.490000
vt 0.459794 0.286992
vt 0.486354 0.291676
vt 0.434490 0.143485
vt 0.457846 0.130000
vt 0.322861 0.049817
vt 0.332085 0.024474
vt 0.177139 0.049817
vt 0.167915 0.024474
vt 0.065511 0.143485
vt 0.042154 0.130000
vt 0.040206 0.286992
vt 0.013646 0.291676
vt 0.113067 0.413190
vt 0.095731 0.433851
vt 0.250000 0.431485
vt 0.366657 0.389026
vt 0.428728 0.281515
vt 0.407171 0.159257
vt 0.312072 0.079460
vt 0.187928 0.079460
vt 0.092829 0.159257
vt 0.071272 0.281515
vt 0.133343 0.389026
vt 0.250000 0.402242
vt 0.347860 0.366624
vt 0.399930 0.276437
vt 0.381846 0.173879
vt 0.302070 0.106939
vt 0.197930 0.106939
vt 0.118154 0.173879
vt 0.100070 0.276437
vt 0.152140 0.366624
vt 0.750000 0.490000
vt 0.904269 0.433851
vt 0.872463 0.395945
vt 0.750000 0.440518
vt 0.986354 0.291676
vt 0.937624 0.283083
vt 0.957846 0.130000
vt 0.914994 0.154741
vt 0.832085 0.024474
vt 0.815161 0.070971
vt 0.667915 0.024474
vt 0.684839 0.070971
vt 0.542154 0.130000
vt 0.585006 0.154741
vt 0.513646 0.291676
vt 0.562376 0.283083
vt 0.595731 0.433851
vt 0.627537 0.395945
vt 1.000000 0.548435
vt 1.000000 1.000000
vt 0.888889 1.000000
vt 0.888889 0.548435
vt 0.111111 0.548435
vt 0.111111 1.000000
vt 0.000000 1.000000
vt 0.000000 0.548435
vt 0.777778 1.000000
vt 0.777778 0.548435
vt 0.666667 1.000000
vt 0.666667 0.548435
vt 0.555556 1.000000
vt 0.555556 0.548435
vt 0.444444 1.000000
vt 0.444444 0.548435
vt 0.333333 1.000000
vt 0.333333 0.548435
vt 0.222222 1.000000
vt 0.222222 0.548435
vt 0.125000 0.500000
vt 0.375000 0.500000
vt 0.375000 0.750000
vt 0.125000 0.750000
vt 0.375177 0.783789
vt 0.375177 0.966211
vt 0.375000 1.000000
s 0
usemtl Material.001
f 56/66/32 55/67/32 46/68/32 47/69/32
f 55/67/33 57/70/33 48/71/33 46/68/33
f 57/70/34 58/72/34 49/73/34 48/71/34
f 58/72/35 59/74/35 50/75/35 49/73/35
f 59/74/36 60/76/36 51/77/36 50/75/36
f 60/76/37 61/78/37 52/79/37 51/77/37
f 61/78/38 62/80/38 53/81/38 52/79/38
f 62/80/39 63/82/39 54/83/39 53/81/39
f 63/82/40 56/66/40 47/69/40 54/83/40
f 65/84/41 64/85/41 55/67/41 56/66/41
f 64/85/42 66/86/42 57/70/42 55/67/42
f 66/86/43 67/87/43 58/72/43 57/70/43
f 67/87/44 68/88/44 59/74/44 58/72/44
f 68/88/45 69/89/45 60/76/45 59/74/45
f 69/89/46 70/90/46 61/78/46 60/76/46
f 70/90/47 71/91/47 62/80/47 61/78/47
f 71/91/48 72/92/48 63/82/48 62/80/48
f 72/92/49 65/84/49 56/66/49 63/82/49
f 74/93/50 73/94/50 64/85/50 65/84/50
f 73/94/50 75/95/50 66/86/50 64/85/50
f 75/95/50 76/96/50 67/87/50 66/86/50
f 76/96/51 77/97/51 68/88/51 67/87/51
f 77/97/50 78/98/50 69/89/50 68/88/50
f 78/98/52 79/99/52 70/90/52 69/89/52
f 79/99/50 80/100/50 71/91/50 70/90/50
f 80/100/50 81/101/50 72/92/50 71/91/50
f 81/101/50 74/93/50 65/84/50 72/92/50
f 83/102/53 85/103/53 84/104/53 82/105/53
f 85/103/54 87/106/54 86/107/54 84/104/54
f 87/106/55 89/108/55 88/109/55 86/107/55
f 89/108/56 91/110/56 90/111/56 88/109/56
f 91/110/57 93/112/57 92/113/57 90/111/57
f 93/112/58 95/114/58 94/115/58 92/113/58
f 95/114/59 97/116/59 96/117/59 94/115/59
f 97/116/60 99/118/60 98/119/60 96/117/60
f 99/118/61 83/102/61 82/105/61 98/119/61
f 82/105/62 84/104/62 86/107/62 88/109/62 90/111/62 92/113/62 94/115/62 96/117/62 98/119/62
f 83/120/63 47/121/63 46/122/63 85/123/63
f 99/124/64 54/125/64 47/126/64 83/127/64
f 85/123/65 46/122/65 48/128/65 87/129/65
f 87/129/66 48/128/66 49/130/66 89/131/66
f 89/131/67 49/130/67 50/132/67 91/133/67
f 91/133/68 50/132/68 51/134/68 93/135/68
f 93/135/69 51/134/69 52/136/69 95/137/69
f 95/137/70 52/136/70 53/138/70 97/139/70
f 97/139/71 53/138/71 54/125/71 99/124/71
f 101/140/50 103/141/50 105/142/50 104/143/50
f 102/144/72 100/145/72 104/146/72 105/142/72
o LeftHolder
v -2.304656 0.525763 0.240000
v -2.304656 3.474237 0.240000
v -2.504656 0.525763 0.240000
v -2.504656 3.474237 0.240000
v -2.304656 0.525763 -0.240000
v -2.304656 3.474237 -0.240000
v -2.504656 0.525763 -0.240000
v -2.504656 3.474237 -0.240000
v -1.304656 4.222299 0.240000
v -1.504656 4.222299 0.240000
v -1.504656 4.222299 -0.240000
v -1.304656 4.222299 -0.240000
v -1.504656 -0.046541 0.240000
v -1.304656 -0.046541 0.240000
v -1.504656 -0.046541 -0.240000
v -1.304656 -0.046541 -0.240000
vn -0.0000 -0.0000 1.0000
vn -1.0000 -0.0000 -0.0000
vn -0.0000 -0.0000 -1.0000
vn 1.0000 -0.0000 -0.0000
vn 0.4967 0.8679 -0.0000
vn -0.0000 1.0000 -0.0000
vn 0.5990 -0.8007 -0.0000
vn -0.5990 0.8007 -0.0000
vn -0.0000 -1.0000 -0.0000
vn -0.4967 -0.8679 -0.0000
vt 0.375000 0.000000
vt 0.625000 0.000000
vt 0.625000 0.250000
vt 0.375000 0.250000
vt 0.625000 0.500000
vt 0.375000 0.500000
vt 0.625000 0.750000
vt 0.375000 0.750000
vt 0.625000 1.000000
vt 0.375000 1.000000
vt 0.875000 0.500000
vt 0.875000 0.750000
vt 0.125000 0.500000
vt 0.125000 0.750000
s 0
f 106/147/73 107/148/73 109/149/73 108/150/73
f 108/150/74 109/149/74 113/151/74 112/152/74
f 112/152/75 113/151/75 111/153/75 110/154/75
f 110/154/76 111/153/76 107/155/76 106/156/76
f 110/154/77 106/156/77 119/156/77 121/154/77
f 111/153/75 113/151/75 116/151/75 117/153/75
f 116/151/78 115/157/78 114/158/78 117/153/78
f 109/149/73 107/148/73 114/148/73 115/149/73
f 107/155/79 111/153/79 117/153/79 114/155/79
f 113/151/80 109/149/80 115/149/80 116/151/80
f 118/159/81 120/152/81 121/154/81 119/160/81
f 108/150/82 112/152/82 120/152/82 118/150/82
f 106/147/73 108/150/73 118/150/73 119/147/73
f 112/152/75 110/154/75 121/154/75 120/152/75
o RightHolder
v 2.304656 0.525763 -0.240000
v 2.304656 3.474237 -0.240000
v 2.504656 0.525763 -0.240000
v 2.504656 3.474237 -0.240000
v 2.304656 0.525763 0.240000
v 2.304656 3.474237 0.240000
v 2.504656 0.525763 0.240000
v 2.504656 3.474237 0.240000
v 1.304656 4.222299 -0.240000
v 1.504656 4.222299 -0.240000
v 1.504656 4.222299 0.240000
v 1.304656 4.222299 0.240000
v 1.504656 -0.046541 -0.240000
v 1.304656 -0.046541 -0.240000
v 1.504656 -0.046541 0.240000
v 1.304656 -0.046541 0.240000
vn -0.0000 -0.0000 -1.0000
vn 1.0000 -0.0000 -0.0000
vn -0.0000 -0.0000 1.0000
vn -1.0000 -0.0000 -0.0000
vn -0.4967 0.8679 -0.0000
vn -0.0000 1.0000 -0.0000
vn -0.5990 -0.8007 -0.0000
vn 0.5990 0.8007 -0.0000
vn -0.0000 -1.0000 -0.0000
vn 0.4967 -0.8679 -0.0000
vt 0.375000 0.000000
vt 0.625000 0.000000
vt 0.625000 0.250000
vt 0.375000 0.250000
vt 0.625000 0.500000
vt 0.375000 0.500000
vt 0.625000 0.750000
vt 0.375000 0.750000
vt 0.625000 1.000000
vt 0.375000 1.000000
vt 0.875000 0.500000
vt 0.875000 0.750000
vt 0.125000 0.500000
vt 0.125000 0.750000
s 0
f 122/161/83 123/162/83 125/163/83 124/164/83
f 124/164/84 125/163/84 129/165/84 128/166/84
f 128/166/85 129/165/85 127/167/85 126/168/85
f 126/168/86 127/167/86 123/169/86 122/170/86
f 126/168/87 122/170/87 135/170/87 137/168/87
f 127/167/85 129/165/85 132/165/85 133/167/85
f 132/165/88 131/171/88 130/172/88 133/167/88
f 125/163/83 123/162/83 130/162/83 131/163/83
f 123/169/89 127/167/89 133/167/89 130/169/89
f 129/165/90 125/163/90 131/163/90 132/165/90
f 134/173/91 136/166/91 137/168/91 135/174/91
f 124/164/92 128/166/92 136/166/92 134/164/92
f 122/161/83 124/164/83 134/164/83 135/161/83
f 128/166/85 126/168/85 137/168/85 136/166/85
