# Blender 5.1.2
# www.blender.org
mtllib TransductorSpinnerBase.mtl
o SpinnerBase
v 0.000000 3.733979 -1.700000
v 0.000000 3.933979 -1.700000
v 1.092739 3.733979 -1.302276
v 1.092739 3.933979 -1.302276
v 1.674173 3.733979 -0.295202
v 1.674173 3.933979 -0.295202
v 1.472243 3.733979 0.850000
v 1.472243 3.933979 0.850000
v 0.581434 3.733979 1.597477
v 0.581434 3.933979 1.597477
v -0.581434 3.733979 1.597477
v -0.581434 3.933979 1.597477
v -1.472243 3.733979 0.850000
v -1.472243 3.933979 0.850000
v -1.674173 3.733979 -0.295202
v -1.674173 3.933979 -0.295202
v -1.092739 3.733979 -1.302276
v -1.092739 3.933979 -1.302276
v 0.000000 3.736759 -1.652735
v 1.062358 3.736759 -1.266069
v 1.062358 3.931199 -1.266069
v 0.000000 3.931199 -1.652735
v 1.627627 3.736759 -0.286995
v 1.627627 3.931199 -0.286995
v 1.431311 3.736759 0.826368
v 1.431311 3.931199 0.826368
v 0.565269 3.736759 1.553063
v 0.565269 3.931199 1.553063
v -0.565269 3.736759 1.553063
v -0.565269 3.931199 1.553063
v -1.431311 3.736759 0.826368
v -1.431311 3.931199 0.826368
v -1.627627 3.736759 -0.286995
v -1.627627 3.931199 -0.286995
v -1.062358 3.736759 -1.266069
v -1.062358 3.931199 -1.266069
vn 0.3420 -0.0000 -0.9397
vn 0.8660 -0.0000 -0.5000
vn 0.9848 -0.0000 0.1736
vn 0.6428 -0.0000 0.7660
vn -0.0000 -0.0000 1.0000
vn -0.6428 -0.0000 0.7660
vn -0.9848 -0.0000 0.1736
vn -0.8660 -0.0000 -0.5000
vn -0.3420 -0.0000 -0.9397
vn -0.3420 -0.0000 0.9397
vn -0.8660 -0.0000 0.5000
vn -0.9848 -0.0000 -0.1736
vn -0.6428 -0.0000 -0.7660
vn -0.0000 -0.0000 -1.0000
vn 0.6428 -0.0000 -0.7660
vn 0.9848 -0.0000 -0.1736
vn 0.8660 -0.0000 0.5000
vn 0.3420 -0.0000 0.9397
vn 0.0402 0.9980 -0.0479
vn -0.0402 -0.9980 -0.0479
vn 0.0214 -0.9980 0.0587
vn -0.0402 0.9980 -0.0479
vn 0.0214 0.9980 0.0587
vn -0.0541 -0.9980 0.0312
vn 0.0615 -0.9980 -0.0108
vn -0.0541 0.9980 0.0312
vn 0.0615 0.9980 -0.0109
vn -0.0000 -0.9980 -0.0625
vn -0.0000 0.9980 -0.0625
vn -0.0615 -0.9980 -0.0108
vn 0.0541 -0.9980 0.0312
vn -0.0214 -0.9980 0.0587
vn -0.0615 0.9980 -0.0109
vn 0.0541 0.9980 0.0312
vn -0.0214 0.9980 0.0587
vn 0.0402 -0.9980 -0.0479
vt 1.000000 0.500000
vt 1.000000 1.000000
vt 0.888889 1.000000
vt 0.888889 0.500000
vt 0.777778 1.000000
vt 0.777778 0.500000
vt 0.666667 1.000000
vt 0.666667 0.500000
vt 0.555556 1.000000
vt 0.555556 0.500000
vt 0.444444 1.000000
vt 0.444444 0.500000
vt 0.333333 1.000000
vt 0.333333 0.500000
vt 0.222222 1.000000
vt 0.222222 0.500000
vt 0.111111 1.000000
vt 0.111111 0.500000
vt 0.000000 1.000000
vt 0.000000 0.500000
s 0
f 1/1/1 2/2/1 4/3/1 3/4/1
f 3/4/2 4/3/2 6/5/2 5/6/2
f 5/6/3 6/5/3 8/7/3 7/8/3
f 7/8/4 8/7/4 10/9/4 9/10/4
f 9/10/5 10/9/5 12/11/5 11/12/5
f 11/12/6 12/11/6 14/13/6 13/14/6
f 13/14/7 14/13/7 16/15/7 15/16/7
f 15/16/8 16/15/8 18/17/8 17/18/8
f 17/18/9 18/17/9 2/19/9 1/20/9
f 19/1/10 20/4/10 21/3/10 22/2/10
f 20/4/11 23/6/11 24/5/11 21/3/11
f 23/6/12 25/8/12 26/7/12 24/5/12
f 25/8/13 27/10/13 28/9/13 26/7/13
f 27/10/14 29/12/14 30/11/14 28/9/14
f 29/12/15 31/14/15 32/13/15 30/11/15
f 31/14/16 33/16/16 34/15/16 32/13/16
f 33/16/17 35/18/17 36/17/17 34/15/17
f 35/18/18 19/20/18 22/19/18 36/17/18
f 12/11/19 30/11/19 32/13/19 14/13/19
f 9/10/20 27/10/20 25/8/20 7/8/20
f 1/20/21 19/20/21 35/18/21 17/18/21
f 8/7/22 26/7/22 28/9/22 10/9/22
f 18/17/23 36/17/23 22/19/23 2/19/23
f 5/6/24 23/6/24 20/4/24 3/4/24
f 15/16/25 33/16/25 31/14/25 13/14/25
f 4/3/26 21/3/26 24/5/26 6/5/26
f 14/13/27 32/13/27 34/15/27 16/15/27
f 11/12/28 29/12/28 27/10/28 9/10/28
f 10/9/29 28/9/29 30/11/29 12/11/29
f 7/8/30 25/8/30 23/6/30 5/6/30
f 17/18/31 35/18/31 33/16/31 15/16/31
f 3/4/32 20/4/32 19/1/32 1/1/32
f 6/5/33 24/5/33 26/7/33 8/7/33
f 16/15/34 34/15/34 36/17/34 18/17/34
f 2/2/35 22/2/35 21/3/35 4/3/35
f 13/14/36 31/14/36 29/12/36 11/12/36
