# Blender 5.1.2
# www.blender.org
mtllib TransductorSpinnerGlow.mtl
o SpinnerLasers
v 0.116097 3.825916 1.559555
v 0.116097 3.761874 1.559555
v 0.177005 3.806126 1.559556
v 0.153740 3.877728 1.559555
v 0.078454 3.877728 1.559555
v 0.055189 3.806126 1.559556
v 0.116097 3.825916 1.431471
v -0.131287 3.825916 1.559555
v -0.131287 3.761874 1.559555
v -0.070379 3.806126 1.559555
v -0.093644 3.877728 1.559555
v -0.168930 3.877728 1.559555
v -0.192194 3.806126 1.559555
v -0.131287 3.825916 1.431471
v 1.091398 3.825916 1.120063
v 1.091398 3.761874 1.120063
v 1.138056 3.806126 1.080912
v 1.120234 3.877727 1.095867
v 1.062562 3.877727 1.144259
v 1.044741 3.806126 1.159214
v 1.009068 3.825916 1.021945
v 0.901891 3.825916 1.279078
v 0.901891 3.761874 1.279078
v 0.948549 3.806126 1.239928
v 0.930728 3.877727 1.254882
v 0.873055 3.877727 1.303274
v 0.855234 3.806126 1.318229
v 0.819561 3.825916 1.180960
v 1.556022 3.825916 0.156481
v 1.556022 3.761874 0.156481
v 1.566599 3.806126 0.096498
v 1.562559 3.877727 0.119410
v 1.549485 3.877727 0.193552
v 1.545446 3.806126 0.216463
v 1.429884 3.825916 0.134239
v 1.513064 3.825916 0.400106
v 1.513064 3.761874 0.400106
v 1.523641 3.806126 0.340124
v 1.519601 3.877727 0.363035
v 1.506528 3.877727 0.437177
v 1.502488 3.806126 0.460088
v 1.386926 3.825916 0.377864
v 1.292566 3.825916 -0.880321
v 1.292566 3.761874 -0.880321
v 1.262112 3.806126 -0.933068
v 1.273744 3.877727 -0.912920
v 1.311387 3.877727 -0.847721
v 1.323020 3.806126 -0.827573
v 1.181642 3.825916 -0.816279
v 1.416258 3.825916 -0.666080
v 1.416258 3.761874 -0.666080
v 1.385804 3.806126 -0.718828
v 1.397436 3.877727 -0.698680
v 1.435079 3.877727 -0.633480
v 1.446712 3.806126 -0.613333
v 1.305334 3.825916 -0.602038
v 0.424303 3.825916 -1.505210
v 0.424303 3.761874 -1.505210
v 0.367069 3.806126 -1.526042
v 0.388931 3.877727 -1.518085
v 0.459676 3.877727 -1.492335
v 0.481538 3.806126 -1.484379
v 0.380496 3.825916 -1.384851
v 0.656768 3.825916 -1.420600
v 0.656768 3.761874 -1.420600
v 0.599534 3.806126 -1.441432
v 0.621395 3.877727 -1.433474
v 0.692141 3.877727 -1.407725
v 0.714002 3.806126 -1.399768
v 0.612961 3.825916 -1.300240
v -0.642495 3.825915 -1.425795
v -0.642495 3.761874 -1.425795
v -0.699730 3.806126 -1.404963
v -0.677868 3.877727 -1.412920
v -0.607122 3.877727 -1.438669
v -0.585261 3.806126 -1.446626
v -0.598688 3.825915 -1.305435
v -0.410031 3.825915 -1.510405
v -0.410031 3.761874 -1.510405
v -0.467265 3.806126 -1.489573
v -0.445403 3.877727 -1.497530
v -0.374658 3.877727 -1.523279
v -0.352796 3.806126 -1.531237
v -0.366223 3.825915 -1.390045
v -1.408663 3.825915 -0.679234
v -1.408663 3.761874 -0.679234
v -1.439117 3.806126 -0.626487
v -1.427484 3.877726 -0.646635
v -1.389841 3.877726 -0.711834
v -1.378209 3.806126 -0.731982
v -1.297739 3.825915 -0.615192
v -1.284971 3.825915 -0.893475
v -1.284971 3.761874 -0.893475
v -1.315425 3.806126 -0.840728
v -1.303793 3.877726 -0.860875
v -1.266150 3.877726 -0.926074
v -1.254518 3.806126 -0.946222
v -1.174047 3.825915 -0.829433
v -1.515702 3.825915 0.385148
v -1.515702 3.761874 0.385148
v -1.505126 3.806126 0.445130
v -1.509165 3.877726 0.422219
v -1.522238 3.877726 0.348077
v -1.526278 3.806126 0.325166
v -1.389564 3.825915 0.362906
v -1.558659 3.825915 0.141523
v -1.558659 3.761874 0.141523
v -1.548083 3.806126 0.201505
v -1.552123 3.877726 0.178594
v -1.565196 3.877726 0.104452
v -1.569236 3.806126 0.081540
v -1.432521 3.825915 0.119281
v -0.913527 3.825915 1.269315
v -0.913527 3.761874 1.269315
v -0.866869 3.806126 1.308465
v -0.884691 3.877726 1.293511
v -0.942363 3.877726 1.245118
v -0.960185 3.806126 1.230164
v -0.831196 3.825915 1.171197
v -1.103034 3.825915 1.110299
v -1.103034 3.761874 1.110299
v -1.056376 3.806126 1.149450
v -1.074198 3.877726 1.134496
v -1.131870 3.877726 1.086103
v -1.149692 3.806126 1.071149
v -1.020703 3.825915 1.012181
vn -0.0000 -0.0000 1.0000
vn 0.5449 -0.7500 -0.3750
vn 0.8817 0.2865 -0.3750
vn -0.0000 0.9270 -0.3750
vn -0.8817 0.2865 -0.3750
vn -0.5449 -0.7500 -0.3750
vn 0.6428 -0.0000 0.7660
vn 0.1764 -0.7500 -0.6375
vn 0.4343 0.2865 -0.8540
vn -0.2410 0.9270 -0.2873
vn -0.9164 0.2865 0.2795
vn -0.6585 -0.7500 0.0630
vn 0.9848 -0.0000 0.1737
vn -0.2747 -0.7500 -0.6017
vn -0.2162 0.2865 -0.9334
vn 0.9848 -0.0000 0.1736
vn -0.3693 0.9270 -0.0651
vn -0.5224 0.2865 0.8031
vn -0.4639 -0.7500 0.4715
vn 0.8660 -0.0000 -0.5000
vn -0.5972 -0.7500 -0.2844
vn -0.7656 0.2865 -0.5760
vn -0.3248 0.9270 0.1875
vn 0.1161 0.2865 0.9510
vn -0.0523 -0.7500 0.6594
vn 0.3420 -0.0000 -0.9397
vn -0.6403 -0.7500 0.1660
vn -0.9567 0.2865 0.0508
vn -0.1283 0.9270 0.3524
vn 0.7002 0.2865 0.6539
vn 0.3838 -0.7500 0.5387
vn -0.3420 -0.0000 -0.9397
vn -0.3838 -0.7500 0.5387
vn -0.7002 0.2865 0.6539
vn 0.1283 0.9270 0.3524
vn 0.9567 0.2865 0.0508
vn 0.6403 -0.7500 0.1660
vn -0.8660 -0.0000 -0.5000
vn 0.0523 -0.7500 0.6594
vn -0.1161 0.2865 0.9510
vn 0.3248 0.9270 0.1875
vn 0.7656 0.2865 -0.5760
vn 0.5972 -0.7500 -0.2844
vn 0.3247 0.9270 0.1875
vn -0.9848 -0.0000 0.1736
vn 0.4639 -0.7500 0.4715
vn 0.5224 0.2865 0.8031
vn 0.3693 0.9270 -0.0651
vn -0.9848 -0.0000 0.1737
vn 0.2162 0.2865 -0.9334
vn 0.2747 -0.7500 -0.6017
vn -0.6428 -0.0000 0.7660
vn 0.6585 -0.7500 0.0630
vn 0.9164 0.2865 0.2795
vn 0.2410 0.9270 -0.2873
vn -0.4343 0.2865 -0.8540
vn -0.1764 -0.7500 -0.6375
vn 0.6584 -0.7500 0.0630
vt 0.750000 0.250000
vt 0.750000 0.490000
vt 0.978254 0.324164
vt 0.250000 0.490000
vt 0.250000 0.250000
vt 0.478254 0.324164
vt 0.891068 0.055836
vt 0.391068 0.055836
vt 0.608932 0.055836
vt 0.108932 0.055836
vt 0.521746 0.324164
vt 0.021746 0.324164
s 0
f 1/1/1 2/2/1 3/3/1
f 2/4/2 7/5/2 3/6/2
f 1/1/1 3/3/1 4/7/1
f 3/6/3 7/5/3 4/8/3
f 1/1/1 4/7/1 5/9/1
f 4/8/4 7/5/4 5/10/4
f 1/1/1 5/9/1 6/11/1
f 5/10/5 7/5/5 6/12/5
f 1/1/1 6/11/1 2/2/1
f 6/12/6 7/5/6 2/4/6
f 8/1/1 9/2/1 10/3/1
f 9/4/2 14/5/2 10/6/2
f 8/1/1 10/3/1 11/7/1
f 10/6/3 14/5/3 11/8/3
f 8/1/1 11/7/1 12/9/1
f 11/8/4 14/5/4 12/10/4
f 8/1/1 12/9/1 13/11/1
f 12/10/5 14/5/5 13/12/5
f 8/1/1 13/11/1 9/2/1
f 13/12/6 14/5/6 9/4/6
f 15/1/7 16/2/7 17/3/7
f 16/4/8 21/5/8 17/6/8
f 15/1/7 17/3/7 18/7/7
f 17/6/9 21/5/9 18/8/9
f 15/1/7 18/7/7 19/9/7
f 18/8/10 21/5/10 19/10/10
f 15/1/7 19/9/7 20/11/7
f 19/10/11 21/5/11 20/12/11
f 15/1/7 20/11/7 16/2/7
f 20/12/12 21/5/12 16/4/12
f 22/1/7 23/2/7 24/3/7
f 23/4/8 28/5/8 24/6/8
f 22/1/7 24/3/7 25/7/7
f 24/6/9 28/5/9 25/8/9
f 22/1/7 25/7/7 26/9/7
f 25/8/10 28/5/10 26/10/10
f 22/1/7 26/9/7 27/11/7
f 26/10/11 28/5/11 27/12/11
f 22/1/7 27/11/7 23/2/7
f 27/12/12 28/5/12 23/4/12
f 29/1/13 30/2/13 31/3/13
f 30/4/14 35/5/14 31/6/14
f 29/1/13 31/3/13 32/7/13
f 31/6/15 35/5/15 32/8/15
f 29/1/16 32/7/16 33/9/16
f 32/8/17 35/5/17 33/10/17
f 29/1/16 33/9/16 34/11/16
f 33/10/18 35/5/18 34/12/18
f 29/1/16 34/11/16 30/2/16
f 34/12/19 35/5/19 30/4/19
f 36/1/13 37/2/13 38/3/13
f 37/4/14 42/5/14 38/6/14
f 36/1/13 38/3/13 39/7/13
f 38/6/15 42/5/15 39/8/15
f 36/1/13 39/7/13 40/9/13
f 39/8/17 42/5/17 40/10/17
f 36/1/16 40/9/16 41/11/16
f 40/10/18 42/5/18 41/12/18
f 36/1/16 41/11/16 37/2/16
f 41/12/19 42/5/19 37/4/19
f 43/1/20 44/2/20 45/3/20
f 44/4/21 49/5/21 45/6/21
f 43/1/20 45/3/20 46/7/20
f 45/6/22 49/5/22 46/8/22
f 43/1/20 46/7/20 47/9/20
f 46/8/23 49/5/23 47/10/23
f 43/1/20 47/9/20 48/11/20
f 47/10/24 49/5/24 48/12/24
f 43/1/20 48/11/20 44/2/20
f 48/12/25 49/5/25 44/4/25
f 50/1/20 51/2/20 52/3/20
f 51/4/21 56/5/21 52/6/21
f 50/1/20 52/3/20 53/7/20
f 52/6/22 56/5/22 53/8/22
f 50/1/20 53/7/20 54/9/20
f 53/8/23 56/5/23 54/10/23
f 50/1/20 54/9/20 55/11/20
f 54/10/24 56/5/24 55/12/24
f 50/1/20 55/11/20 51/2/20
f 55/12/25 56/5/25 51/4/25
f 57/1/26 58/2/26 59/3/26
f 58/4/27 63/5/27 59/6/27
f 57/1/26 59/3/26 60/7/26
f 59/6/28 63/5/28 60/8/28
f 57/1/26 60/7/26 61/9/26
f 60/8/29 63/5/29 61/10/29
f 57/1/26 61/9/26 62/11/26
f 61/10/30 63/5/30 62/12/30
f 57/1/26 62/11/26 58/2/26
f 62/12/31 63/5/31 58/4/31
f 64/1/26 65/2/26 66/3/26
f 65/4/27 70/5/27 66/6/27
f 64/1/26 66/3/26 67/7/26
f 66/6/28 70/5/28 67/8/28
f 64/1/26 67/7/26 68/9/26
f 67/8/29 70/5/29 68/10/29
f 64/1/26 68/9/26 69/11/26
f 68/10/30 70/5/30 69/12/30
f 64/1/26 69/11/26 65/2/26
f 69/12/31 70/5/31 65/4/31
f 71/1/32 72/2/32 73/3/32
f 72/4/33 77/5/33 73/6/33
f 71/1/32 73/3/32 74/7/32
f 73/6/34 77/5/34 74/8/34
f 71/1/32 74/7/32 75/9/32
f 74/8/35 77/5/35 75/10/35
f 71/1/32 75/9/32 76/11/32
f 75/10/36 77/5/36 76/12/36
f 71/1/32 76/11/32 72/2/32
f 76/12/37 77/5/37 72/4/37
f 78/1/32 79/2/32 80/3/32
f 79/4/33 84/5/33 80/6/33
f 78/1/32 80/3/32 81/7/32
f 80/6/34 84/5/34 81/8/34
f 78/1/32 81/7/32 82/9/32
f 81/8/35 84/5/35 82/10/35
f 78/1/32 82/9/32 83/11/32
f 82/10/36 84/5/36 83/12/36
f 78/1/32 83/11/32 79/2/32
f 83/12/37 84/5/37 79/4/37
f 85/1/38 86/2/38 87/3/38
f 86/4/39 91/5/39 87/6/39
f 85/1/38 87/3/38 88/7/38
f 87/6/40 91/5/40 88/8/40
f 85/1/38 88/7/38 89/9/38
f 88/8/41 91/5/41 89/10/41
f 85/1/38 89/9/38 90/11/38
f 89/10/42 91/5/42 90/12/42
f 85/1/38 90/11/38 86/2/38
f 90/12/43 91/5/43 86/4/43
f 92/1/38 93/2/38 94/3/38
f 93/4/39 98/5/39 94/6/39
f 92/1/38 94/3/38 95/7/38
f 94/6/40 98/5/40 95/8/40
f 92/1/38 95/7/38 96/9/38
f 95/8/44 98/5/44 96/10/44
f 92/1/38 96/9/38 97/11/38
f 96/10/42 98/5/42 97/12/42
f 92/1/38 97/11/38 93/2/38
f 97/12/43 98/5/43 93/4/43
f 99/1/45 100/2/45 101/3/45
f 100/4/46 105/5/46 101/6/46
f 99/1/45 101/3/45 102/7/45
f 101/6/47 105/5/47 102/8/47
f 99/1/45 102/7/45 103/9/45
f 102/8/48 105/5/48 103/10/48
f 99/1/49 103/9/49 104/11/49
f 103/10/50 105/5/50 104/12/50
f 99/1/49 104/11/49 100/2/49
f 104/12/51 105/5/51 100/4/51
f 106/1/45 107/2/45 108/3/45
f 107/4/46 112/5/46 108/6/46
f 106/1/45 108/3/45 109/7/45
f 108/6/47 112/5/47 109/8/47
f 106/1/45 109/7/45 110/9/45
f 109/8/48 112/5/48 110/10/48
f 106/1/49 110/9/49 111/11/49
f 110/10/50 112/5/50 111/12/50
f 106/1/49 111/11/49 107/2/49
f 111/12/51 112/5/51 107/4/51
f 113/1/52 114/2/52 115/3/52
f 114/4/53 119/5/53 115/6/53
f 113/1/52 115/3/52 116/7/52
f 115/6/54 119/5/54 116/8/54
f 113/1/52 116/7/52 117/9/52
f 116/8/55 119/5/55 117/10/55
f 113/1/52 117/9/52 118/11/52
f 117/10/56 119/5/56 118/12/56
f 113/1/52 118/11/52 114/2/52
f 118/12/57 119/5/57 114/4/57
f 120/1/52 121/2/52 122/3/52
f 121/4/58 126/5/58 122/6/58
f 120/1/52 122/3/52 123/7/52
f 122/6/54 126/5/54 123/8/54
f 120/1/52 123/7/52 124/9/52
f 123/8/55 126/5/55 124/10/55
f 120/1/52 124/9/52 125/11/52
f 124/10/56 126/5/56 125/12/56
f 120/1/52 125/11/52 121/2/52
f 125/12/57 126/5/57 121/4/57
