# Blender 5.1.2
# www.blender.org
mtllib Trashcan.mtl
o Cube
v 1.033991 -1.206768 -1.160615
v 1.229749 -1.674392 -1.266157
v 1.033991 -1.206768 1.160615
v 1.229749 -1.674392 1.266157
v -1.033991 -1.206768 -1.160615
v -1.229749 -1.674392 -1.266157
v -1.033991 -1.206768 1.160615
v -1.229749 -1.674392 1.266157
v 1.487996 1.674392 1.646005
v -1.487996 1.674392 1.646005
v 1.487996 1.674392 -1.646005
v -1.487996 1.674392 -1.646005
v 1.268277 1.611549 1.419780
v -1.268277 1.611549 1.419780
v 1.268277 1.611549 -1.419780
v -1.268277 1.611549 -1.419780
vn -0.0000 1.0000 -0.0000
vn -0.0000 -0.1127 0.9936
vn -0.9970 -0.0769 -0.0000
vn -0.0000 -1.0000 -0.0000
vn 0.9970 -0.0769 -0.0000
vn -0.0000 -0.1127 -0.9936
vn -0.0000 0.9635 -0.2677
vn -0.2750 0.9614 -0.0000
vn 0.2750 0.9614 -0.0000
vn -0.0000 0.9635 0.2677
vn -0.0000 0.0916 -0.9958
vn -0.9966 0.0828 -0.0000
vn 0.9966 0.0828 -0.0000
vn -0.0000 0.0916 0.9958
vt 0.646906 0.520389
vt 0.853094 0.520389
vt 0.853094 0.729611
vt 0.646906 0.729611
vt 0.375000 0.750000
vt 0.625000 0.750000
vt 0.625000 1.000000
vt 0.375000 1.000000
vt 0.375000 0.000000
vt 0.625000 0.000000
vt 0.625000 0.250000
vt 0.375000 0.250000
vt 0.125000 0.500000
vt 0.375000 0.500000
vt 0.125000 0.750000
vt 0.625000 0.500000
vt 0.643458 0.732820
vt 0.856542 0.732820
vt 0.875000 0.750000
vt 0.643458 0.517180
vt 0.856542 0.517180
vt 0.875000 0.500000
s 0
usemtl Material
f 1/1/1 5/2/1 7/3/1 3/4/1
f 4/5/2 9/6/2 10/7/2 8/8/2
f 8/9/3 10/10/3 12/11/3 6/12/3
f 6/13/4 2/14/4 4/5/4 8/15/4
f 2/14/5 11/16/5 9/6/5 4/5/5
f 6/12/6 12/11/6 11/16/6 2/14/6
f 13/17/7 14/18/7 10/19/7 9/6/7
f 15/20/8 13/17/8 9/6/8 11/16/8
f 14/18/9 16/21/9 12/22/9 10/19/9
f 16/21/10 15/20/10 11/16/10 12/22/10
f 3/4/11 7/3/11 14/18/11 13/17/11
f 1/1/12 3/4/12 13/17/12 15/20/12
f 7/3/13 5/2/13 16/21/13 14/18/13
f 5/2/14 1/1/14 15/20/14 16/21/14
