# Blender 5.1.2
# www.blender.org
mtllib Window.mtl
o Plane
v -3.000000 0.000000 3.000000
v 3.000000 0.000000 3.000000
v -3.000000 0.000000 -3.000000
v 3.000000 0.000000 -3.000000
v 0.092375 0.000000 3.000000
v -0.092375 0.000000 3.000000
v -0.092375 0.000000 -3.000000
v 0.092375 0.000000 -3.000000
v -3.000000 0.000000 0.092375
v -3.000000 0.000000 -0.092375
v 3.000000 0.000000 -0.092375
v 3.000000 0.000000 0.092375
v 0.217652 0.000000 -0.217652
v -0.217652 0.000000 -0.217652
v -0.217652 0.000000 0.217652
v 0.217652 0.000000 0.217652
v 0.092375 0.000000 -0.092375
v -0.092375 0.000000 -0.092375
v 0.217652 0.000000 -2.874723
v -0.217652 0.000000 -2.874723
v 0.092375 0.000000 0.092375
v 0.217652 0.000000 2.874723
v -0.092375 0.000000 0.092375
v 2.874723 0.000000 2.874723
v -0.217652 0.000000 2.874723
v -2.874723 0.000000 -0.217652
v -2.874723 0.000000 0.217652
v 2.874723 0.000000 -0.217652
v 2.874723 0.000000 0.217652
v -2.874723 0.000000 2.874723
v -2.874723 0.000000 -2.874723
v 2.874723 0.000000 -2.874723
v 0.092375 0.187416 0.092375
v 0.092375 0.187416 -0.092375
v -0.092375 0.187416 -0.092375
v -0.092375 0.187416 0.092375
v 0.092375 0.187416 -3.000000
v -0.092375 0.187416 -3.000000
v -0.092375 0.187416 3.000000
v 0.092375 0.187416 3.000000
v -3.000000 0.187416 -0.092375
v -3.000000 0.187416 0.092375
v 3.000000 0.187416 0.092375
v 3.000000 0.187416 -0.092375
v 0.217652 0.187416 2.874723
v 2.874723 0.187416 2.874723
v 2.874723 0.187416 0.217652
v -2.874723 0.187416 0.217652
v -2.874723 0.187416 2.874723
v -0.217652 0.187416 2.874723
v -2.874723 0.187416 -2.874723
v -2.874723 0.187416 -0.217652
v -0.217652 0.187416 -2.874723
v 2.874723 0.187416 -0.217652
v 2.874723 0.187416 -2.874723
v 0.217652 0.187416 -2.874723
v 3.000000 0.187416 3.000000
v -3.000000 0.187416 3.000000
v -3.000000 0.187416 -3.000000
v 3.000000 0.187416 -3.000000
v 0.092375 0.000000 -0.092375
v 0.092375 0.000000 -3.000000
v -0.092375 0.000000 -3.000000
v -0.092375 0.000000 -0.092375
v 0.092375 0.000000 3.000000
v 0.092375 0.000000 0.092375
v -0.092375 0.000000 0.092375
v -0.092375 0.000000 3.000000
v -3.000000 0.000000 -0.092375
v -3.000000 0.000000 0.092375
v 3.000000 0.000000 -0.092375
v 3.000000 0.000000 0.092375
v 0.217652 0.000000 -0.217652
v 0.217652 0.000000 -2.874723
v -0.217652 0.000000 -2.874723
v -0.217652 0.000000 -0.217652
v 0.217652 0.000000 2.874723
v 0.217652 0.000000 0.217652
v -0.217652 0.000000 0.217652
v -0.217652 0.000000 2.874723
v -2.874723 0.000000 -0.217652
v -2.874723 0.000000 0.217652
v 2.874723 0.000000 -0.217652
v 2.874723 0.000000 0.217652
v 0.092375 0.111610 -0.092375
v 0.217652 0.111610 -0.217652
v -0.217652 0.111610 -0.217652
v -0.092375 0.111610 -0.092375
v 0.217652 0.111610 0.217652
v 0.092375 0.111610 0.092375
v -0.092375 0.111610 0.092375
v -0.217652 0.111610 0.217652
v 0.092375 0.111610 -3.000000
v -0.092375 0.111610 -3.000000
v 0.092375 0.111610 3.000000
v -0.092375 0.111610 3.000000
v -3.000000 0.111610 -0.092375
v -3.000000 0.111610 0.092375
v 3.000000 0.111610 -0.092375
v 3.000000 0.111610 0.092375
v 0.217652 0.111610 -2.874723
v -0.217652 0.111610 -2.874723
v 0.217652 0.111610 2.874723
v -0.217652 0.111610 2.874723
v -2.874723 0.111610 -0.217652
v -2.874723 0.111610 0.217652
v 2.874723 0.111610 -0.217652
v 2.874723 0.111610 0.217652
vn -0.0000 1.0000 -0.0000
vn -0.0000 -0.0000 1.0000
vn -0.7071 -0.0000 0.7071
vn -0.0000 -0.0000 -1.0000
vn -1.0000 -0.0000 -0.0000
vn 0.7071 -0.0000 -0.7071
vn -0.7071 -0.0000 -0.7071
vn 1.0000 -0.0000 -0.0000
vn 0.7071 -0.0000 0.7071
vn -0.0000 0.8556 0.5177
vn -0.5177 0.8556 -0.0000
vn -0.0000 -0.8556 0.5177
vn 0.5177 -0.8556 -0.0000
vn -0.5177 -0.8556 -0.0000
vn -0.0000 0.8556 -0.5177
vn 0.5177 0.8556 -0.0000
vt 0.515396 0.515396
vt 0.484604 0.515396
vt 0.484604 0.484604
vt 0.515396 0.484604
vt 1.000000 0.484604
vt 0.515396 1.000000
vt 0.536275 0.979120
vt 1.000000 0.515396
vt 0.979121 0.536275
vt 0.536275 0.536275
vt 0.000000 0.484604
vt 0.020879 0.463725
vt 0.463725 0.463725
vt 0.020879 0.536275
vt 0.000000 0.515396
vt 0.000000 0.000000
vt 0.979121 0.463725
vt 0.484604 1.000000
vt 0.515396 0.000000
vt 0.484604 0.000000
vt 0.979121 0.020879
vt 0.536275 0.020879
vt 1.000000 0.000000
vt 0.020879 0.020879
vt 0.463725 0.020879
vt 0.020879 0.979120
vt 0.000000 1.000000
vt 0.463725 0.979121
vt 0.979121 0.979121
vt 1.000000 1.000000
vt 0.463725 0.536275
vt 0.536275 0.463725
s 0
f 61/1/1 64/2/1 67/3/1 66/4/1
f 66/4/2 72/5/2 43/5/2 33/4/2
f 64/2/2 61/1/2 34/1/2 35/2/2
f 62/6/3 74/7/3 56/7/3 37/6/3
f 71/8/4 61/1/4 34/1/4 44/8/4
f 8/6/5 17/1/5 85/1/5 93/6/5
f 11/8/6 28/9/6 107/9/6 99/8/6
f 12/5/4 21/4/4 90/4/4 100/5/4
f 28/9/4 13/10/4 86/10/4 107/9/4
f 9/11/3 27/12/3 106/12/3 98/11/3
f 17/1/2 11/8/2 99/8/2 85/1/2
f 27/12/2 15/13/2 92/13/2 106/12/2
f 26/14/7 10/15/7 97/15/7 105/14/7
f 61/1/5 66/4/5 33/4/5 34/1/5
f 72/16/8 71/16/8 44/16/8 43/16/8
f 4/16/4 62/16/4 37/16/4 60/16/4
f 70/11/2 67/3/2 36/3/2 42/11/2
f 71/16/8 4/16/8 60/16/8 44/16/8
f 69/16/5 70/16/5 42/16/5 41/16/5
f 72/5/7 84/17/7 47/17/7 43/5/7
f 63/16/4 3/16/4 59/16/4 38/16/4
f 34/1/1 37/6/1 38/18/1 35/2/1
f 40/19/1 33/4/1 36/3/1 39/20/1
f 35/2/1 41/15/1 42/11/1 36/3/1
f 44/8/1 34/1/1 33/4/1 43/5/1
f 46/21/1 45/22/1 40/19/1 57/23/1
f 47/17/1 46/21/1 57/23/1 43/5/1
f 49/24/1 48/12/1 42/11/1 58/16/1
f 50/25/1 49/24/1 58/16/1 39/20/1
f 52/14/1 51/26/1 59/27/1 41/15/1
f 51/26/1 53/28/1 38/18/1 59/27/1
f 55/29/1 54/9/1 44/8/1 60/30/1
f 56/7/1 55/29/1 60/30/1 37/6/1
f 75/28/9 63/18/9 38/18/9 53/28/9
f 67/3/8 64/2/8 35/2/8 36/3/8
f 24/21/4 77/22/4 45/22/4 46/21/4
f 66/4/4 67/3/4 36/3/4 33/4/4
f 84/17/5 24/21/5 46/21/5 47/17/5
f 77/22/7 65/19/7 40/19/7 45/22/7
f 61/1/8 62/6/8 37/6/8 34/1/8
f 30/24/8 82/12/8 48/12/8 49/24/8
f 62/16/4 63/16/4 38/16/4 37/16/4
f 65/16/2 2/16/2 57/16/2 40/16/2
f 80/25/4 30/24/4 49/24/4 50/25/4
f 63/18/5 64/2/5 35/2/5 38/18/5
f 2/16/8 72/16/8 43/16/8 57/16/8
f 81/14/8 31/26/8 51/26/8 52/14/8
f 68/20/6 80/25/6 50/25/6 39/20/6
f 68/16/2 65/16/2 40/16/2 39/16/2
f 70/16/5 1/16/5 58/16/5 42/16/5
f 31/26/2 75/28/2 53/28/2 51/26/2
f 69/15/9 81/14/9 52/14/9 41/15/9
f 65/19/8 66/4/8 33/4/8 40/19/8
f 1/16/2 68/16/2 39/16/2 58/16/2
f 32/29/5 83/9/5 54/9/5 55/29/5
f 82/12/6 70/11/6 42/11/6 48/12/6
f 67/3/5 68/20/5 39/20/5 36/3/5
f 3/16/5 69/16/5 41/16/5 59/16/5
f 74/7/2 32/29/2 55/29/2 56/7/2
f 83/9/3 71/8/3 44/8/3 54/9/3
f 64/2/4 69/15/4 41/15/4 35/2/4
f 17/1/1 8/6/1 62/6/1 61/1/1
f 7/18/1 18/2/1 64/2/1 63/18/1
f 5/19/1 21/4/1 66/4/1 65/19/1
f 23/3/1 6/20/1 68/20/1 67/3/1
f 18/2/1 10/15/1 69/15/1 64/2/1
f 9/11/1 23/3/1 67/3/1 70/11/1
f 11/8/1 17/1/1 61/1/1 71/8/1
f 21/4/1 12/5/1 72/5/1 66/4/1
f 19/7/1 13/10/1 73/10/1 74/7/1
f 14/31/1 20/28/1 75/28/1 76/31/1
f 16/32/1 22/22/1 77/22/1 78/32/1
f 25/25/1 15/13/1 79/13/1 80/25/1
f 26/14/1 14/31/1 76/31/1 81/14/1
f 15/13/1 27/12/1 82/12/1 79/13/1
f 13/10/1 28/9/1 83/9/1 73/10/1
f 29/17/1 16/32/1 78/32/1 84/17/1
f 8/6/1 19/7/1 74/7/1 62/6/1
f 20/28/1 7/18/1 63/18/1 75/28/1
f 22/22/1 5/19/1 65/19/1 77/22/1
f 6/20/1 25/25/1 80/25/1 68/20/1
f 10/15/1 26/14/1 81/14/1 69/15/1
f 27/12/1 9/11/1 70/11/1 82/12/1
f 28/9/1 11/8/1 71/8/1 83/9/1
f 12/5/1 29/17/1 84/17/1 72/5/1
f 86/10/1 101/7/1 93/6/1 85/1/1
f 102/28/1 87/31/1 88/2/1 94/18/1
f 103/22/1 89/32/1 90/4/1 95/19/1
f 92/13/1 104/25/1 96/20/1 91/3/1
f 87/31/1 105/14/1 97/15/1 88/2/1
f 106/12/1 92/13/1 91/3/1 98/11/1
f 107/9/1 86/10/1 85/1/1 99/8/1
f 89/32/1 108/17/1 100/5/1 90/4/1
f 16/32/2 29/17/2 108/17/2 89/32/2
f 13/10/8 19/7/8 101/7/8 86/10/8
f 29/17/9 12/5/9 100/5/9 108/17/9
f 18/2/8 7/18/8 94/18/8 88/2/8
f 19/7/6 8/6/6 93/6/6 101/7/6
f 20/28/5 14/31/5 87/31/5 102/28/5
f 21/4/5 5/19/5 95/19/5 90/4/5
f 7/18/7 20/28/7 102/28/7 94/18/7
f 22/22/8 16/32/8 89/32/8 103/22/8
f 6/20/8 23/3/8 91/3/8 96/20/8
f 5/19/9 22/22/9 103/22/9 95/19/9
f 15/13/5 25/25/5 104/25/5 92/13/5
f 10/15/2 18/2/2 88/2/2 97/15/2
f 25/25/3 6/20/3 96/20/3 104/25/3
f 14/31/4 26/14/4 105/14/4 87/31/4
f 23/3/4 9/11/4 98/11/4 91/3/4
f 36/3/10 42/11/10 106/12/10 92/13/10
f 39/20/11 36/3/11 92/13/11 104/25/11
f 35/2/12 41/15/12 105/14/12 87/31/12
f 38/18/13 35/2/13 87/31/13 102/28/13
f 34/1/14 37/6/14 101/7/14 86/10/14
f 34/1/15 44/8/15 107/9/15 86/10/15
f 43/5/10 33/4/10 89/32/10 108/17/10
f 33/4/16 40/19/16 103/22/16 89/32/16
f 36/16/1 33/16/1 34/16/1 35/16/1
