# Blender 5.1.2
# www.blender.org
mtllib Window3.mtl
o Plane
v -3.000000 0.000000 3.000000
v 3.000000 0.000000 3.000000
v -3.000000 0.000000 -3.000000
v 3.000000 0.000000 -3.000000
v 0.092375 0.000000 3.000000
v -0.092375 0.000000 3.000000
v -0.092375 0.000000 -3.000000
v 0.092375 0.000000 -3.000000
v -3.000000 0.000000 0.092375
v -3.000000 0.000000 -0.092375
v 3.000000 0.000000 -0.092375
v 3.000000 0.000000 0.092375
v 0.217652 0.000000 -0.217652
v -0.217652 0.000000 -0.217652
v -0.217652 0.000000 0.217652
v 0.217652 0.000000 0.217652
v 0.092375 0.000000 -0.092375
v -0.092375 0.000000 -0.092375
v 0.217652 0.000000 -2.874723
v -0.217652 0.000000 -2.874723
v 0.092375 0.000000 0.092375
v 0.217652 0.000000 2.874723
v -0.092375 0.000000 0.092375
v 2.874723 0.000000 2.874723
v -0.217652 0.000000 2.874723
v -2.874723 0.000000 -0.217652
v -2.874723 0.000000 0.217652
v 2.874723 0.000000 -0.217652
v 2.874723 0.000000 0.217652
v -2.874723 0.000000 2.874723
v -2.874723 0.000000 -2.874723
v 2.874723 0.000000 -2.874723
v 0.092375 0.187416 0.092375
v 0.092375 0.187416 -0.092375
v -0.092375 0.187416 -0.092375
v -0.092375 0.187416 0.092375
v 0.092375 0.187416 -3.000000
v -0.092375 0.187416 -3.000000
v -0.092375 0.187416 3.000000
v 0.092375 0.187416 3.000000
v -3.000000 0.187416 -0.092375
v -3.000000 0.187416 0.092375
v 3.000000 0.187416 0.092375
v 3.000000 0.187416 -0.092375
v 0.217652 0.187416 2.874723
v 2.874723 0.187416 2.874723
v 2.874723 0.187416 0.217652
v -2.874723 0.187416 0.217652
v -2.874723 0.187416 2.874723
v -0.217652 0.187416 2.874723
v -2.874723 0.187416 -2.874723
v -2.874723 0.187416 -0.217652
v -0.217652 0.187416 -2.874723
v 2.874723 0.187416 -0.217652
v 2.874723 0.187416 -2.874723
v 0.217652 0.187416 -2.874723
v 3.000000 0.187416 3.000000
v -3.000000 0.187416 3.000000
v -3.000000 0.187416 -3.000000
v 3.000000 0.187416 -3.000000
v 0.092375 0.000000 -0.092375
v 0.092375 0.000000 -3.000000
v -0.092375 0.000000 -3.000000
v -0.092375 0.000000 -0.092375
v 0.092375 0.000000 3.000000
v 0.092375 0.000000 0.092375
v -0.092375 0.000000 0.092375
v -0.092375 0.000000 3.000000
v -3.000000 0.000000 -0.092375
v -3.000000 0.000000 0.092375
v 3.000000 0.000000 -0.092375
v 3.000000 0.000000 0.092375
v 0.217652 0.000000 -0.217652
v 0.217652 0.000000 -2.874723
v -0.217652 0.000000 -2.874723
v -0.217652 0.000000 -0.217652
v 0.217652 0.000000 2.874723
v 0.217652 0.000000 0.217652
v -0.217652 0.000000 0.217652
v -0.217652 0.000000 2.874723
v -2.874723 0.000000 -0.217652
v -2.874723 0.000000 0.217652
v 2.874723 0.000000 -0.217652
v 2.874723 0.000000 0.217652
v 0.092375 0.111610 -0.092375
v 0.217652 0.111610 -0.217652
v -0.217652 0.111610 -0.217652
v -0.092375 0.111610 -0.092375
v 0.217652 0.111610 0.217652
v 0.092375 0.111610 0.092375
v -0.092375 0.111610 0.092375
v -0.217652 0.111610 0.217652
v 0.092375 0.111610 -3.000000
v -0.092375 0.111610 -3.000000
v 0.092375 0.111610 3.000000
v -0.092375 0.111610 3.000000
v -3.000000 0.111610 -0.092375
v -3.000000 0.111610 0.092375
v 3.000000 0.111610 -0.092375
v 3.000000 0.111610 0.092375
v 0.217652 0.111610 -2.874723
v -0.217652 0.111610 -2.874723
v 0.217652 0.111610 2.874723
v -0.217652 0.111610 2.874723
v -2.874723 0.111610 -0.217652
v -2.874723 0.111610 0.217652
v 2.874723 0.111610 -0.217652
v 2.874723 0.111610 0.217652
vn -0.0000 -1.0000 -0.0000
vn -0.0000 -0.0000 1.0000
vn -0.0000 -0.0000 -1.0000
vn -0.7071 -0.0000 0.7071
vn -1.0000 -0.0000 -0.0000
vn 0.7071 -0.0000 -0.7071
vn -0.7071 -0.0000 -0.7071
vn 1.0000 -0.0000 -0.0000
vn -0.0000 1.0000 -0.0000
vn 0.7071 -0.0000 0.7071
vn -0.0000 0.8556 0.5177
vn -0.5177 0.8556 -0.0000
vn -0.0000 0.8556 -0.5177
vn 0.5177 0.8556 -0.0000
vt 0.515396 0.515396
vt 0.515396 0.484604
vt 0.484604 0.484604
vt 0.484604 0.515396
vt 1.000000 0.484604
vt 0.515396 1.000000
vt 0.536275 0.979120
vt 1.000000 0.515396
vt 0.979121 0.536275
vt 0.536275 0.536275
vt 0.000000 0.484604
vt 0.020879 0.463725
vt 0.463725 0.463725
vt 0.020879 0.536275
vt 0.000000 0.515396
vt 0.000000 0.000000
vt 0.979121 0.463725
vt 0.484604 1.000000
vt 0.515396 0.000000
vt 0.484604 0.000000
vt 0.979121 0.020879
vt 0.536275 0.020879
vt 1.000000 0.000000
vt 0.020879 0.020879
vt 0.463725 0.020879
vt 0.020879 0.979120
vt 0.000000 1.000000
vt 0.463725 0.979121
vt 0.979121 0.979121
vt 1.000000 1.000000
vt 0.463725 0.536275
vt 0.536275 0.463725
s 0
f 61/1/1 66/2/1 67/3/1 64/4/1
f 66/2/2 72/5/2 43/5/2 33/2/2
f 64/4/3 35/4/3 34/1/3 61/1/3
f 62/6/4 74/7/4 56/7/4 37/6/4
f 71/8/3 61/1/3 34/1/3 44/8/3
f 8/6/5 17/1/5 85/1/5 93/6/5
f 11/8/6 28/9/6 107/9/6 99/8/6
f 12/5/3 21/2/3 90/2/3 100/5/3
f 28/9/3 13/10/3 86/10/3 107/9/3
f 9/11/4 27/12/4 106/12/4 98/11/4
f 17/1/2 11/8/2 99/8/2 85/1/2
f 27/12/2 15/13/2 92/13/2 106/12/2
f 26/14/7 10/15/7 97/15/7 105/14/7
f 61/1/8 34/1/8 33/2/8 66/2/8
f 72/16/8 71/16/8 44/16/8 43/16/8
f 4/16/3 62/16/3 37/16/3 60/16/3
f 70/11/2 67/3/2 36/3/2 42/11/2
f 71/16/8 4/16/8 60/16/8 44/16/8
f 69/16/5 70/16/5 42/16/5 41/16/5
f 72/5/7 84/17/7 47/17/7 43/5/7
f 63/16/3 3/16/3 59/16/3 38/16/3
f 34/1/9 37/6/9 38/18/9 35/4/9
f 40/19/9 33/2/9 36/3/9 39/20/9
f 35/4/9 41/15/9 42/11/9 36/3/9
f 44/8/9 34/1/9 33/2/9 43/5/9
f 46/21/9 45/22/9 40/19/9 57/23/9
f 47/17/9 46/21/9 57/23/9 43/5/9
f 49/24/9 48/12/9 42/11/9 58/16/9
f 50/25/9 49/24/9 58/16/9 39/20/9
f 52/14/9 51/26/9 59/27/9 41/15/9
f 51/26/9 53/28/9 38/18/9 59/27/9
f 55/29/9 54/9/9 44/8/9 60/30/9
f 56/7/9 55/29/9 60/30/9 37/6/9
f 75/28/10 63/18/10 38/18/10 53/28/10
f 67/3/5 36/3/5 35/4/5 64/4/5
f 24/21/3 77/22/3 45/22/3 46/21/3
f 66/2/2 33/2/2 36/3/2 67/3/2
f 84/17/5 24/21/5 46/21/5 47/17/5
f 77/22/7 65/19/7 40/19/7 45/22/7
f 61/1/8 62/6/8 37/6/8 34/1/8
f 30/24/8 82/12/8 48/12/8 49/24/8
f 62/16/3 63/16/3 38/16/3 37/16/3
f 65/16/2 2/16/2 57/16/2 40/16/2
f 80/25/3 30/24/3 49/24/3 50/25/3
f 63/18/5 64/4/5 35/4/5 38/18/5
f 2/16/8 72/16/8 43/16/8 57/16/8
f 81/14/8 31/26/8 51/26/8 52/14/8
f 68/20/6 80/25/6 50/25/6 39/20/6
f 68/16/2 65/16/2 40/16/2 39/16/2
f 70/16/5 1/16/5 58/16/5 42/16/5
f 31/26/2 75/28/2 53/28/2 51/26/2
f 69/15/10 81/14/10 52/14/10 41/15/10
f 65/19/8 66/2/8 33/2/8 40/19/8
f 1/16/2 68/16/2 39/16/2 58/16/2
f 32/29/5 83/9/5 54/9/5 55/29/5
f 82/12/6 70/11/6 42/11/6 48/12/6
f 67/3/5 68/20/5 39/20/5 36/3/5
f 3/16/5 69/16/5 41/16/5 59/16/5
f 74/7/2 32/29/2 55/29/2 56/7/2
f 83/9/4 71/8/4 44/8/4 54/9/4
f 64/4/3 69/15/3 41/15/3 35/4/3
f 17/1/9 8/6/9 62/6/9 61/1/9
f 7/18/9 18/4/9 64/4/9 63/18/9
f 5/19/9 21/2/9 66/2/9 65/19/9
f 23/3/9 6/20/9 68/20/9 67/3/9
f 18/4/9 10/15/9 69/15/9 64/4/9
f 9/11/9 23/3/9 67/3/9 70/11/9
f 11/8/9 17/1/9 61/1/9 71/8/9
f 21/2/9 12/5/9 72/5/9 66/2/9
f 19/7/9 13/10/9 73/10/9 74/7/9
f 14/31/9 20/28/9 75/28/9 76/31/9
f 16/32/9 22/22/9 77/22/9 78/32/9
f 25/25/9 15/13/9 79/13/9 80/25/9
f 26/14/9 14/31/9 76/31/9 81/14/9
f 15/13/9 27/12/9 82/12/9 79/13/9
f 13/10/9 28/9/9 83/9/9 73/10/9
f 29/17/9 16/32/9 78/32/9 84/17/9
f 8/6/9 19/7/9 74/7/9 62/6/9
f 20/28/9 7/18/9 63/18/9 75/28/9
f 22/22/9 5/19/9 65/19/9 77/22/9
f 6/20/9 25/25/9 80/25/9 68/20/9
f 10/15/9 26/14/9 81/14/9 69/15/9
f 27/12/9 9/11/9 70/11/9 82/12/9
f 28/9/9 11/8/9 71/8/9 83/9/9
f 12/5/9 29/17/9 84/17/9 72/5/9
f 86/10/9 101/7/9 93/6/9 85/1/9
f 102/28/9 87/31/9 88/4/9 94/18/9
f 103/22/9 89/32/9 90/2/9 95/19/9
f 92/13/9 104/25/9 96/20/9 91/3/9
f 87/31/9 105/14/9 97/15/9 88/4/9
f 106/12/9 92/13/9 91/3/9 98/11/9
f 107/9/9 86/10/9 85/1/9 99/8/9
f 89/32/9 108/17/9 100/5/9 90/2/9
f 16/32/2 29/17/2 108/17/2 89/32/2
f 13/10/8 19/7/8 101/7/8 86/10/8
f 29/17/10 12/5/10 100/5/10 108/17/10
f 18/4/8 7/18/8 94/18/8 88/4/8
f 19/7/6 8/6/6 93/6/6 101/7/6
f 20/28/5 14/31/5 87/31/5 102/28/5
f 21/2/5 5/19/5 95/19/5 90/2/5
f 7/18/7 20/28/7 102/28/7 94/18/7
f 22/22/8 16/32/8 89/32/8 103/22/8
f 6/20/8 23/3/8 91/3/8 96/20/8
f 5/19/10 22/22/10 103/22/10 95/19/10
f 15/13/5 25/25/5 104/25/5 92/13/5
f 10/15/2 18/4/2 88/4/2 97/15/2
f 25/25/4 6/20/4 96/20/4 104/25/4
f 14/31/3 26/14/3 105/14/3 87/31/3
f 23/3/3 9/11/3 98/11/3 91/3/3
f 36/3/11 42/11/11 106/12/11 92/13/11
f 39/20/12 36/3/12 92/13/12 104/25/12
f 35/4/13 87/31/13 105/14/13 41/15/13
f 38/18/12 102/28/12 87/31/12 35/4/12
f 34/1/14 86/10/14 101/7/14 37/6/14
f 34/1/13 44/8/13 107/9/13 86/10/13
f 43/5/11 33/2/11 89/32/11 108/17/11
f 33/2/14 40/19/14 103/22/14 89/32/14
f 36/16/9 33/16/9 34/16/9 35/16/9
